<svg xmlns="http://www.w3.org/2000/svg" xmlns:xlink="http://www.w3.org/1999/xlink" width="500" zoomAndPan="magnify" viewBox="0 0 375 374.999991" height="500" preserveAspectRatio="xMidYMid meet" version="1.0"><defs><g/><clipPath id="d8c49df73f"><path d="M 8.484375 125.023438 L 47.484375 125.023438 L 47.484375 203.023438 L 8.484375 203.023438 Z M 8.484375 125.023438 " clip-rule="nonzero"/></clipPath><clipPath id="392ab96c17"><path d="M 47.65625 183.902344 L 47.65625 203.371094 C 26.019531 203.371094 8.484375 185.828125 8.484375 164.195312 C 8.484375 142.558594 26.019531 125.023438 47.65625 125.023438 L 47.65625 144.492188 C 36.773438 144.492188 27.949219 153.3125 27.949219 164.199219 C 27.949219 175.082031 36.773438 183.902344 47.65625 183.902344 Z M 47.65625 183.902344 " clip-rule="nonzero"/></clipPath><linearGradient x1="45.50488" gradientTransform="matrix(0.425361, 0, 0, 0.425361, 8.483367, 125.022337)" y1="183.908803" x2="47.674442" gradientUnits="userSpaceOnUse" y2="-0.517747" id="8ec0ad6aaa"><stop stop-opacity="1" stop-color="rgb(86.935425%, 26.792908%, 73.303223%)" offset="0"/><stop stop-opacity="1" stop-color="rgb(86.756897%, 26.782227%, 73.425293%)" offset="0.00584752"/><stop stop-opacity="1" stop-color="rgb(86.579895%, 26.773071%, 73.548889%)" offset="0.0078125"/><stop stop-opacity="1" stop-color="rgb(86.401367%, 26.763916%, 73.670959%)" offset="0.015625"/><stop stop-opacity="1" stop-color="rgb(86.045837%, 26.74408%, 73.9151%)" offset="0.0234375"/><stop stop-opacity="1" stop-color="rgb(85.690308%, 26.725769%, 74.160767%)" offset="0.03125"/><stop stop-opacity="1" stop-color="rgb(85.333252%, 26.705933%, 74.404907%)" offset="0.0390625"/><stop stop-opacity="1" stop-color="rgb(84.977722%, 26.687622%, 74.650574%)" offset="0.046875"/><stop stop-opacity="1" stop-color="rgb(84.622192%, 26.667786%, 74.89624%)" offset="0.0546875"/><stop stop-opacity="1" stop-color="rgb(84.266663%, 26.647949%, 75.140381%)" offset="0.0625"/><stop stop-opacity="1" stop-color="rgb(83.911133%, 26.629639%, 75.386047%)" offset="0.0703125"/><stop stop-opacity="1" stop-color="rgb(83.555603%, 26.609802%, 75.630188%)" offset="0.078125"/><stop stop-opacity="1" stop-color="rgb(83.200073%, 26.591492%, 75.875854%)" offset="0.0859375"/><stop stop-opacity="1" stop-color="rgb(82.844543%, 26.571655%, 76.119995%)" offset="0.09375"/><stop stop-opacity="1" stop-color="rgb(82.489014%, 26.551819%, 76.365662%)" offset="0.101562"/><stop stop-opacity="1" stop-color="rgb(82.133484%, 26.533508%, 76.611328%)" offset="0.109375"/><stop stop-opacity="1" stop-color="rgb(81.777954%, 26.513672%, 76.855469%)" offset="0.117188"/><stop stop-opacity="1" stop-color="rgb(81.422424%, 26.495361%, 77.101135%)" offset="0.125"/><stop stop-opacity="1" stop-color="rgb(81.066895%, 26.475525%, 77.345276%)" offset="0.132812"/><stop stop-opacity="1" stop-color="rgb(80.711365%, 26.455688%, 77.590942%)" offset="0.140625"/><stop stop-opacity="1" stop-color="rgb(80.355835%, 26.437378%, 77.836609%)" offset="0.148437"/><stop stop-opacity="1" stop-color="rgb(80.000305%, 26.417542%, 78.08075%)" offset="0.15625"/><stop stop-opacity="1" stop-color="rgb(79.644775%, 26.399231%, 78.326416%)" offset="0.164063"/><stop stop-opacity="1" stop-color="rgb(79.289246%, 26.379395%, 78.570557%)" offset="0.171875"/><stop stop-opacity="1" stop-color="rgb(78.933716%, 26.359558%, 78.816223%)" offset="0.179687"/><stop stop-opacity="1" stop-color="rgb(78.578186%, 26.341248%, 79.06189%)" offset="0.1875"/><stop stop-opacity="1" stop-color="rgb(78.222656%, 26.321411%, 79.30603%)" offset="0.195312"/><stop stop-opacity="1" stop-color="rgb(77.867126%, 26.303101%, 79.551697%)" offset="0.203125"/><stop stop-opacity="1" stop-color="rgb(77.511597%, 26.283264%, 79.795837%)" offset="0.210938"/><stop stop-opacity="1" stop-color="rgb(77.156067%, 26.263428%, 80.041504%)" offset="0.21875"/><stop stop-opacity="1" stop-color="rgb(76.800537%, 26.245117%, 80.28717%)" offset="0.226562"/><stop stop-opacity="1" stop-color="rgb(76.445007%, 26.225281%, 80.531311%)" offset="0.234375"/><stop stop-opacity="1" stop-color="rgb(76.089478%, 26.20697%, 80.776978%)" offset="0.242187"/><stop stop-opacity="1" stop-color="rgb(75.733948%, 26.187134%, 81.021118%)" offset="0.25"/><stop stop-opacity="1" stop-color="rgb(75.378418%, 26.167297%, 81.266785%)" offset="0.257812"/><stop stop-opacity="1" stop-color="rgb(75.022888%, 26.148987%, 81.510925%)" offset="0.265625"/><stop stop-opacity="1" stop-color="rgb(74.667358%, 26.12915%, 81.756592%)" offset="0.273437"/><stop stop-opacity="1" stop-color="rgb(74.311829%, 26.11084%, 82.002258%)" offset="0.28125"/><stop stop-opacity="1" stop-color="rgb(73.956299%, 26.091003%, 82.246399%)" offset="0.289062"/><stop stop-opacity="1" stop-color="rgb(73.600769%, 26.071167%, 82.492065%)" offset="0.296875"/><stop stop-opacity="1" stop-color="rgb(73.245239%, 26.052856%, 82.736206%)" offset="0.304688"/><stop stop-opacity="1" stop-color="rgb(72.889709%, 26.03302%, 82.981873%)" offset="0.3125"/><stop stop-opacity="1" stop-color="rgb(72.53418%, 26.014709%, 83.227539%)" offset="0.320312"/><stop stop-opacity="1" stop-color="rgb(72.17865%, 25.994873%, 83.47168%)" offset="0.328125"/><stop stop-opacity="1" stop-color="rgb(71.82312%, 25.975037%, 83.717346%)" offset="0.335937"/><stop stop-opacity="1" stop-color="rgb(71.46759%, 25.956726%, 83.961487%)" offset="0.34375"/><stop stop-opacity="1" stop-color="rgb(71.112061%, 25.93689%, 84.207153%)" offset="0.351562"/><stop stop-opacity="1" stop-color="rgb(70.756531%, 25.918579%, 84.45282%)" offset="0.359375"/><stop stop-opacity="1" stop-color="rgb(70.401001%, 25.898743%, 84.69696%)" offset="0.367187"/><stop stop-opacity="1" stop-color="rgb(70.045471%, 25.880432%, 84.942627%)" offset="0.375"/><stop stop-opacity="1" stop-color="rgb(69.689941%, 25.860596%, 85.186768%)" offset="0.382812"/><stop stop-opacity="1" stop-color="rgb(69.334412%, 25.840759%, 85.432434%)" offset="0.390625"/><stop stop-opacity="1" stop-color="rgb(68.978882%, 25.822449%, 85.678101%)" offset="0.398438"/><stop stop-opacity="1" stop-color="rgb(68.623352%, 25.802612%, 85.922241%)" offset="0.40625"/><stop stop-opacity="1" stop-color="rgb(68.267822%, 25.784302%, 86.167908%)" offset="0.414062"/><stop stop-opacity="1" stop-color="rgb(67.912292%, 25.764465%, 86.412048%)" offset="0.421875"/><stop stop-opacity="1" stop-color="rgb(67.556763%, 25.744629%, 86.657715%)" offset="0.429687"/><stop stop-opacity="1" stop-color="rgb(67.201233%, 25.726318%, 86.901855%)" offset="0.4375"/><stop stop-opacity="1" stop-color="rgb(66.845703%, 25.706482%, 87.147522%)" offset="0.445313"/><stop stop-opacity="1" stop-color="rgb(66.490173%, 25.688171%, 87.393188%)" offset="0.453125"/><stop stop-opacity="1" stop-color="rgb(66.134644%, 25.668335%, 87.637329%)" offset="0.460938"/><stop stop-opacity="1" stop-color="rgb(65.779114%, 25.648499%, 87.882996%)" offset="0.46875"/><stop stop-opacity="1" stop-color="rgb(65.423584%, 25.630188%, 88.127136%)" offset="0.476562"/><stop stop-opacity="1" stop-color="rgb(65.068054%, 25.610352%, 88.372803%)" offset="0.484375"/><stop stop-opacity="1" stop-color="rgb(64.712524%, 25.592041%, 88.618469%)" offset="0.492188"/><stop stop-opacity="1" stop-color="rgb(64.356995%, 25.572205%, 88.86261%)" offset="0.5"/><stop stop-opacity="1" stop-color="rgb(64.001465%, 25.552368%, 89.108276%)" offset="0.507812"/><stop stop-opacity="1" stop-color="rgb(63.645935%, 25.534058%, 89.352417%)" offset="0.515625"/><stop stop-opacity="1" stop-color="rgb(63.290405%, 25.514221%, 89.598083%)" offset="0.523438"/><stop stop-opacity="1" stop-color="rgb(62.934875%, 25.495911%, 89.84375%)" offset="0.53125"/><stop stop-opacity="1" stop-color="rgb(62.579346%, 25.476074%, 90.087891%)" offset="0.539062"/><stop stop-opacity="1" stop-color="rgb(62.223816%, 25.456238%, 90.333557%)" offset="0.546875"/><stop stop-opacity="1" stop-color="rgb(61.86676%, 25.437927%, 90.577698%)" offset="0.554688"/><stop stop-opacity="1" stop-color="rgb(61.51123%, 25.418091%, 90.823364%)" offset="0.5625"/><stop stop-opacity="1" stop-color="rgb(61.155701%, 25.39978%, 91.069031%)" offset="0.570313"/><stop stop-opacity="1" stop-color="rgb(60.800171%, 25.379944%, 91.313171%)" offset="0.578125"/><stop stop-opacity="1" stop-color="rgb(60.444641%, 25.360107%, 91.558838%)" offset="0.585938"/><stop stop-opacity="1" stop-color="rgb(60.089111%, 25.341797%, 91.802979%)" offset="0.59375"/><stop stop-opacity="1" stop-color="rgb(59.733582%, 25.32196%, 92.048645%)" offset="0.601562"/><stop stop-opacity="1" stop-color="rgb(59.378052%, 25.30365%, 92.292786%)" offset="0.609375"/><stop stop-opacity="1" stop-color="rgb(59.022522%, 25.283813%, 92.538452%)" offset="0.617188"/><stop stop-opacity="1" stop-color="rgb(58.666992%, 25.263977%, 92.784119%)" offset="0.625"/><stop stop-opacity="1" stop-color="rgb(58.311462%, 25.245667%, 93.028259%)" offset="0.632812"/><stop stop-opacity="1" stop-color="rgb(57.955933%, 25.22583%, 93.273926%)" offset="0.640625"/><stop stop-opacity="1" stop-color="rgb(57.600403%, 25.20752%, 93.518066%)" offset="0.648438"/><stop stop-opacity="1" stop-color="rgb(57.244873%, 25.187683%, 93.763733%)" offset="0.65625"/><stop stop-opacity="1" stop-color="rgb(56.889343%, 25.167847%, 94.009399%)" offset="0.664063"/><stop stop-opacity="1" stop-color="rgb(56.533813%, 25.149536%, 94.25354%)" offset="0.671875"/><stop stop-opacity="1" stop-color="rgb(56.178284%, 25.1297%, 94.499207%)" offset="0.679688"/><stop stop-opacity="1" stop-color="rgb(55.822754%, 25.111389%, 94.743347%)" offset="0.6875"/><stop stop-opacity="1" stop-color="rgb(55.467224%, 25.091553%, 94.989014%)" offset="0.695312"/><stop stop-opacity="1" stop-color="rgb(55.111694%, 25.073242%, 95.23468%)" offset="0.703125"/><stop stop-opacity="1" stop-color="rgb(54.756165%, 25.053406%, 95.478821%)" offset="0.710938"/><stop stop-opacity="1" stop-color="rgb(54.400635%, 25.033569%, 95.724487%)" offset="0.71875"/><stop stop-opacity="1" stop-color="rgb(54.045105%, 25.015259%, 95.968628%)" offset="0.726562"/><stop stop-opacity="1" stop-color="rgb(53.689575%, 24.995422%, 96.214294%)" offset="0.734375"/><stop stop-opacity="1" stop-color="rgb(53.334045%, 24.977112%, 96.459961%)" offset="0.742188"/><stop stop-opacity="1" stop-color="rgb(52.978516%, 24.957275%, 96.704102%)" offset="0.75"/><stop stop-opacity="1" stop-color="rgb(52.622986%, 24.937439%, 96.949768%)" offset="0.757813"/><stop stop-opacity="1" stop-color="rgb(52.267456%, 24.919128%, 97.193909%)" offset="0.765625"/><stop stop-opacity="1" stop-color="rgb(51.911926%, 24.899292%, 97.439575%)" offset="0.773438"/><stop stop-opacity="1" stop-color="rgb(51.556396%, 24.880981%, 97.685242%)" offset="0.78125"/><stop stop-opacity="1" stop-color="rgb(51.200867%, 24.861145%, 97.929382%)" offset="0.789062"/><stop stop-opacity="1" stop-color="rgb(50.845337%, 24.841309%, 98.175049%)" offset="0.796875"/><stop stop-opacity="1" stop-color="rgb(50.489807%, 24.822998%, 98.419189%)" offset="0.804688"/><stop stop-opacity="1" stop-color="rgb(50.134277%, 24.803162%, 98.664856%)" offset="0.8125"/><stop stop-opacity="1" stop-color="rgb(49.778748%, 24.784851%, 98.908997%)" offset="0.820312"/><stop stop-opacity="1" stop-color="rgb(49.423218%, 24.765015%, 99.154663%)" offset="0.828125"/><stop stop-opacity="1" stop-color="rgb(49.067688%, 24.745178%, 99.40033%)" offset="0.835938"/><stop stop-opacity="1" stop-color="rgb(48.712158%, 24.726868%, 99.64447%)" offset="0.84375"/><stop stop-opacity="1" stop-color="rgb(48.36731%, 24.708557%, 99.884033%)" offset="0.875"/><stop stop-opacity="1" stop-color="rgb(48.199463%, 24.699402%, 100%)" offset="0.994152"/><stop stop-opacity="1" stop-color="rgb(48.199463%, 24.699402%, 100%)" offset="1"/></linearGradient><clipPath id="170944216f"><path d="M 28.070312 143.199219 L 99.320312 143.199219 L 99.320312 214.449219 L 28.070312 214.449219 Z M 28.070312 143.199219 " clip-rule="nonzero"/></clipPath><clipPath id="407dcdd3c1"><path d="M 99.644531 143.199219 L 99.644531 214.769531 L 28.070312 214.769531 C 28.070312 175.242188 60.117188 143.199219 99.644531 143.199219 Z M 99.644531 143.199219 " clip-rule="nonzero"/></clipPath><linearGradient x1="12.287775" gradientTransform="matrix(0.556937, 0, 0, 0.556937, 28.071259, 143.197537)" y1="-8.747166" x2="115.754645" gradientUnits="userSpaceOnUse" y2="136.600327" id="3a34421bd8"><stop stop-opacity="1" stop-color="rgb(99.198914%, 78.399658%, 18.798828%)" offset="0"/><stop stop-opacity="1" stop-color="rgb(99.198914%, 78.399658%, 18.798828%)" offset="0.125"/><stop stop-opacity="1" stop-color="rgb(99.198914%, 78.399658%, 18.798828%)" offset="0.1875"/><stop stop-opacity="1" stop-color="rgb(99.201965%, 78.225708%, 18.952942%)" offset="0.21875"/><stop stop-opacity="1" stop-color="rgb(99.209595%, 77.748108%, 19.380188%)" offset="0.222656"/><stop stop-opacity="1" stop-color="rgb(99.214172%, 77.442932%, 19.65332%)" offset="0.226562"/><stop stop-opacity="1" stop-color="rgb(99.21875%, 77.137756%, 19.924927%)" offset="0.230469"/><stop stop-opacity="1" stop-color="rgb(99.223328%, 76.834106%, 20.198059%)" offset="0.234375"/><stop stop-opacity="1" stop-color="rgb(99.227905%, 76.528931%, 20.471191%)" offset="0.238281"/><stop stop-opacity="1" stop-color="rgb(99.234009%, 76.223755%, 20.744324%)" offset="0.242187"/><stop stop-opacity="1" stop-color="rgb(99.238586%, 75.918579%, 21.01593%)" offset="0.246094"/><stop stop-opacity="1" stop-color="rgb(99.243164%, 75.613403%, 21.289062%)" offset="0.25"/><stop stop-opacity="1" stop-color="rgb(99.247742%, 75.308228%, 21.560669%)" offset="0.253906"/><stop stop-opacity="1" stop-color="rgb(99.252319%, 75.004578%, 21.833801%)" offset="0.257812"/><stop stop-opacity="1" stop-color="rgb(99.256897%, 74.699402%, 22.106934%)" offset="0.261719"/><stop stop-opacity="1" stop-color="rgb(99.261475%, 74.394226%, 22.380066%)" offset="0.265625"/><stop stop-opacity="1" stop-color="rgb(99.266052%, 74.08905%, 22.651672%)" offset="0.269531"/><stop stop-opacity="1" stop-color="rgb(99.272156%, 73.783875%, 22.924805%)" offset="0.273438"/><stop stop-opacity="1" stop-color="rgb(99.276733%, 73.478699%, 23.196411%)" offset="0.277344"/><stop stop-opacity="1" stop-color="rgb(99.281311%, 73.175049%, 23.469543%)" offset="0.28125"/><stop stop-opacity="1" stop-color="rgb(99.285889%, 72.869873%, 23.742676%)" offset="0.285156"/><stop stop-opacity="1" stop-color="rgb(99.290466%, 72.564697%, 24.015808%)" offset="0.289062"/><stop stop-opacity="1" stop-color="rgb(99.295044%, 72.259521%, 24.287415%)" offset="0.292969"/><stop stop-opacity="1" stop-color="rgb(99.301147%, 71.954346%, 24.560547%)" offset="0.296875"/><stop stop-opacity="1" stop-color="rgb(99.305725%, 71.64917%, 24.832153%)" offset="0.300781"/><stop stop-opacity="1" stop-color="rgb(99.310303%, 71.343994%, 25.105286%)" offset="0.304688"/><stop stop-opacity="1" stop-color="rgb(99.31488%, 71.038818%, 25.376892%)" offset="0.308594"/><stop stop-opacity="1" stop-color="rgb(99.319458%, 70.735168%, 25.650024%)" offset="0.3125"/><stop stop-opacity="1" stop-color="rgb(99.324036%, 70.429993%, 25.923157%)" offset="0.316406"/><stop stop-opacity="1" stop-color="rgb(99.328613%, 70.124817%, 26.196289%)" offset="0.320312"/><stop stop-opacity="1" stop-color="rgb(99.333191%, 69.819641%, 26.467896%)" offset="0.324219"/><stop stop-opacity="1" stop-color="rgb(99.339294%, 69.514465%, 26.741028%)" offset="0.328125"/><stop stop-opacity="1" stop-color="rgb(99.343872%, 69.20929%, 27.012634%)" offset="0.332031"/><stop stop-opacity="1" stop-color="rgb(99.34845%, 68.90564%, 27.285767%)" offset="0.335938"/><stop stop-opacity="1" stop-color="rgb(99.353027%, 68.600464%, 27.558899%)" offset="0.339844"/><stop stop-opacity="1" stop-color="rgb(99.357605%, 68.295288%, 27.832031%)" offset="0.34375"/><stop stop-opacity="1" stop-color="rgb(99.362183%, 67.990112%, 28.103638%)" offset="0.347656"/><stop stop-opacity="1" stop-color="rgb(99.368286%, 67.684937%, 28.37677%)" offset="0.351562"/><stop stop-opacity="1" stop-color="rgb(99.372864%, 67.379761%, 28.648376%)" offset="0.355469"/><stop stop-opacity="1" stop-color="rgb(99.377441%, 67.074585%, 28.921509%)" offset="0.359375"/><stop stop-opacity="1" stop-color="rgb(99.382019%, 66.769409%, 29.194641%)" offset="0.363281"/><stop stop-opacity="1" stop-color="rgb(99.386597%, 66.465759%, 29.467773%)" offset="0.367188"/><stop stop-opacity="1" stop-color="rgb(99.391174%, 66.160583%, 29.73938%)" offset="0.371094"/><stop stop-opacity="1" stop-color="rgb(99.395752%, 65.855408%, 30.012512%)" offset="0.375"/><stop stop-opacity="1" stop-color="rgb(99.40033%, 65.550232%, 30.284119%)" offset="0.378906"/><stop stop-opacity="1" stop-color="rgb(99.406433%, 65.245056%, 30.557251%)" offset="0.382812"/><stop stop-opacity="1" stop-color="rgb(99.411011%, 64.93988%, 30.828857%)" offset="0.386719"/><stop stop-opacity="1" stop-color="rgb(99.415588%, 64.63623%, 31.10199%)" offset="0.390625"/><stop stop-opacity="1" stop-color="rgb(99.420166%, 64.331055%, 31.375122%)" offset="0.394531"/><stop stop-opacity="1" stop-color="rgb(99.424744%, 64.025879%, 31.648254%)" offset="0.398438"/><stop stop-opacity="1" stop-color="rgb(99.429321%, 63.720703%, 31.919861%)" offset="0.402344"/><stop stop-opacity="1" stop-color="rgb(99.435425%, 63.415527%, 32.192993%)" offset="0.40625"/><stop stop-opacity="1" stop-color="rgb(99.440002%, 63.110352%, 32.4646%)" offset="0.410156"/><stop stop-opacity="1" stop-color="rgb(99.44458%, 62.805176%, 32.737732%)" offset="0.414062"/><stop stop-opacity="1" stop-color="rgb(99.449158%, 62.5%, 33.010864%)" offset="0.417969"/><stop stop-opacity="1" stop-color="rgb(99.453735%, 62.19635%, 33.283997%)" offset="0.421875"/><stop stop-opacity="1" stop-color="rgb(99.458313%, 61.891174%, 33.555603%)" offset="0.425781"/><stop stop-opacity="1" stop-color="rgb(99.462891%, 61.585999%, 33.828735%)" offset="0.429687"/><stop stop-opacity="1" stop-color="rgb(99.467468%, 61.280823%, 34.100342%)" offset="0.433594"/><stop stop-opacity="1" stop-color="rgb(99.473572%, 60.975647%, 34.373474%)" offset="0.4375"/><stop stop-opacity="1" stop-color="rgb(99.478149%, 60.670471%, 34.646606%)" offset="0.441406"/><stop stop-opacity="1" stop-color="rgb(99.482727%, 60.366821%, 34.919739%)" offset="0.445312"/><stop stop-opacity="1" stop-color="rgb(99.487305%, 60.061646%, 35.191345%)" offset="0.449219"/><stop stop-opacity="1" stop-color="rgb(99.491882%, 59.75647%, 35.464478%)" offset="0.453125"/><stop stop-opacity="1" stop-color="rgb(99.49646%, 59.451294%, 35.736084%)" offset="0.457031"/><stop stop-opacity="1" stop-color="rgb(99.502563%, 59.146118%, 36.009216%)" offset="0.460937"/><stop stop-opacity="1" stop-color="rgb(99.507141%, 58.840942%, 36.280823%)" offset="0.464844"/><stop stop-opacity="1" stop-color="rgb(99.511719%, 58.537292%, 36.553955%)" offset="0.46875"/><stop stop-opacity="1" stop-color="rgb(99.516296%, 58.232117%, 36.827087%)" offset="0.472656"/><stop stop-opacity="1" stop-color="rgb(99.520874%, 57.926941%, 37.10022%)" offset="0.476562"/><stop stop-opacity="1" stop-color="rgb(99.525452%, 57.621765%, 37.371826%)" offset="0.480469"/><stop stop-opacity="1" stop-color="rgb(99.530029%, 57.316589%, 37.644958%)" offset="0.484375"/><stop stop-opacity="1" stop-color="rgb(99.534607%, 57.011414%, 37.916565%)" offset="0.488281"/><stop stop-opacity="1" stop-color="rgb(99.54071%, 56.706238%, 38.189697%)" offset="0.492188"/><stop stop-opacity="1" stop-color="rgb(99.545288%, 56.401062%, 38.46283%)" offset="0.496094"/><stop stop-opacity="1" stop-color="rgb(99.549866%, 56.097412%, 38.735962%)" offset="0.5"/><stop stop-opacity="1" stop-color="rgb(99.554443%, 55.792236%, 39.007568%)" offset="0.503906"/><stop stop-opacity="1" stop-color="rgb(99.559021%, 55.487061%, 39.280701%)" offset="0.507812"/><stop stop-opacity="1" stop-color="rgb(99.563599%, 55.181885%, 39.552307%)" offset="0.511719"/><stop stop-opacity="1" stop-color="rgb(99.568176%, 54.876709%, 39.825439%)" offset="0.515625"/><stop stop-opacity="1" stop-color="rgb(99.572754%, 54.571533%, 40.098572%)" offset="0.519531"/><stop stop-opacity="1" stop-color="rgb(99.578857%, 54.267883%, 40.371704%)" offset="0.523438"/><stop stop-opacity="1" stop-color="rgb(99.583435%, 53.962708%, 40.643311%)" offset="0.527344"/><stop stop-opacity="1" stop-color="rgb(99.588013%, 53.657532%, 40.916443%)" offset="0.53125"/><stop stop-opacity="1" stop-color="rgb(99.59259%, 53.352356%, 41.188049%)" offset="0.535156"/><stop stop-opacity="1" stop-color="rgb(99.597168%, 53.04718%, 41.461182%)" offset="0.539062"/><stop stop-opacity="1" stop-color="rgb(99.601746%, 52.742004%, 41.732788%)" offset="0.542969"/><stop stop-opacity="1" stop-color="rgb(99.607849%, 52.436829%, 42.00592%)" offset="0.546875"/><stop stop-opacity="1" stop-color="rgb(99.612427%, 52.131653%, 42.279053%)" offset="0.550781"/><stop stop-opacity="1" stop-color="rgb(99.617004%, 51.828003%, 42.552185%)" offset="0.554688"/><stop stop-opacity="1" stop-color="rgb(99.621582%, 51.522827%, 42.823792%)" offset="0.558594"/><stop stop-opacity="1" stop-color="rgb(99.62616%, 51.217651%, 43.096924%)" offset="0.5625"/><stop stop-opacity="1" stop-color="rgb(99.630737%, 50.912476%, 43.36853%)" offset="0.566406"/><stop stop-opacity="1" stop-color="rgb(99.635315%, 50.6073%, 43.641663%)" offset="0.570312"/><stop stop-opacity="1" stop-color="rgb(99.639893%, 50.302124%, 43.914795%)" offset="0.574219"/><stop stop-opacity="1" stop-color="rgb(99.645996%, 49.998474%, 44.187927%)" offset="0.578125"/><stop stop-opacity="1" stop-color="rgb(99.650574%, 49.693298%, 44.459534%)" offset="0.582031"/><stop stop-opacity="1" stop-color="rgb(99.655151%, 49.388123%, 44.732666%)" offset="0.585938"/><stop stop-opacity="1" stop-color="rgb(99.659729%, 49.082947%, 45.004272%)" offset="0.589844"/><stop stop-opacity="1" stop-color="rgb(99.664307%, 48.777771%, 45.277405%)" offset="0.59375"/><stop stop-opacity="1" stop-color="rgb(99.668884%, 48.472595%, 45.550537%)" offset="0.597656"/><stop stop-opacity="1" stop-color="rgb(99.674988%, 48.167419%, 45.823669%)" offset="0.601562"/><stop stop-opacity="1" stop-color="rgb(99.679565%, 47.862244%, 46.095276%)" offset="0.605469"/><stop stop-opacity="1" stop-color="rgb(99.684143%, 47.558594%, 46.368408%)" offset="0.609375"/><stop stop-opacity="1" stop-color="rgb(99.688721%, 47.253418%, 46.640015%)" offset="0.613281"/><stop stop-opacity="1" stop-color="rgb(99.693298%, 46.948242%, 46.913147%)" offset="0.617188"/><stop stop-opacity="1" stop-color="rgb(99.697876%, 46.643066%, 47.186279%)" offset="0.621094"/><stop stop-opacity="1" stop-color="rgb(99.702454%, 46.337891%, 47.459412%)" offset="0.625"/><stop stop-opacity="1" stop-color="rgb(99.707031%, 46.032715%, 47.731018%)" offset="0.628906"/><stop stop-opacity="1" stop-color="rgb(99.713135%, 45.729065%, 48.00415%)" offset="0.632813"/><stop stop-opacity="1" stop-color="rgb(99.717712%, 45.423889%, 48.275757%)" offset="0.636719"/><stop stop-opacity="1" stop-color="rgb(99.72229%, 45.118713%, 48.548889%)" offset="0.640625"/><stop stop-opacity="1" stop-color="rgb(99.726868%, 44.813538%, 48.820496%)" offset="0.644531"/><stop stop-opacity="1" stop-color="rgb(99.731445%, 44.508362%, 49.093628%)" offset="0.648438"/><stop stop-opacity="1" stop-color="rgb(99.736023%, 44.203186%, 49.36676%)" offset="0.652344"/><stop stop-opacity="1" stop-color="rgb(99.742126%, 43.899536%, 49.639893%)" offset="0.65625"/><stop stop-opacity="1" stop-color="rgb(99.746704%, 43.59436%, 49.911499%)" offset="0.660156"/><stop stop-opacity="1" stop-color="rgb(99.751282%, 43.289185%, 50.184631%)" offset="0.664062"/><stop stop-opacity="1" stop-color="rgb(99.755859%, 42.984009%, 50.456238%)" offset="0.667969"/><stop stop-opacity="1" stop-color="rgb(99.760437%, 42.678833%, 50.72937%)" offset="0.671875"/><stop stop-opacity="1" stop-color="rgb(99.765015%, 42.373657%, 51.002502%)" offset="0.675781"/><stop stop-opacity="1" stop-color="rgb(99.769592%, 42.068481%, 51.275635%)" offset="0.679688"/><stop stop-opacity="1" stop-color="rgb(99.77417%, 41.763306%, 51.547241%)" offset="0.683594"/><stop stop-opacity="1" stop-color="rgb(99.780273%, 41.459656%, 51.820374%)" offset="0.6875"/><stop stop-opacity="1" stop-color="rgb(99.784851%, 41.15448%, 52.09198%)" offset="0.691406"/><stop stop-opacity="1" stop-color="rgb(99.789429%, 40.849304%, 52.365112%)" offset="0.695313"/><stop stop-opacity="1" stop-color="rgb(99.794006%, 40.544128%, 52.638245%)" offset="0.699219"/><stop stop-opacity="1" stop-color="rgb(99.798584%, 40.238953%, 52.911377%)" offset="0.703125"/><stop stop-opacity="1" stop-color="rgb(99.803162%, 39.933777%, 53.182983%)" offset="0.707031"/><stop stop-opacity="1" stop-color="rgb(99.809265%, 39.630127%, 53.456116%)" offset="0.710938"/><stop stop-opacity="1" stop-color="rgb(99.813843%, 39.324951%, 53.727722%)" offset="0.714844"/><stop stop-opacity="1" stop-color="rgb(99.81842%, 39.019775%, 54.000854%)" offset="0.71875"/><stop stop-opacity="1" stop-color="rgb(99.822998%, 38.7146%, 54.272461%)" offset="0.722656"/><stop stop-opacity="1" stop-color="rgb(99.827576%, 38.409424%, 54.545593%)" offset="0.726562"/><stop stop-opacity="1" stop-color="rgb(99.832153%, 38.104248%, 54.818726%)" offset="0.730469"/><stop stop-opacity="1" stop-color="rgb(99.836731%, 37.799072%, 55.091858%)" offset="0.734375"/><stop stop-opacity="1" stop-color="rgb(99.841309%, 37.493896%, 55.363464%)" offset="0.738281"/><stop stop-opacity="1" stop-color="rgb(99.847412%, 37.190247%, 55.636597%)" offset="0.742188"/><stop stop-opacity="1" stop-color="rgb(99.85199%, 36.885071%, 55.908203%)" offset="0.746094"/><stop stop-opacity="1" stop-color="rgb(99.856567%, 36.579895%, 56.181335%)" offset="0.75"/><stop stop-opacity="1" stop-color="rgb(99.861145%, 36.274719%, 56.454468%)" offset="0.753906"/><stop stop-opacity="1" stop-color="rgb(99.865723%, 35.969543%, 56.7276%)" offset="0.757812"/><stop stop-opacity="1" stop-color="rgb(99.8703%, 35.664368%, 56.999207%)" offset="0.761719"/><stop stop-opacity="1" stop-color="rgb(99.876404%, 35.360718%, 57.272339%)" offset="0.765625"/><stop stop-opacity="1" stop-color="rgb(99.880981%, 35.055542%, 57.543945%)" offset="0.769531"/><stop stop-opacity="1" stop-color="rgb(99.885559%, 34.750366%, 57.817078%)" offset="0.773438"/><stop stop-opacity="1" stop-color="rgb(99.890137%, 34.44519%, 58.09021%)" offset="0.777344"/><stop stop-opacity="1" stop-color="rgb(99.894714%, 34.140015%, 58.363342%)" offset="0.78125"/><stop stop-opacity="1" stop-color="rgb(99.899292%, 33.834839%, 58.634949%)" offset="0.785156"/><stop stop-opacity="1" stop-color="rgb(99.90387%, 33.529663%, 58.908081%)" offset="0.789062"/><stop stop-opacity="1" stop-color="rgb(99.908447%, 33.224487%, 59.179688%)" offset="0.792969"/><stop stop-opacity="1" stop-color="rgb(99.914551%, 32.920837%, 59.45282%)" offset="0.796875"/><stop stop-opacity="1" stop-color="rgb(99.919128%, 32.615662%, 59.724426%)" offset="0.800781"/><stop stop-opacity="1" stop-color="rgb(99.923706%, 32.310486%, 59.997559%)" offset="0.804687"/><stop stop-opacity="1" stop-color="rgb(99.928284%, 32.00531%, 60.270691%)" offset="0.808594"/><stop stop-opacity="1" stop-color="rgb(99.932861%, 31.700134%, 60.543823%)" offset="0.8125"/><stop stop-opacity="1" stop-color="rgb(99.937439%, 31.394958%, 60.81543%)" offset="0.816406"/><stop stop-opacity="1" stop-color="rgb(99.943542%, 31.091309%, 61.088562%)" offset="0.820312"/><stop stop-opacity="1" stop-color="rgb(99.94812%, 30.786133%, 61.360168%)" offset="0.824219"/><stop stop-opacity="1" stop-color="rgb(99.952698%, 30.480957%, 61.633301%)" offset="0.828125"/><stop stop-opacity="1" stop-color="rgb(99.957275%, 30.175781%, 61.906433%)" offset="0.832031"/><stop stop-opacity="1" stop-color="rgb(99.961853%, 29.870605%, 62.179565%)" offset="0.835938"/><stop stop-opacity="1" stop-color="rgb(99.966431%, 29.56543%, 62.451172%)" offset="0.839844"/><stop stop-opacity="1" stop-color="rgb(99.971008%, 29.26178%, 62.724304%)" offset="0.84375"/><stop stop-opacity="1" stop-color="rgb(99.975586%, 28.956604%, 62.995911%)" offset="0.847656"/><stop stop-opacity="1" stop-color="rgb(99.981689%, 28.651428%, 63.269043%)" offset="0.851562"/><stop stop-opacity="1" stop-color="rgb(99.986267%, 28.346252%, 63.542175%)" offset="0.855469"/><stop stop-opacity="1" stop-color="rgb(99.990845%, 28.041077%, 63.815308%)" offset="0.859375"/><stop stop-opacity="1" stop-color="rgb(99.995422%, 27.76947%, 64.056396%)" offset="0.863281"/><stop stop-opacity="1" stop-color="rgb(100%, 27.49939%, 64.299011%)" offset="0.867187"/><stop stop-opacity="1" stop-color="rgb(100%, 27.49939%, 64.299011%)" offset="0.875"/><stop stop-opacity="1" stop-color="rgb(100%, 27.49939%, 64.299011%)" offset="1"/></linearGradient><clipPath id="10ced5c61e"><path d="M 46.726562 125.035156 L 86.476562 125.035156 L 86.476562 204.523438 L 46.726562 204.523438 Z M 46.726562 125.035156 " clip-rule="nonzero"/></clipPath><clipPath id="da6434cd1e"><path d="M 46.734375 144.785156 L 46.734375 125.03125 C 68.683594 125.03125 86.476562 142.832031 86.476562 164.78125 C 86.476562 186.734375 68.683594 204.527344 46.734375 204.527344 L 46.734375 184.773438 C 57.773438 184.773438 66.726562 175.824219 66.726562 164.777344 C 66.726562 153.734375 57.773438 144.785156 46.734375 144.785156 Z M 46.734375 144.785156 " clip-rule="nonzero"/></clipPath><linearGradient x1="45.495318" gradientTransform="matrix(-0.431596, 0, 0, -0.431596, 86.47822, 204.528215)" y1="184.721626" x2="47.674338" gradientUnits="userSpaceOnUse" y2="-0.508873" id="e0e473c3cf"><stop stop-opacity="1" stop-color="rgb(99.397278%, 65.759277%, 30.097961%)" offset="0"/><stop stop-opacity="1" stop-color="rgb(99.40033%, 65.583801%, 30.255127%)" offset="0.00584775"/><stop stop-opacity="1" stop-color="rgb(99.403381%, 65.408325%, 30.412292%)" offset="0.0078125"/><stop stop-opacity="1" stop-color="rgb(99.406433%, 65.232849%, 30.569458%)" offset="0.015625"/><stop stop-opacity="1" stop-color="rgb(99.411011%, 64.881897%, 30.882263%)" offset="0.0234375"/><stop stop-opacity="1" stop-color="rgb(99.417114%, 64.530945%, 31.196594%)" offset="0.03125"/><stop stop-opacity="1" stop-color="rgb(99.421692%, 64.179993%, 31.509399%)" offset="0.0390625"/><stop stop-opacity="1" stop-color="rgb(99.427795%, 63.829041%, 31.82373%)" offset="0.046875"/><stop stop-opacity="1" stop-color="rgb(99.433899%, 63.478088%, 32.136536%)" offset="0.0546875"/><stop stop-opacity="1" stop-color="rgb(99.438477%, 63.127136%, 32.450867%)" offset="0.0625"/><stop stop-opacity="1" stop-color="rgb(99.44458%, 62.776184%, 32.765198%)" offset="0.0703125"/><stop stop-opacity="1" stop-color="rgb(99.450684%, 62.425232%, 33.078003%)" offset="0.078125"/><stop stop-opacity="1" stop-color="rgb(99.455261%, 62.07428%, 33.392334%)" offset="0.0859375"/><stop stop-opacity="1" stop-color="rgb(99.461365%, 61.723328%, 33.705139%)" offset="0.09375"/><stop stop-opacity="1" stop-color="rgb(99.465942%, 61.372375%, 34.01947%)" offset="0.101563"/><stop stop-opacity="1" stop-color="rgb(99.472046%, 61.021423%, 34.332275%)" offset="0.109375"/><stop stop-opacity="1" stop-color="rgb(99.478149%, 60.670471%, 34.646606%)" offset="0.117187"/><stop stop-opacity="1" stop-color="rgb(99.482727%, 60.319519%, 34.960938%)" offset="0.125"/><stop stop-opacity="1" stop-color="rgb(99.488831%, 59.968567%, 35.273743%)" offset="0.132812"/><stop stop-opacity="1" stop-color="rgb(99.493408%, 59.617615%, 35.588074%)" offset="0.140625"/><stop stop-opacity="1" stop-color="rgb(99.499512%, 59.266663%, 35.900879%)" offset="0.148437"/><stop stop-opacity="1" stop-color="rgb(99.505615%, 58.91571%, 36.21521%)" offset="0.15625"/><stop stop-opacity="1" stop-color="rgb(99.510193%, 58.564758%, 36.528015%)" offset="0.164062"/><stop stop-opacity="1" stop-color="rgb(99.516296%, 58.213806%, 36.842346%)" offset="0.171875"/><stop stop-opacity="1" stop-color="rgb(99.5224%, 57.862854%, 37.155151%)" offset="0.179688"/><stop stop-opacity="1" stop-color="rgb(99.526978%, 57.513428%, 37.469482%)" offset="0.1875"/><stop stop-opacity="1" stop-color="rgb(99.533081%, 57.162476%, 37.783813%)" offset="0.195312"/><stop stop-opacity="1" stop-color="rgb(99.537659%, 56.811523%, 38.096619%)" offset="0.203125"/><stop stop-opacity="1" stop-color="rgb(99.543762%, 56.460571%, 38.41095%)" offset="0.210938"/><stop stop-opacity="1" stop-color="rgb(99.549866%, 56.109619%, 38.723755%)" offset="0.21875"/><stop stop-opacity="1" stop-color="rgb(99.554443%, 55.758667%, 39.038086%)" offset="0.226563"/><stop stop-opacity="1" stop-color="rgb(99.560547%, 55.407715%, 39.350891%)" offset="0.234375"/><stop stop-opacity="1" stop-color="rgb(99.565125%, 55.056763%, 39.665222%)" offset="0.242187"/><stop stop-opacity="1" stop-color="rgb(99.571228%, 54.705811%, 39.979553%)" offset="0.25"/><stop stop-opacity="1" stop-color="rgb(99.577332%, 54.354858%, 40.292358%)" offset="0.257813"/><stop stop-opacity="1" stop-color="rgb(99.581909%, 54.003906%, 40.606689%)" offset="0.265625"/><stop stop-opacity="1" stop-color="rgb(99.588013%, 53.652954%, 40.919495%)" offset="0.273437"/><stop stop-opacity="1" stop-color="rgb(99.594116%, 53.302002%, 41.233826%)" offset="0.28125"/><stop stop-opacity="1" stop-color="rgb(99.598694%, 52.95105%, 41.546631%)" offset="0.289062"/><stop stop-opacity="1" stop-color="rgb(99.604797%, 52.600098%, 41.860962%)" offset="0.296875"/><stop stop-opacity="1" stop-color="rgb(99.609375%, 52.249146%, 42.175293%)" offset="0.304688"/><stop stop-opacity="1" stop-color="rgb(99.615479%, 51.898193%, 42.488098%)" offset="0.3125"/><stop stop-opacity="1" stop-color="rgb(99.621582%, 51.547241%, 42.802429%)" offset="0.320312"/><stop stop-opacity="1" stop-color="rgb(99.62616%, 51.196289%, 43.115234%)" offset="0.328125"/><stop stop-opacity="1" stop-color="rgb(99.632263%, 50.845337%, 43.429565%)" offset="0.335938"/><stop stop-opacity="1" stop-color="rgb(99.636841%, 50.494385%, 43.742371%)" offset="0.34375"/><stop stop-opacity="1" stop-color="rgb(99.642944%, 50.143433%, 44.056702%)" offset="0.351563"/><stop stop-opacity="1" stop-color="rgb(99.649048%, 49.79248%, 44.371033%)" offset="0.359375"/><stop stop-opacity="1" stop-color="rgb(99.653625%, 49.441528%, 44.683838%)" offset="0.367188"/><stop stop-opacity="1" stop-color="rgb(99.659729%, 49.090576%, 44.998169%)" offset="0.375"/><stop stop-opacity="1" stop-color="rgb(99.665833%, 48.739624%, 45.310974%)" offset="0.382813"/><stop stop-opacity="1" stop-color="rgb(99.67041%, 48.388672%, 45.625305%)" offset="0.390625"/><stop stop-opacity="1" stop-color="rgb(99.676514%, 48.03772%, 45.93811%)" offset="0.398438"/><stop stop-opacity="1" stop-color="rgb(99.681091%, 47.686768%, 46.252441%)" offset="0.40625"/><stop stop-opacity="1" stop-color="rgb(99.687195%, 47.337341%, 46.566772%)" offset="0.414063"/><stop stop-opacity="1" stop-color="rgb(99.693298%, 46.986389%, 46.879578%)" offset="0.421875"/><stop stop-opacity="1" stop-color="rgb(99.697876%, 46.635437%, 47.193909%)" offset="0.429688"/><stop stop-opacity="1" stop-color="rgb(99.703979%, 46.284485%, 47.506714%)" offset="0.4375"/><stop stop-opacity="1" stop-color="rgb(99.708557%, 45.933533%, 47.821045%)" offset="0.445312"/><stop stop-opacity="1" stop-color="rgb(99.714661%, 45.582581%, 48.13385%)" offset="0.453125"/><stop stop-opacity="1" stop-color="rgb(99.720764%, 45.231628%, 48.448181%)" offset="0.460938"/><stop stop-opacity="1" stop-color="rgb(99.725342%, 44.880676%, 48.760986%)" offset="0.46875"/><stop stop-opacity="1" stop-color="rgb(99.731445%, 44.529724%, 49.075317%)" offset="0.476562"/><stop stop-opacity="1" stop-color="rgb(99.737549%, 44.178772%, 49.389648%)" offset="0.484375"/><stop stop-opacity="1" stop-color="rgb(99.742126%, 43.82782%, 49.702454%)" offset="0.492188"/><stop stop-opacity="1" stop-color="rgb(99.74823%, 43.476868%, 50.016785%)" offset="0.5"/><stop stop-opacity="1" stop-color="rgb(99.752808%, 43.125916%, 50.32959%)" offset="0.507813"/><stop stop-opacity="1" stop-color="rgb(99.758911%, 42.774963%, 50.643921%)" offset="0.515625"/><stop stop-opacity="1" stop-color="rgb(99.765015%, 42.424011%, 50.956726%)" offset="0.523438"/><stop stop-opacity="1" stop-color="rgb(99.769592%, 42.073059%, 51.271057%)" offset="0.53125"/><stop stop-opacity="1" stop-color="rgb(99.775696%, 41.722107%, 51.585388%)" offset="0.539062"/><stop stop-opacity="1" stop-color="rgb(99.780273%, 41.371155%, 51.898193%)" offset="0.546875"/><stop stop-opacity="1" stop-color="rgb(99.786377%, 41.020203%, 52.212524%)" offset="0.554688"/><stop stop-opacity="1" stop-color="rgb(99.79248%, 40.66925%, 52.52533%)" offset="0.5625"/><stop stop-opacity="1" stop-color="rgb(99.797058%, 40.318298%, 52.839661%)" offset="0.570313"/><stop stop-opacity="1" stop-color="rgb(99.803162%, 39.967346%, 53.152466%)" offset="0.578125"/><stop stop-opacity="1" stop-color="rgb(99.807739%, 39.616394%, 53.466797%)" offset="0.585938"/><stop stop-opacity="1" stop-color="rgb(99.813843%, 39.265442%, 53.781128%)" offset="0.59375"/><stop stop-opacity="1" stop-color="rgb(99.819946%, 38.91449%, 54.093933%)" offset="0.601563"/><stop stop-opacity="1" stop-color="rgb(99.824524%, 38.563538%, 54.408264%)" offset="0.609375"/><stop stop-opacity="1" stop-color="rgb(99.830627%, 38.212585%, 54.721069%)" offset="0.617188"/><stop stop-opacity="1" stop-color="rgb(99.836731%, 37.861633%, 55.0354%)" offset="0.625"/><stop stop-opacity="1" stop-color="rgb(99.841309%, 37.512207%, 55.348206%)" offset="0.632812"/><stop stop-opacity="1" stop-color="rgb(99.847412%, 37.161255%, 55.662537%)" offset="0.640625"/><stop stop-opacity="1" stop-color="rgb(99.85199%, 36.810303%, 55.976868%)" offset="0.648438"/><stop stop-opacity="1" stop-color="rgb(99.858093%, 36.459351%, 56.289673%)" offset="0.65625"/><stop stop-opacity="1" stop-color="rgb(99.864197%, 36.108398%, 56.604004%)" offset="0.664063"/><stop stop-opacity="1" stop-color="rgb(99.868774%, 35.757446%, 56.916809%)" offset="0.671875"/><stop stop-opacity="1" stop-color="rgb(99.874878%, 35.406494%, 57.23114%)" offset="0.679688"/><stop stop-opacity="1" stop-color="rgb(99.879456%, 35.055542%, 57.543945%)" offset="0.6875"/><stop stop-opacity="1" stop-color="rgb(99.885559%, 34.70459%, 57.858276%)" offset="0.695313"/><stop stop-opacity="1" stop-color="rgb(99.891663%, 34.353638%, 58.172607%)" offset="0.703125"/><stop stop-opacity="1" stop-color="rgb(99.89624%, 34.002686%, 58.485413%)" offset="0.710938"/><stop stop-opacity="1" stop-color="rgb(99.902344%, 33.651733%, 58.799744%)" offset="0.71875"/><stop stop-opacity="1" stop-color="rgb(99.908447%, 33.300781%, 59.112549%)" offset="0.726563"/><stop stop-opacity="1" stop-color="rgb(99.913025%, 32.949829%, 59.42688%)" offset="0.734375"/><stop stop-opacity="1" stop-color="rgb(99.919128%, 32.598877%, 59.739685%)" offset="0.742188"/><stop stop-opacity="1" stop-color="rgb(99.923706%, 32.247925%, 60.054016%)" offset="0.75"/><stop stop-opacity="1" stop-color="rgb(99.92981%, 31.896973%, 60.368347%)" offset="0.757813"/><stop stop-opacity="1" stop-color="rgb(99.935913%, 31.546021%, 60.681152%)" offset="0.765625"/><stop stop-opacity="1" stop-color="rgb(99.940491%, 31.195068%, 60.995483%)" offset="0.773438"/><stop stop-opacity="1" stop-color="rgb(99.946594%, 30.844116%, 61.308289%)" offset="0.78125"/><stop stop-opacity="1" stop-color="rgb(99.951172%, 30.493164%, 61.62262%)" offset="0.789063"/><stop stop-opacity="1" stop-color="rgb(99.957275%, 30.142212%, 61.935425%)" offset="0.796875"/><stop stop-opacity="1" stop-color="rgb(99.963379%, 29.79126%, 62.249756%)" offset="0.804688"/><stop stop-opacity="1" stop-color="rgb(99.967957%, 29.440308%, 62.562561%)" offset="0.8125"/><stop stop-opacity="1" stop-color="rgb(99.97406%, 29.089355%, 62.876892%)" offset="0.820313"/><stop stop-opacity="1" stop-color="rgb(99.980164%, 28.738403%, 63.191223%)" offset="0.828125"/><stop stop-opacity="1" stop-color="rgb(99.984741%, 28.387451%, 63.504028%)" offset="0.835938"/><stop stop-opacity="1" stop-color="rgb(99.990845%, 28.036499%, 63.818359%)" offset="0.84375"/><stop stop-opacity="1" stop-color="rgb(99.996948%, 27.680969%, 64.137268%)" offset="0.875"/><stop stop-opacity="1" stop-color="rgb(100%, 27.49939%, 64.299011%)" offset="0.994152"/><stop stop-opacity="1" stop-color="rgb(100%, 27.49939%, 64.299011%)" offset="1"/></linearGradient></defs><g fill="#000000" fill-opacity="1"><g transform="translate(110.526348, 215.50363)"><g><path d="M 53.140625 0 L 11.515625 0 C 9.878906 0 9.0625 -0.816406 9.0625 -2.453125 L 9.0625 -89.171875 C 9.0625 -90.804688 9.878906 -91.625 11.515625 -91.625 L 23.375 -91.625 C 25.007812 -91.625 25.828125 -90.804688 25.828125 -89.171875 L 25.828125 -14.859375 L 53.140625 -14.859375 C 54.773438 -14.859375 55.59375 -14.039062 55.59375 -12.40625 L 55.59375 -2.453125 C 55.59375 -0.816406 54.773438 0 53.140625 0 Z M 53.140625 0 "/></g></g></g><g fill="#000000" fill-opacity="1"><g transform="translate(168.085319, 215.50363)"><g><path d="M 32.15625 -64.484375 C 35.851562 -64.484375 39.332031 -64.0625 42.59375 -63.21875 C 45.851562 -62.382812 48.722656 -61.050781 51.203125 -59.21875 C 53.691406 -57.394531 55.640625 -55.007812 57.046875 -52.0625 C 58.460938 -49.125 59.171875 -45.546875 59.171875 -41.328125 L 59.171875 -2.453125 C 59.171875 -0.816406 58.351562 0 56.71875 0 L 50.15625 0 C 48.644531 0 47.753906 -0.710938 47.484375 -2.140625 L 45.984375 -7.75 C 44.316406 -5.488281 42.398438 -3.691406 40.234375 -2.359375 C 38.066406 -1.023438 35.804688 -0.0703125 33.453125 0.5 C 31.109375 1.082031 28.804688 1.375 26.546875 1.375 C 23.765625 1.375 21.085938 0.972656 18.515625 0.171875 C 15.953125 -0.617188 13.6875 -1.804688 11.71875 -3.390625 C 9.75 -4.984375 8.1875 -7.003906 7.03125 -9.453125 C 5.882812 -11.898438 5.3125 -14.753906 5.3125 -18.015625 C 5.3125 -21.429688 5.957031 -24.410156 7.25 -26.953125 C 8.539062 -29.503906 10.328125 -31.625 12.609375 -33.3125 C 14.898438 -35 17.578125 -36.269531 20.640625 -37.125 C 23.703125 -37.976562 27.003906 -38.40625 30.546875 -38.40625 C 34.753906 -38.40625 39.164062 -37.832031 43.78125 -36.6875 L 43.78125 -40.671875 C 43.78125 -43.421875 43.210938 -45.597656 42.078125 -47.203125 C 40.941406 -48.816406 39.390625 -49.976562 37.421875 -50.6875 C 35.453125 -51.40625 33.238281 -51.765625 30.78125 -51.765625 C 28.3125 -51.765625 25.6875 -51.46875 22.90625 -50.875 C 20.125 -50.28125 17.359375 -49.46875 14.609375 -48.4375 C 13.023438 -47.875 11.992188 -48.347656 11.515625 -49.859375 L 9 -57.734375 C 8.488281 -59.242188 9.007812 -60.28125 10.5625 -60.84375 C 14.09375 -61.988281 17.695312 -62.878906 21.375 -63.515625 C 25.0625 -64.160156 28.65625 -64.484375 32.15625 -64.484375 Z M 30.234375 -9.84375 C 31.671875 -9.84375 33.171875 -10.078125 34.734375 -10.546875 C 36.304688 -11.023438 37.78125 -11.800781 39.15625 -12.875 C 40.53125 -13.957031 41.644531 -15.378906 42.5 -17.140625 C 43.351562 -18.910156 43.78125 -21.09375 43.78125 -23.6875 L 43.78125 -26.359375 C 42.113281 -26.753906 40.472656 -27.050781 38.859375 -27.25 C 37.242188 -27.457031 35.664062 -27.5625 34.125 -27.5625 C 31.570312 -27.5625 29.28125 -27.25 27.25 -26.625 C 25.226562 -26.007812 23.628906 -25.015625 22.453125 -23.640625 C 21.285156 -22.273438 20.703125 -20.476562 20.703125 -18.25 C 20.703125 -16.34375 21.140625 -14.757812 22.015625 -13.5 C 22.890625 -12.25 24.050781 -11.328125 25.5 -10.734375 C 26.945312 -10.140625 28.523438 -9.84375 30.234375 -9.84375 Z M 30.234375 -9.84375 "/></g></g></g><g fill="#000000" fill-opacity="1"><g transform="translate(234.889514, 215.50363)"><g><path d="M 34.953125 1.375 C 29.546875 1.375 24.753906 0.320312 20.578125 -1.78125 C 16.398438 -3.894531 13.128906 -6.957031 10.765625 -10.96875 C 8.398438 -14.988281 7.21875 -19.863281 7.21875 -25.59375 L 7.21875 -60.71875 C 7.21875 -62.351562 8.03125 -63.171875 9.65625 -63.171875 L 20.15625 -63.171875 C 21.789062 -63.171875 22.609375 -62.351562 22.609375 -60.71875 L 22.609375 -26.0625 C 22.609375 -21.8125 23.71875 -18.519531 25.9375 -16.1875 C 28.164062 -13.863281 31.171875 -12.703125 34.953125 -12.703125 C 38.847656 -12.703125 41.890625 -13.90625 44.078125 -16.3125 C 46.265625 -18.71875 47.359375 -21.96875 47.359375 -26.0625 L 47.359375 -60.71875 C 47.359375 -62.351562 48.175781 -63.171875 49.8125 -63.171875 L 60.296875 -63.171875 C 61.929688 -63.171875 62.75 -62.351562 62.75 -60.71875 L 62.75 -25.59375 C 62.75 -19.863281 61.554688 -14.988281 59.171875 -10.96875 C 56.785156 -6.957031 53.503906 -3.894531 49.328125 -1.78125 C 45.148438 0.320312 40.359375 1.375 34.953125 1.375 Z M 34.953125 1.375 "/></g></g></g><g fill="#000000" fill-opacity="1"><g transform="translate(304.914625, 215.50363)"><g><path d="M 21.109375 0 L 10.609375 0 C 8.984375 0 8.171875 -0.816406 8.171875 -2.453125 L 8.109375 -60.71875 C 8.109375 -62.351562 8.925781 -63.171875 10.5625 -63.171875 L 17.171875 -63.171875 C 18.609375 -63.171875 19.503906 -62.453125 19.859375 -61.015625 L 21.53125 -54.34375 C 23.757812 -58 26.40625 -60.601562 29.46875 -62.15625 C 32.53125 -63.707031 35.648438 -64.484375 38.828125 -64.484375 C 40.578125 -64.484375 42.46875 -64.203125 44.5 -63.640625 C 45.96875 -63.203125 46.503906 -62.207031 46.109375 -60.65625 L 43.71875 -51.53125 C 43.363281 -50.0625 42.367188 -49.503906 40.734375 -49.859375 C 39.816406 -50.054688 38.953125 -50.207031 38.140625 -50.3125 C 37.328125 -50.414062 36.601562 -50.46875 35.96875 -50.46875 C 31.988281 -50.46875 28.925781 -49.082031 26.78125 -46.3125 C 24.632812 -43.550781 23.5625 -39.46875 23.5625 -34.0625 L 23.5625 -2.453125 C 23.5625 -0.816406 22.742188 0 21.109375 0 Z M 21.109375 0 "/></g></g></g><g clip-path="url(#d8c49df73f)"><g clip-path="url(#392ab96c17)"><path fill="url(#8ec0ad6aaa)" d="M 8.484375 125.023438 L 8.484375 203.023438 L 47.484375 203.023438 L 47.484375 125.023438 Z M 8.484375 125.023438 " fill-rule="nonzero"/></g></g><g clip-path="url(#170944216f)"><g clip-path="url(#407dcdd3c1)"><path fill="url(#3a34421bd8)" d="M 28.070312 143.199219 L 28.070312 214.449219 L 99.320312 214.449219 L 99.320312 143.199219 Z M 28.070312 143.199219 " fill-rule="nonzero"/></g></g><g clip-path="url(#10ced5c61e)"><g clip-path="url(#da6434cd1e)"><path fill="url(#e0e473c3cf)" d="M 86.476562 204.523438 L 86.476562 125.035156 L 46.734375 125.035156 L 46.734375 204.523438 Z M 86.476562 204.523438 " fill-rule="nonzero"/></g></g><g fill="#373737" fill-opacity="1"><g transform="translate(49.12625, 241.592754)"><g/></g></g><g fill="#373737" fill-opacity="1"><g transform="translate(56.169218, 241.592754)"><g><path d="M 8.625 -5.3125 C 8.820312 -5.3125 8.984375 -5.242188 9.109375 -5.109375 C 9.242188 -4.984375 9.3125 -4.820312 9.3125 -4.625 L 9.3125 -1.375 C 9.3125 -1.113281 9.195312 -0.910156 8.96875 -0.765625 C 8.519531 -0.472656 8.03125 -0.25 7.5 -0.09375 C 6.96875 0.0625 6.425781 0.140625 5.875 0.140625 C 4.90625 0.140625 4.019531 -0.0859375 3.21875 -0.546875 C 2.414062 -1.015625 1.78125 -1.644531 1.3125 -2.4375 C 0.851562 -3.226562 0.625 -4.101562 0.625 -5.0625 C 0.625 -6.007812 0.851562 -6.878906 1.3125 -7.671875 C 1.78125 -8.472656 2.414062 -9.101562 3.21875 -9.5625 C 4.019531 -10.03125 4.90625 -10.265625 5.875 -10.265625 C 6.351562 -10.265625 6.816406 -10.207031 7.265625 -10.09375 C 7.710938 -9.988281 8.113281 -9.832031 8.46875 -9.625 C 8.582031 -9.5625 8.664062 -9.476562 8.71875 -9.375 C 8.78125 -9.28125 8.8125 -9.175781 8.8125 -9.0625 C 8.8125 -8.863281 8.742188 -8.695312 8.609375 -8.5625 C 8.484375 -8.425781 8.332031 -8.359375 8.15625 -8.359375 C 8.007812 -8.359375 7.882812 -8.390625 7.78125 -8.453125 C 7.15625 -8.742188 6.519531 -8.890625 5.875 -8.890625 C 5.175781 -8.890625 4.539062 -8.71875 3.96875 -8.375 C 3.394531 -8.039062 2.941406 -7.578125 2.609375 -6.984375 C 2.273438 -6.398438 2.109375 -5.757812 2.109375 -5.0625 C 2.109375 -4.351562 2.273438 -3.707031 2.609375 -3.125 C 2.941406 -2.539062 3.394531 -2.078125 3.96875 -1.734375 C 4.539062 -1.398438 5.175781 -1.234375 5.875 -1.234375 C 6.195312 -1.234375 6.535156 -1.269531 6.890625 -1.34375 C 7.253906 -1.414062 7.566406 -1.515625 7.828125 -1.640625 L 7.828125 -3.953125 L 6.078125 -3.953125 C 5.890625 -3.953125 5.726562 -4.015625 5.59375 -4.140625 C 5.457031 -4.273438 5.390625 -4.4375 5.390625 -4.625 C 5.390625 -4.820312 5.457031 -4.984375 5.59375 -5.109375 C 5.726562 -5.242188 5.890625 -5.3125 6.078125 -5.3125 Z M 8.625 -5.3125 "/></g></g></g><g fill="#373737" fill-opacity="1"><g transform="translate(69.24653, 241.592754)"><g><path d="M 7.671875 -4.078125 C 7.660156 -3.898438 7.585938 -3.75 7.453125 -3.625 C 7.316406 -3.507812 7.160156 -3.453125 6.984375 -3.453125 L 1.890625 -3.453125 C 1.960938 -2.753906 2.226562 -2.191406 2.6875 -1.765625 C 3.15625 -1.335938 3.726562 -1.125 4.40625 -1.125 C 4.875 -1.125 5.25 -1.191406 5.53125 -1.328125 C 5.820312 -1.460938 6.078125 -1.632812 6.296875 -1.84375 C 6.441406 -1.9375 6.582031 -1.984375 6.71875 -1.984375 C 6.882812 -1.984375 7.019531 -1.925781 7.125 -1.8125 C 7.238281 -1.695312 7.296875 -1.5625 7.296875 -1.40625 C 7.296875 -1.195312 7.203125 -1.015625 7.015625 -0.859375 C 6.734375 -0.578125 6.359375 -0.335938 5.890625 -0.140625 C 5.429688 0.046875 4.960938 0.140625 4.484375 0.140625 C 3.703125 0.140625 3.015625 -0.0195312 2.421875 -0.34375 C 1.828125 -0.675781 1.367188 -1.132812 1.046875 -1.71875 C 0.722656 -2.3125 0.5625 -2.976562 0.5625 -3.71875 C 0.5625 -4.519531 0.726562 -5.226562 1.0625 -5.84375 C 1.394531 -6.457031 1.832031 -6.925781 2.375 -7.25 C 2.914062 -7.582031 3.503906 -7.75 4.140625 -7.75 C 4.753906 -7.75 5.328125 -7.585938 5.859375 -7.265625 C 6.398438 -6.953125 6.832031 -6.515625 7.15625 -5.953125 C 7.488281 -5.390625 7.660156 -4.765625 7.671875 -4.078125 Z M 4.140625 -6.46875 C 3.597656 -6.46875 3.128906 -6.316406 2.734375 -6.015625 C 2.335938 -5.710938 2.078125 -5.242188 1.953125 -4.609375 L 6.21875 -4.609375 L 6.21875 -4.71875 C 6.164062 -5.238281 5.9375 -5.660156 5.53125 -5.984375 C 5.125 -6.304688 4.660156 -6.46875 4.140625 -6.46875 Z M 4.140625 -6.46875 "/></g></g></g><g fill="#373737" fill-opacity="1"><g transform="translate(80.517678, 241.592754)"><g><path d="M 0.59375 -1.1875 C 0.507812 -1.320312 0.46875 -1.453125 0.46875 -1.578125 C 0.46875 -1.765625 0.566406 -1.925781 0.765625 -2.0625 C 0.859375 -2.132812 0.96875 -2.171875 1.09375 -2.171875 C 1.269531 -2.171875 1.429688 -2.097656 1.578125 -1.953125 C 1.867188 -1.617188 2.175781 -1.367188 2.5 -1.203125 C 2.832031 -1.046875 3.234375 -0.96875 3.703125 -0.96875 C 4.066406 -0.976562 4.390625 -1.0625 4.671875 -1.21875 C 4.953125 -1.375 5.09375 -1.632812 5.09375 -2 C 5.09375 -2.320312 4.945312 -2.566406 4.65625 -2.734375 C 4.375 -2.910156 3.957031 -3.070312 3.40625 -3.21875 C 2.875 -3.363281 2.425781 -3.515625 2.0625 -3.671875 C 1.707031 -3.835938 1.40625 -4.070312 1.15625 -4.375 C 0.914062 -4.675781 0.796875 -5.070312 0.796875 -5.5625 C 0.796875 -6 0.914062 -6.378906 1.15625 -6.703125 C 1.40625 -7.035156 1.734375 -7.289062 2.140625 -7.46875 C 2.554688 -7.65625 3.003906 -7.75 3.484375 -7.75 C 3.941406 -7.75 4.398438 -7.660156 4.859375 -7.484375 C 5.316406 -7.316406 5.691406 -7.050781 5.984375 -6.6875 C 6.097656 -6.550781 6.15625 -6.410156 6.15625 -6.265625 C 6.15625 -6.117188 6.078125 -5.972656 5.921875 -5.828125 C 5.828125 -5.734375 5.707031 -5.6875 5.5625 -5.6875 C 5.382812 -5.6875 5.242188 -5.75 5.140625 -5.875 C 4.941406 -6.101562 4.691406 -6.28125 4.390625 -6.40625 C 4.097656 -6.53125 3.773438 -6.59375 3.421875 -6.59375 C 3.054688 -6.59375 2.742188 -6.515625 2.484375 -6.359375 C 2.234375 -6.210938 2.109375 -5.960938 2.109375 -5.609375 C 2.117188 -5.273438 2.265625 -5.023438 2.546875 -4.859375 C 2.835938 -4.691406 3.273438 -4.53125 3.859375 -4.375 C 4.367188 -4.238281 4.789062 -4.09375 5.125 -3.9375 C 5.46875 -3.789062 5.753906 -3.5625 5.984375 -3.25 C 6.210938 -2.945312 6.328125 -2.550781 6.328125 -2.0625 C 6.328125 -1.613281 6.195312 -1.222656 5.9375 -0.890625 C 5.675781 -0.554688 5.335938 -0.300781 4.921875 -0.125 C 4.503906 0.0507812 4.054688 0.140625 3.578125 0.140625 C 2.972656 0.140625 2.410156 0.0351562 1.890625 -0.171875 C 1.378906 -0.378906 0.945312 -0.71875 0.59375 -1.1875 Z M 0.59375 -1.1875 "/></g></g></g><g fill="#373737" fill-opacity="1"><g transform="translate(90.445049, 241.592754)"><g><path d="M 3.078125 -6.234375 L 3.078125 -1.921875 C 3.078125 -1.441406 3.296875 -1.203125 3.734375 -1.203125 C 3.796875 -1.203125 3.882812 -1.21875 4 -1.25 C 4.113281 -1.28125 4.207031 -1.296875 4.28125 -1.296875 C 4.40625 -1.296875 4.507812 -1.242188 4.59375 -1.140625 C 4.675781 -1.035156 4.71875 -0.898438 4.71875 -0.734375 C 4.71875 -0.535156 4.601562 -0.363281 4.375 -0.21875 C 4.144531 -0.0703125 3.882812 0 3.59375 0 C 3.28125 0 2.988281 -0.03125 2.71875 -0.09375 C 2.457031 -0.164062 2.222656 -0.335938 2.015625 -0.609375 C 1.804688 -0.890625 1.703125 -1.304688 1.703125 -1.859375 L 1.703125 -6.234375 L 0.875 -6.234375 C 0.6875 -6.234375 0.53125 -6.289062 0.40625 -6.40625 C 0.289062 -6.53125 0.234375 -6.679688 0.234375 -6.859375 C 0.234375 -7.046875 0.289062 -7.195312 0.40625 -7.3125 C 0.53125 -7.425781 0.6875 -7.484375 0.875 -7.484375 L 1.703125 -7.484375 L 1.703125 -8.703125 C 1.703125 -8.890625 1.765625 -9.050781 1.890625 -9.1875 C 2.023438 -9.320312 2.195312 -9.390625 2.40625 -9.390625 C 2.59375 -9.390625 2.75 -9.320312 2.875 -9.1875 C 3.007812 -9.050781 3.078125 -8.890625 3.078125 -8.703125 L 3.078125 -7.484375 L 4.28125 -7.484375 C 4.457031 -7.484375 4.609375 -7.421875 4.734375 -7.296875 C 4.859375 -7.179688 4.921875 -7.03125 4.921875 -6.84375 C 4.921875 -6.664062 4.859375 -6.519531 4.734375 -6.40625 C 4.609375 -6.289062 4.457031 -6.234375 4.28125 -6.234375 Z M 3.078125 -6.234375 "/></g></g></g><g fill="#373737" fill-opacity="1"><g transform="translate(98.970851, 241.592754)"><g><path d="M 7.171875 -7.671875 C 7.367188 -7.671875 7.53125 -7.601562 7.65625 -7.46875 C 7.789062 -7.34375 7.859375 -7.175781 7.859375 -6.96875 L 7.859375 -0.6875 C 7.859375 -0.5 7.789062 -0.335938 7.65625 -0.203125 C 7.53125 -0.0664062 7.367188 0 7.171875 0 C 6.960938 0 6.796875 -0.0625 6.671875 -0.1875 C 6.546875 -0.320312 6.484375 -0.488281 6.484375 -0.6875 L 6.484375 -1.0625 C 6.234375 -0.726562 5.890625 -0.441406 5.453125 -0.203125 C 5.023438 0.0234375 4.5625 0.140625 4.0625 0.140625 C 3.40625 0.140625 2.804688 -0.0234375 2.265625 -0.359375 C 1.734375 -0.703125 1.316406 -1.171875 1.015625 -1.765625 C 0.710938 -2.367188 0.5625 -3.046875 0.5625 -3.796875 C 0.5625 -4.546875 0.710938 -5.222656 1.015625 -5.828125 C 1.316406 -6.429688 1.734375 -6.898438 2.265625 -7.234375 C 2.796875 -7.578125 3.378906 -7.75 4.015625 -7.75 C 4.523438 -7.75 5 -7.640625 5.4375 -7.421875 C 5.875 -7.210938 6.222656 -6.945312 6.484375 -6.625 L 6.484375 -6.96875 C 6.484375 -7.164062 6.546875 -7.332031 6.671875 -7.46875 C 6.796875 -7.601562 6.960938 -7.671875 7.171875 -7.671875 Z M 4.21875 -1.125 C 4.675781 -1.125 5.078125 -1.238281 5.421875 -1.46875 C 5.773438 -1.707031 6.050781 -2.023438 6.25 -2.421875 C 6.445312 -2.828125 6.546875 -3.285156 6.546875 -3.796875 C 6.546875 -4.296875 6.445312 -4.75 6.25 -5.15625 C 6.050781 -5.5625 5.773438 -5.878906 5.421875 -6.109375 C 5.078125 -6.347656 4.675781 -6.46875 4.21875 -6.46875 C 3.769531 -6.46875 3.367188 -6.351562 3.015625 -6.125 C 2.660156 -5.894531 2.382812 -5.578125 2.1875 -5.171875 C 1.988281 -4.765625 1.890625 -4.304688 1.890625 -3.796875 C 1.890625 -3.285156 1.988281 -2.828125 2.1875 -2.421875 C 2.382812 -2.023438 2.660156 -1.707031 3.015625 -1.46875 C 3.367188 -1.238281 3.769531 -1.125 4.21875 -1.125 Z M 2.390625 -8.46875 C 2.203125 -8.46875 2.050781 -8.539062 1.9375 -8.6875 C 1.820312 -8.832031 1.769531 -9.035156 1.78125 -9.296875 C 1.8125 -9.628906 1.96875 -9.90625 2.25 -10.125 C 2.53125 -10.34375 2.90625 -10.453125 3.375 -10.453125 C 3.582031 -10.453125 3.78125 -10.40625 3.96875 -10.3125 C 4.164062 -10.226562 4.398438 -10.097656 4.671875 -9.921875 C 4.847656 -9.804688 4.992188 -9.71875 5.109375 -9.65625 C 5.222656 -9.59375 5.328125 -9.5625 5.421875 -9.5625 C 5.546875 -9.5625 5.640625 -9.597656 5.703125 -9.671875 C 5.773438 -9.742188 5.804688 -9.84375 5.796875 -9.96875 C 5.785156 -10 5.78125 -10.046875 5.78125 -10.109375 C 5.78125 -10.234375 5.820312 -10.332031 5.90625 -10.40625 C 5.988281 -10.488281 6.09375 -10.53125 6.21875 -10.53125 C 6.414062 -10.53125 6.566406 -10.457031 6.671875 -10.3125 C 6.785156 -10.164062 6.835938 -9.96875 6.828125 -9.71875 C 6.796875 -9.40625 6.65625 -9.128906 6.40625 -8.890625 C 6.164062 -8.648438 5.816406 -8.53125 5.359375 -8.53125 C 5.179688 -8.53125 5 -8.570312 4.8125 -8.65625 C 4.625 -8.738281 4.390625 -8.863281 4.109375 -9.03125 C 3.898438 -9.15625 3.722656 -9.25 3.578125 -9.3125 C 3.441406 -9.382812 3.320312 -9.421875 3.21875 -9.421875 C 3.101562 -9.421875 3.007812 -9.382812 2.9375 -9.3125 C 2.863281 -9.25 2.828125 -9.148438 2.828125 -9.015625 C 2.835938 -8.984375 2.84375 -8.945312 2.84375 -8.90625 C 2.84375 -8.769531 2.796875 -8.660156 2.703125 -8.578125 C 2.617188 -8.503906 2.515625 -8.46875 2.390625 -8.46875 Z M 2.390625 -8.46875 "/></g></g></g><g fill="#373737" fill-opacity="1"><g transform="translate(110.877776, 241.592754)"><g><path d="M 8.1875 -3.78125 C 8.1875 -3.03125 8.019531 -2.359375 7.6875 -1.765625 C 7.351562 -1.171875 6.894531 -0.703125 6.3125 -0.359375 C 5.726562 -0.0234375 5.082031 0.140625 4.375 0.140625 C 3.675781 0.140625 3.035156 -0.0234375 2.453125 -0.359375 C 1.867188 -0.703125 1.40625 -1.171875 1.0625 -1.765625 C 0.726562 -2.359375 0.5625 -3.03125 0.5625 -3.78125 C 0.5625 -4.539062 0.726562 -5.222656 1.0625 -5.828125 C 1.40625 -6.429688 1.867188 -6.898438 2.453125 -7.234375 C 3.035156 -7.578125 3.675781 -7.75 4.375 -7.75 C 5.082031 -7.75 5.726562 -7.578125 6.3125 -7.234375 C 6.894531 -6.898438 7.351562 -6.429688 7.6875 -5.828125 C 8.019531 -5.222656 8.1875 -4.539062 8.1875 -3.78125 Z M 6.828125 -3.78125 C 6.828125 -4.300781 6.71875 -4.765625 6.5 -5.171875 C 6.28125 -5.585938 5.984375 -5.90625 5.609375 -6.125 C 5.242188 -6.351562 4.832031 -6.46875 4.375 -6.46875 C 3.925781 -6.46875 3.515625 -6.351562 3.140625 -6.125 C 2.773438 -5.90625 2.484375 -5.585938 2.265625 -5.171875 C 2.046875 -4.765625 1.9375 -4.300781 1.9375 -3.78125 C 1.9375 -3.269531 2.046875 -2.8125 2.265625 -2.40625 C 2.484375 -2.007812 2.773438 -1.695312 3.140625 -1.46875 C 3.515625 -1.238281 3.925781 -1.125 4.375 -1.125 C 4.832031 -1.125 5.242188 -1.238281 5.609375 -1.46875 C 5.984375 -1.695312 6.28125 -2.007812 6.5 -2.40625 C 6.71875 -2.8125 6.828125 -3.269531 6.828125 -3.78125 Z M 6.828125 -3.78125 "/></g></g></g><g fill="#373737" fill-opacity="1"><g transform="translate(122.669103, 241.592754)"><g/></g></g><g fill="#373737" fill-opacity="1"><g transform="translate(129.706624, 241.592754)"><g><path d="M 7.171875 -10.703125 C 7.367188 -10.703125 7.53125 -10.632812 7.65625 -10.5 C 7.789062 -10.375 7.859375 -10.207031 7.859375 -10 L 7.859375 -0.6875 C 7.859375 -0.5 7.789062 -0.335938 7.65625 -0.203125 C 7.53125 -0.0664062 7.367188 0 7.171875 0 C 6.960938 0 6.796875 -0.0625 6.671875 -0.1875 C 6.546875 -0.320312 6.484375 -0.488281 6.484375 -0.6875 L 6.484375 -1.09375 C 6.242188 -0.75 5.90625 -0.457031 5.46875 -0.21875 C 5.03125 0.0195312 4.5625 0.140625 4.0625 0.140625 C 3.40625 0.140625 2.8125 -0.0234375 2.28125 -0.359375 C 1.75 -0.703125 1.328125 -1.171875 1.015625 -1.765625 C 0.710938 -2.367188 0.5625 -3.046875 0.5625 -3.796875 C 0.5625 -4.546875 0.710938 -5.222656 1.015625 -5.828125 C 1.316406 -6.429688 1.734375 -6.898438 2.265625 -7.234375 C 2.796875 -7.578125 3.378906 -7.75 4.015625 -7.75 C 4.523438 -7.75 4.992188 -7.640625 5.421875 -7.421875 C 5.859375 -7.210938 6.210938 -6.941406 6.484375 -6.609375 L 6.484375 -10 C 6.484375 -10.207031 6.546875 -10.375 6.671875 -10.5 C 6.796875 -10.632812 6.960938 -10.703125 7.171875 -10.703125 Z M 4.21875 -1.125 C 4.675781 -1.125 5.078125 -1.238281 5.421875 -1.46875 C 5.773438 -1.707031 6.050781 -2.023438 6.25 -2.421875 C 6.445312 -2.828125 6.546875 -3.285156 6.546875 -3.796875 C 6.546875 -4.296875 6.445312 -4.75 6.25 -5.15625 C 6.050781 -5.570312 5.773438 -5.894531 5.421875 -6.125 C 5.078125 -6.351562 4.675781 -6.46875 4.21875 -6.46875 C 3.769531 -6.46875 3.367188 -6.351562 3.015625 -6.125 C 2.660156 -5.894531 2.382812 -5.570312 2.1875 -5.15625 C 1.988281 -4.75 1.890625 -4.296875 1.890625 -3.796875 C 1.890625 -3.285156 1.988281 -2.828125 2.1875 -2.421875 C 2.382812 -2.023438 2.660156 -1.707031 3.015625 -1.46875 C 3.367188 -1.238281 3.769531 -1.125 4.21875 -1.125 Z M 4.21875 -1.125 "/></g></g></g><g fill="#373737" fill-opacity="1"><g transform="translate(141.613549, 241.592754)"><g><path d="M 7.671875 -4.078125 C 7.660156 -3.898438 7.585938 -3.75 7.453125 -3.625 C 7.316406 -3.507812 7.160156 -3.453125 6.984375 -3.453125 L 1.890625 -3.453125 C 1.960938 -2.753906 2.226562 -2.191406 2.6875 -1.765625 C 3.15625 -1.335938 3.726562 -1.125 4.40625 -1.125 C 4.875 -1.125 5.25 -1.191406 5.53125 -1.328125 C 5.820312 -1.460938 6.078125 -1.632812 6.296875 -1.84375 C 6.441406 -1.9375 6.582031 -1.984375 6.71875 -1.984375 C 6.882812 -1.984375 7.019531 -1.925781 7.125 -1.8125 C 7.238281 -1.695312 7.296875 -1.5625 7.296875 -1.40625 C 7.296875 -1.195312 7.203125 -1.015625 7.015625 -0.859375 C 6.734375 -0.578125 6.359375 -0.335938 5.890625 -0.140625 C 5.429688 0.046875 4.960938 0.140625 4.484375 0.140625 C 3.703125 0.140625 3.015625 -0.0195312 2.421875 -0.34375 C 1.828125 -0.675781 1.367188 -1.132812 1.046875 -1.71875 C 0.722656 -2.3125 0.5625 -2.976562 0.5625 -3.71875 C 0.5625 -4.519531 0.726562 -5.226562 1.0625 -5.84375 C 1.394531 -6.457031 1.832031 -6.925781 2.375 -7.25 C 2.914062 -7.582031 3.503906 -7.75 4.140625 -7.75 C 4.753906 -7.75 5.328125 -7.585938 5.859375 -7.265625 C 6.398438 -6.953125 6.832031 -6.515625 7.15625 -5.953125 C 7.488281 -5.390625 7.660156 -4.765625 7.671875 -4.078125 Z M 4.140625 -6.46875 C 3.597656 -6.46875 3.128906 -6.316406 2.734375 -6.015625 C 2.335938 -5.710938 2.078125 -5.242188 1.953125 -4.609375 L 6.21875 -4.609375 L 6.21875 -4.71875 C 6.164062 -5.238281 5.9375 -5.660156 5.53125 -5.984375 C 5.125 -6.304688 4.660156 -6.46875 4.140625 -6.46875 Z M 4.140625 -6.46875 "/></g></g></g><g fill="#373737" fill-opacity="1"><g transform="translate(152.884697, 241.592754)"><g/></g></g><g fill="#373737" fill-opacity="1"><g transform="translate(159.922218, 241.592754)"><g><path d="M 7.671875 -4.078125 C 7.660156 -3.898438 7.585938 -3.75 7.453125 -3.625 C 7.316406 -3.507812 7.160156 -3.453125 6.984375 -3.453125 L 1.890625 -3.453125 C 1.960938 -2.753906 2.226562 -2.191406 2.6875 -1.765625 C 3.15625 -1.335938 3.726562 -1.125 4.40625 -1.125 C 4.875 -1.125 5.25 -1.191406 5.53125 -1.328125 C 5.820312 -1.460938 6.078125 -1.632812 6.296875 -1.84375 C 6.441406 -1.9375 6.582031 -1.984375 6.71875 -1.984375 C 6.882812 -1.984375 7.019531 -1.925781 7.125 -1.8125 C 7.238281 -1.695312 7.296875 -1.5625 7.296875 -1.40625 C 7.296875 -1.195312 7.203125 -1.015625 7.015625 -0.859375 C 6.734375 -0.578125 6.359375 -0.335938 5.890625 -0.140625 C 5.429688 0.046875 4.960938 0.140625 4.484375 0.140625 C 3.703125 0.140625 3.015625 -0.0195312 2.421875 -0.34375 C 1.828125 -0.675781 1.367188 -1.132812 1.046875 -1.71875 C 0.722656 -2.3125 0.5625 -2.976562 0.5625 -3.71875 C 0.5625 -4.519531 0.726562 -5.226562 1.0625 -5.84375 C 1.394531 -6.457031 1.832031 -6.925781 2.375 -7.25 C 2.914062 -7.582031 3.503906 -7.75 4.140625 -7.75 C 4.753906 -7.75 5.328125 -7.585938 5.859375 -7.265625 C 6.398438 -6.953125 6.832031 -6.515625 7.15625 -5.953125 C 7.488281 -5.390625 7.660156 -4.765625 7.671875 -4.078125 Z M 4.140625 -6.46875 C 3.597656 -6.46875 3.128906 -6.316406 2.734375 -6.015625 C 2.335938 -5.710938 2.078125 -5.242188 1.953125 -4.609375 L 6.21875 -4.609375 L 6.21875 -4.71875 C 6.164062 -5.238281 5.9375 -5.660156 5.53125 -5.984375 C 5.125 -6.304688 4.660156 -6.46875 4.140625 -6.46875 Z M 4.140625 -6.46875 "/></g></g></g><g fill="#373737" fill-opacity="1"><g transform="translate(171.193366, 241.592754)"><g><path d="M 0.59375 -1.1875 C 0.507812 -1.320312 0.46875 -1.453125 0.46875 -1.578125 C 0.46875 -1.765625 0.566406 -1.925781 0.765625 -2.0625 C 0.859375 -2.132812 0.96875 -2.171875 1.09375 -2.171875 C 1.269531 -2.171875 1.429688 -2.097656 1.578125 -1.953125 C 1.867188 -1.617188 2.175781 -1.367188 2.5 -1.203125 C 2.832031 -1.046875 3.234375 -0.96875 3.703125 -0.96875 C 4.066406 -0.976562 4.390625 -1.0625 4.671875 -1.21875 C 4.953125 -1.375 5.09375 -1.632812 5.09375 -2 C 5.09375 -2.320312 4.945312 -2.566406 4.65625 -2.734375 C 4.375 -2.910156 3.957031 -3.070312 3.40625 -3.21875 C 2.875 -3.363281 2.425781 -3.515625 2.0625 -3.671875 C 1.707031 -3.835938 1.40625 -4.070312 1.15625 -4.375 C 0.914062 -4.675781 0.796875 -5.070312 0.796875 -5.5625 C 0.796875 -6 0.914062 -6.378906 1.15625 -6.703125 C 1.40625 -7.035156 1.734375 -7.289062 2.140625 -7.46875 C 2.554688 -7.65625 3.003906 -7.75 3.484375 -7.75 C 3.941406 -7.75 4.398438 -7.660156 4.859375 -7.484375 C 5.316406 -7.316406 5.691406 -7.050781 5.984375 -6.6875 C 6.097656 -6.550781 6.15625 -6.410156 6.15625 -6.265625 C 6.15625 -6.117188 6.078125 -5.972656 5.921875 -5.828125 C 5.828125 -5.734375 5.707031 -5.6875 5.5625 -5.6875 C 5.382812 -5.6875 5.242188 -5.75 5.140625 -5.875 C 4.941406 -6.101562 4.691406 -6.28125 4.390625 -6.40625 C 4.097656 -6.53125 3.773438 -6.59375 3.421875 -6.59375 C 3.054688 -6.59375 2.742188 -6.515625 2.484375 -6.359375 C 2.234375 -6.210938 2.109375 -5.960938 2.109375 -5.609375 C 2.117188 -5.273438 2.265625 -5.023438 2.546875 -4.859375 C 2.835938 -4.691406 3.273438 -4.53125 3.859375 -4.375 C 4.367188 -4.238281 4.789062 -4.09375 5.125 -3.9375 C 5.46875 -3.789062 5.753906 -3.5625 5.984375 -3.25 C 6.210938 -2.945312 6.328125 -2.550781 6.328125 -2.0625 C 6.328125 -1.613281 6.195312 -1.222656 5.9375 -0.890625 C 5.675781 -0.554688 5.335938 -0.300781 4.921875 -0.125 C 4.503906 0.0507812 4.054688 0.140625 3.578125 0.140625 C 2.972656 0.140625 2.410156 0.0351562 1.890625 -0.171875 C 1.378906 -0.378906 0.945312 -0.71875 0.59375 -1.1875 Z M 0.59375 -1.1875 "/></g></g></g><g fill="#373737" fill-opacity="1"><g transform="translate(181.120737, 241.592754)"><g><path d="M 3.078125 -6.234375 L 3.078125 -1.921875 C 3.078125 -1.441406 3.296875 -1.203125 3.734375 -1.203125 C 3.796875 -1.203125 3.882812 -1.21875 4 -1.25 C 4.113281 -1.28125 4.207031 -1.296875 4.28125 -1.296875 C 4.40625 -1.296875 4.507812 -1.242188 4.59375 -1.140625 C 4.675781 -1.035156 4.71875 -0.898438 4.71875 -0.734375 C 4.71875 -0.535156 4.601562 -0.363281 4.375 -0.21875 C 4.144531 -0.0703125 3.882812 0 3.59375 0 C 3.28125 0 2.988281 -0.03125 2.71875 -0.09375 C 2.457031 -0.164062 2.222656 -0.335938 2.015625 -0.609375 C 1.804688 -0.890625 1.703125 -1.304688 1.703125 -1.859375 L 1.703125 -6.234375 L 0.875 -6.234375 C 0.6875 -6.234375 0.53125 -6.289062 0.40625 -6.40625 C 0.289062 -6.53125 0.234375 -6.679688 0.234375 -6.859375 C 0.234375 -7.046875 0.289062 -7.195312 0.40625 -7.3125 C 0.53125 -7.425781 0.6875 -7.484375 0.875 -7.484375 L 1.703125 -7.484375 L 1.703125 -8.703125 C 1.703125 -8.890625 1.765625 -9.050781 1.890625 -9.1875 C 2.023438 -9.320312 2.195312 -9.390625 2.40625 -9.390625 C 2.59375 -9.390625 2.75 -9.320312 2.875 -9.1875 C 3.007812 -9.050781 3.078125 -8.890625 3.078125 -8.703125 L 3.078125 -7.484375 L 4.28125 -7.484375 C 4.457031 -7.484375 4.609375 -7.421875 4.734375 -7.296875 C 4.859375 -7.179688 4.921875 -7.03125 4.921875 -6.84375 C 4.921875 -6.664062 4.859375 -6.519531 4.734375 -6.40625 C 4.609375 -6.289062 4.457031 -6.234375 4.28125 -6.234375 Z M 3.078125 -6.234375 "/></g></g></g><g fill="#373737" fill-opacity="1"><g transform="translate(189.646539, 241.592754)"><g><path d="M 8.1875 -3.78125 C 8.1875 -3.03125 8.019531 -2.359375 7.6875 -1.765625 C 7.351562 -1.171875 6.894531 -0.703125 6.3125 -0.359375 C 5.726562 -0.0234375 5.082031 0.140625 4.375 0.140625 C 3.675781 0.140625 3.035156 -0.0234375 2.453125 -0.359375 C 1.867188 -0.703125 1.40625 -1.171875 1.0625 -1.765625 C 0.726562 -2.359375 0.5625 -3.03125 0.5625 -3.78125 C 0.5625 -4.539062 0.726562 -5.222656 1.0625 -5.828125 C 1.40625 -6.429688 1.867188 -6.898438 2.453125 -7.234375 C 3.035156 -7.578125 3.675781 -7.75 4.375 -7.75 C 5.082031 -7.75 5.726562 -7.578125 6.3125 -7.234375 C 6.894531 -6.898438 7.351562 -6.429688 7.6875 -5.828125 C 8.019531 -5.222656 8.1875 -4.539062 8.1875 -3.78125 Z M 6.828125 -3.78125 C 6.828125 -4.300781 6.71875 -4.765625 6.5 -5.171875 C 6.28125 -5.585938 5.984375 -5.90625 5.609375 -6.125 C 5.242188 -6.351562 4.832031 -6.46875 4.375 -6.46875 C 3.925781 -6.46875 3.515625 -6.351562 3.140625 -6.125 C 2.773438 -5.90625 2.484375 -5.585938 2.265625 -5.171875 C 2.046875 -4.765625 1.9375 -4.300781 1.9375 -3.78125 C 1.9375 -3.269531 2.046875 -2.8125 2.265625 -2.40625 C 2.484375 -2.007812 2.773438 -1.695312 3.140625 -1.46875 C 3.515625 -1.238281 3.925781 -1.125 4.375 -1.125 C 4.832031 -1.125 5.242188 -1.238281 5.609375 -1.46875 C 5.984375 -1.695312 6.28125 -2.007812 6.5 -2.40625 C 6.71875 -2.8125 6.828125 -3.269531 6.828125 -3.78125 Z M 6.828125 -3.78125 "/></g></g></g><g fill="#373737" fill-opacity="1"><g transform="translate(201.437867, 241.592754)"><g><path d="M 7.171875 -7.609375 C 7.367188 -7.609375 7.53125 -7.539062 7.65625 -7.40625 C 7.789062 -7.28125 7.859375 -7.109375 7.859375 -6.890625 L 7.859375 2.203125 C 7.859375 2.390625 7.789062 2.550781 7.65625 2.6875 C 7.53125 2.820312 7.367188 2.890625 7.171875 2.890625 C 6.960938 2.890625 6.796875 2.820312 6.671875 2.6875 C 6.546875 2.5625 6.484375 2.398438 6.484375 2.203125 L 6.484375 -1.09375 C 6.242188 -0.75 5.90625 -0.457031 5.46875 -0.21875 C 5.03125 0.0195312 4.5625 0.140625 4.0625 0.140625 C 3.40625 0.140625 2.8125 -0.0234375 2.28125 -0.359375 C 1.75 -0.703125 1.328125 -1.171875 1.015625 -1.765625 C 0.710938 -2.367188 0.5625 -3.046875 0.5625 -3.796875 C 0.5625 -4.546875 0.710938 -5.222656 1.015625 -5.828125 C 1.316406 -6.429688 1.734375 -6.898438 2.265625 -7.234375 C 2.796875 -7.578125 3.378906 -7.75 4.015625 -7.75 C 4.523438 -7.75 4.992188 -7.640625 5.421875 -7.421875 C 5.859375 -7.210938 6.210938 -6.941406 6.484375 -6.609375 L 6.484375 -6.890625 C 6.484375 -7.097656 6.546875 -7.269531 6.671875 -7.40625 C 6.796875 -7.539062 6.960938 -7.609375 7.171875 -7.609375 Z M 4.21875 -1.125 C 4.675781 -1.125 5.078125 -1.238281 5.421875 -1.46875 C 5.773438 -1.707031 6.050781 -2.023438 6.25 -2.421875 C 6.445312 -2.828125 6.546875 -3.285156 6.546875 -3.796875 C 6.546875 -4.296875 6.445312 -4.75 6.25 -5.15625 C 6.050781 -5.570312 5.773438 -5.894531 5.421875 -6.125 C 5.078125 -6.351562 4.675781 -6.46875 4.21875 -6.46875 C 3.769531 -6.46875 3.367188 -6.351562 3.015625 -6.125 C 2.660156 -5.894531 2.382812 -5.570312 2.1875 -5.15625 C 1.988281 -4.75 1.890625 -4.296875 1.890625 -3.796875 C 1.890625 -3.285156 1.988281 -2.828125 2.1875 -2.421875 C 2.382812 -2.023438 2.660156 -1.707031 3.015625 -1.46875 C 3.367188 -1.238281 3.769531 -1.125 4.21875 -1.125 Z M 4.21875 -1.125 "/></g></g></g><g fill="#373737" fill-opacity="1"><g transform="translate(213.344791, 241.592754)"><g><path d="M 6.65625 -7.578125 C 6.863281 -7.578125 7.03125 -7.507812 7.15625 -7.375 C 7.289062 -7.238281 7.359375 -7.070312 7.359375 -6.875 L 7.359375 -3.03125 C 7.359375 -2.03125 7.078125 -1.253906 6.515625 -0.703125 C 5.960938 -0.148438 5.179688 0.125 4.171875 0.125 C 3.171875 0.125 2.394531 -0.148438 1.84375 -0.703125 C 1.300781 -1.253906 1.03125 -2.03125 1.03125 -3.03125 L 1.03125 -6.875 C 1.03125 -7.070312 1.09375 -7.238281 1.21875 -7.375 C 1.351562 -7.507812 1.515625 -7.578125 1.703125 -7.578125 C 1.910156 -7.578125 2.078125 -7.507812 2.203125 -7.375 C 2.335938 -7.238281 2.40625 -7.070312 2.40625 -6.875 L 2.40625 -3.03125 C 2.40625 -1.769531 2.992188 -1.140625 4.171875 -1.140625 C 4.765625 -1.140625 5.210938 -1.296875 5.515625 -1.609375 C 5.828125 -1.929688 5.984375 -2.40625 5.984375 -3.03125 L 5.984375 -6.875 C 5.984375 -7.070312 6.046875 -7.238281 6.171875 -7.375 C 6.304688 -7.507812 6.46875 -7.578125 6.65625 -7.578125 Z M 6.65625 -7.578125 "/></g></g></g><g fill="#373737" fill-opacity="1"><g transform="translate(224.760432, 241.592754)"><g><path d="M 7.671875 -4.078125 C 7.660156 -3.898438 7.585938 -3.75 7.453125 -3.625 C 7.316406 -3.507812 7.160156 -3.453125 6.984375 -3.453125 L 1.890625 -3.453125 C 1.960938 -2.753906 2.226562 -2.191406 2.6875 -1.765625 C 3.15625 -1.335938 3.726562 -1.125 4.40625 -1.125 C 4.875 -1.125 5.25 -1.191406 5.53125 -1.328125 C 5.820312 -1.460938 6.078125 -1.632812 6.296875 -1.84375 C 6.441406 -1.9375 6.582031 -1.984375 6.71875 -1.984375 C 6.882812 -1.984375 7.019531 -1.925781 7.125 -1.8125 C 7.238281 -1.695312 7.296875 -1.5625 7.296875 -1.40625 C 7.296875 -1.195312 7.203125 -1.015625 7.015625 -0.859375 C 6.734375 -0.578125 6.359375 -0.335938 5.890625 -0.140625 C 5.429688 0.046875 4.960938 0.140625 4.484375 0.140625 C 3.703125 0.140625 3.015625 -0.0195312 2.421875 -0.34375 C 1.828125 -0.675781 1.367188 -1.132812 1.046875 -1.71875 C 0.722656 -2.3125 0.5625 -2.976562 0.5625 -3.71875 C 0.5625 -4.519531 0.726562 -5.226562 1.0625 -5.84375 C 1.394531 -6.457031 1.832031 -6.925781 2.375 -7.25 C 2.914062 -7.582031 3.503906 -7.75 4.140625 -7.75 C 4.753906 -7.75 5.328125 -7.585938 5.859375 -7.265625 C 6.398438 -6.953125 6.832031 -6.515625 7.15625 -5.953125 C 7.488281 -5.390625 7.660156 -4.765625 7.671875 -4.078125 Z M 4.140625 -6.46875 C 3.597656 -6.46875 3.128906 -6.316406 2.734375 -6.015625 C 2.335938 -5.710938 2.078125 -5.242188 1.953125 -4.609375 L 6.21875 -4.609375 L 6.21875 -4.71875 C 6.164062 -5.238281 5.9375 -5.660156 5.53125 -5.984375 C 5.125 -6.304688 4.660156 -6.46875 4.140625 -6.46875 Z M 4.140625 -6.46875 "/></g></g></g><g fill="#373737" fill-opacity="1"><g transform="translate(236.03158, 241.592754)"><g/></g></g><g fill="#373737" fill-opacity="1"><g transform="translate(243.069101, 241.592754)"><g><path d="M 7.671875 -4.078125 C 7.660156 -3.898438 7.585938 -3.75 7.453125 -3.625 C 7.316406 -3.507812 7.160156 -3.453125 6.984375 -3.453125 L 1.890625 -3.453125 C 1.960938 -2.753906 2.226562 -2.191406 2.6875 -1.765625 C 3.15625 -1.335938 3.726562 -1.125 4.40625 -1.125 C 4.875 -1.125 5.25 -1.191406 5.53125 -1.328125 C 5.820312 -1.460938 6.078125 -1.632812 6.296875 -1.84375 C 6.441406 -1.9375 6.582031 -1.984375 6.71875 -1.984375 C 6.882812 -1.984375 7.019531 -1.925781 7.125 -1.8125 C 7.238281 -1.695312 7.296875 -1.5625 7.296875 -1.40625 C 7.296875 -1.195312 7.203125 -1.015625 7.015625 -0.859375 C 6.734375 -0.578125 6.359375 -0.335938 5.890625 -0.140625 C 5.429688 0.046875 4.960938 0.140625 4.484375 0.140625 C 3.703125 0.140625 3.015625 -0.0195312 2.421875 -0.34375 C 1.828125 -0.675781 1.367188 -1.132812 1.046875 -1.71875 C 0.722656 -2.3125 0.5625 -2.976562 0.5625 -3.71875 C 0.5625 -4.519531 0.726562 -5.226562 1.0625 -5.84375 C 1.394531 -6.457031 1.832031 -6.925781 2.375 -7.25 C 2.914062 -7.582031 3.503906 -7.75 4.140625 -7.75 C 4.753906 -7.75 5.328125 -7.585938 5.859375 -7.265625 C 6.398438 -6.953125 6.832031 -6.515625 7.15625 -5.953125 C 7.488281 -5.390625 7.660156 -4.765625 7.671875 -4.078125 Z M 4.140625 -6.46875 C 3.597656 -6.46875 3.128906 -6.316406 2.734375 -6.015625 C 2.335938 -5.710938 2.078125 -5.242188 1.953125 -4.609375 L 6.21875 -4.609375 L 6.21875 -4.71875 C 6.164062 -5.238281 5.9375 -5.660156 5.53125 -5.984375 C 5.125 -6.304688 4.660156 -6.46875 4.140625 -6.46875 Z M 4.140625 -6.46875 "/></g></g></g><g fill="#373737" fill-opacity="1"><g transform="translate(254.340249, 241.592754)"><g/></g></g><g fill="#373737" fill-opacity="1"><g transform="translate(261.37777, 241.592754)"><g><path d="M 6.8125 -7.640625 C 6.988281 -7.640625 7.140625 -7.578125 7.265625 -7.453125 C 7.390625 -7.335938 7.453125 -7.195312 7.453125 -7.03125 C 7.453125 -6.945312 7.421875 -6.828125 7.359375 -6.671875 L 4.609375 -0.4375 C 4.554688 -0.3125 4.472656 -0.207031 4.359375 -0.125 C 4.253906 -0.0507812 4.140625 -0.0078125 4.015625 0 C 3.859375 0.0195312 3.710938 -0.00390625 3.578125 -0.078125 C 3.453125 -0.160156 3.359375 -0.28125 3.296875 -0.4375 L 0.546875 -6.671875 C 0.503906 -6.816406 0.484375 -6.9375 0.484375 -7.03125 C 0.484375 -7.1875 0.546875 -7.328125 0.671875 -7.453125 C 0.796875 -7.578125 0.957031 -7.640625 1.15625 -7.640625 C 1.300781 -7.640625 1.429688 -7.601562 1.546875 -7.53125 C 1.660156 -7.457031 1.753906 -7.351562 1.828125 -7.21875 L 4 -2.140625 L 6.1875 -7.21875 C 6.320312 -7.5 6.53125 -7.640625 6.8125 -7.640625 Z M 6.8125 -7.640625 "/></g></g></g><g fill="#373737" fill-opacity="1"><g transform="translate(272.331024, 241.592754)"><g><path d="M 7.671875 -4.078125 C 7.660156 -3.898438 7.585938 -3.75 7.453125 -3.625 C 7.316406 -3.507812 7.160156 -3.453125 6.984375 -3.453125 L 1.890625 -3.453125 C 1.960938 -2.753906 2.226562 -2.191406 2.6875 -1.765625 C 3.15625 -1.335938 3.726562 -1.125 4.40625 -1.125 C 4.875 -1.125 5.25 -1.191406 5.53125 -1.328125 C 5.820312 -1.460938 6.078125 -1.632812 6.296875 -1.84375 C 6.441406 -1.9375 6.582031 -1.984375 6.71875 -1.984375 C 6.882812 -1.984375 7.019531 -1.925781 7.125 -1.8125 C 7.238281 -1.695312 7.296875 -1.5625 7.296875 -1.40625 C 7.296875 -1.195312 7.203125 -1.015625 7.015625 -0.859375 C 6.734375 -0.578125 6.359375 -0.335938 5.890625 -0.140625 C 5.429688 0.046875 4.960938 0.140625 4.484375 0.140625 C 3.703125 0.140625 3.015625 -0.0195312 2.421875 -0.34375 C 1.828125 -0.675781 1.367188 -1.132812 1.046875 -1.71875 C 0.722656 -2.3125 0.5625 -2.976562 0.5625 -3.71875 C 0.5625 -4.519531 0.726562 -5.226562 1.0625 -5.84375 C 1.394531 -6.457031 1.832031 -6.925781 2.375 -7.25 C 2.914062 -7.582031 3.503906 -7.75 4.140625 -7.75 C 4.753906 -7.75 5.328125 -7.585938 5.859375 -7.265625 C 6.398438 -6.953125 6.832031 -6.515625 7.15625 -5.953125 C 7.488281 -5.390625 7.660156 -4.765625 7.671875 -4.078125 Z M 4.140625 -6.46875 C 3.597656 -6.46875 3.128906 -6.316406 2.734375 -6.015625 C 2.335938 -5.710938 2.078125 -5.242188 1.953125 -4.609375 L 6.21875 -4.609375 L 6.21875 -4.71875 C 6.164062 -5.238281 5.9375 -5.660156 5.53125 -5.984375 C 5.125 -6.304688 4.660156 -6.46875 4.140625 -6.46875 Z M 4.140625 -6.46875 "/></g></g></g><g fill="#373737" fill-opacity="1"><g transform="translate(283.602171, 241.592754)"><g><path d="M 4.890625 -7.75 C 6.617188 -7.75 7.484375 -6.707031 7.484375 -4.625 L 7.484375 -0.6875 C 7.484375 -0.5 7.414062 -0.335938 7.28125 -0.203125 C 7.15625 -0.0664062 6.992188 0 6.796875 0 C 6.597656 0 6.429688 -0.0664062 6.296875 -0.203125 C 6.171875 -0.335938 6.109375 -0.5 6.109375 -0.6875 L 6.109375 -4.609375 C 6.109375 -5.179688 5.976562 -5.632812 5.71875 -5.96875 C 5.457031 -6.300781 5.035156 -6.46875 4.453125 -6.46875 C 4.066406 -6.46875 3.71875 -6.382812 3.40625 -6.21875 C 3.09375 -6.050781 2.847656 -5.820312 2.671875 -5.53125 C 2.492188 -5.25 2.40625 -4.941406 2.40625 -4.609375 L 2.40625 -0.6875 C 2.40625 -0.5 2.335938 -0.335938 2.203125 -0.203125 C 2.078125 -0.0664062 1.910156 0 1.703125 0 C 1.503906 0 1.34375 -0.0625 1.21875 -0.1875 C 1.09375 -0.320312 1.03125 -0.488281 1.03125 -0.6875 L 1.03125 -6.875 C 1.03125 -7.070312 1.09375 -7.238281 1.21875 -7.375 C 1.351562 -7.507812 1.515625 -7.578125 1.703125 -7.578125 C 1.910156 -7.578125 2.078125 -7.507812 2.203125 -7.375 C 2.335938 -7.238281 2.40625 -7.070312 2.40625 -6.875 L 2.40625 -6.375 C 2.65625 -6.757812 3.003906 -7.082031 3.453125 -7.34375 C 3.898438 -7.613281 4.378906 -7.75 4.890625 -7.75 Z M 4.890625 -7.75 "/></g></g></g><g fill="#373737" fill-opacity="1"><g transform="translate(295.147863, 241.592754)"><g><path d="M 7.171875 -10.703125 C 7.367188 -10.703125 7.53125 -10.632812 7.65625 -10.5 C 7.789062 -10.375 7.859375 -10.207031 7.859375 -10 L 7.859375 -0.6875 C 7.859375 -0.5 7.789062 -0.335938 7.65625 -0.203125 C 7.53125 -0.0664062 7.367188 0 7.171875 0 C 6.960938 0 6.796875 -0.0625 6.671875 -0.1875 C 6.546875 -0.320312 6.484375 -0.488281 6.484375 -0.6875 L 6.484375 -1.09375 C 6.242188 -0.75 5.90625 -0.457031 5.46875 -0.21875 C 5.03125 0.0195312 4.5625 0.140625 4.0625 0.140625 C 3.40625 0.140625 2.8125 -0.0234375 2.28125 -0.359375 C 1.75 -0.703125 1.328125 -1.171875 1.015625 -1.765625 C 0.710938 -2.367188 0.5625 -3.046875 0.5625 -3.796875 C 0.5625 -4.546875 0.710938 -5.222656 1.015625 -5.828125 C 1.316406 -6.429688 1.734375 -6.898438 2.265625 -7.234375 C 2.796875 -7.578125 3.378906 -7.75 4.015625 -7.75 C 4.523438 -7.75 4.992188 -7.640625 5.421875 -7.421875 C 5.859375 -7.210938 6.210938 -6.941406 6.484375 -6.609375 L 6.484375 -10 C 6.484375 -10.207031 6.546875 -10.375 6.671875 -10.5 C 6.796875 -10.632812 6.960938 -10.703125 7.171875 -10.703125 Z M 4.21875 -1.125 C 4.675781 -1.125 5.078125 -1.238281 5.421875 -1.46875 C 5.773438 -1.707031 6.050781 -2.023438 6.25 -2.421875 C 6.445312 -2.828125 6.546875 -3.285156 6.546875 -3.796875 C 6.546875 -4.296875 6.445312 -4.75 6.25 -5.15625 C 6.050781 -5.570312 5.773438 -5.894531 5.421875 -6.125 C 5.078125 -6.351562 4.675781 -6.46875 4.21875 -6.46875 C 3.769531 -6.46875 3.367188 -6.351562 3.015625 -6.125 C 2.660156 -5.894531 2.382812 -5.570312 2.1875 -5.15625 C 1.988281 -4.75 1.890625 -4.296875 1.890625 -3.796875 C 1.890625 -3.285156 1.988281 -2.828125 2.1875 -2.421875 C 2.382812 -2.023438 2.660156 -1.707031 3.015625 -1.46875 C 3.367188 -1.238281 3.769531 -1.125 4.21875 -1.125 Z M 4.21875 -1.125 "/></g></g></g><g fill="#373737" fill-opacity="1"><g transform="translate(307.054776, 241.592754)"><g><path d="M 7.171875 -7.671875 C 7.367188 -7.671875 7.53125 -7.601562 7.65625 -7.46875 C 7.789062 -7.34375 7.859375 -7.175781 7.859375 -6.96875 L 7.859375 -0.6875 C 7.859375 -0.5 7.789062 -0.335938 7.65625 -0.203125 C 7.53125 -0.0664062 7.367188 0 7.171875 0 C 6.960938 0 6.796875 -0.0625 6.671875 -0.1875 C 6.546875 -0.320312 6.484375 -0.488281 6.484375 -0.6875 L 6.484375 -1.0625 C 6.234375 -0.726562 5.890625 -0.441406 5.453125 -0.203125 C 5.023438 0.0234375 4.5625 0.140625 4.0625 0.140625 C 3.40625 0.140625 2.804688 -0.0234375 2.265625 -0.359375 C 1.734375 -0.703125 1.316406 -1.171875 1.015625 -1.765625 C 0.710938 -2.367188 0.5625 -3.046875 0.5625 -3.796875 C 0.5625 -4.546875 0.710938 -5.222656 1.015625 -5.828125 C 1.316406 -6.429688 1.734375 -6.898438 2.265625 -7.234375 C 2.796875 -7.578125 3.378906 -7.75 4.015625 -7.75 C 4.523438 -7.75 5 -7.640625 5.4375 -7.421875 C 5.875 -7.210938 6.222656 -6.945312 6.484375 -6.625 L 6.484375 -6.96875 C 6.484375 -7.164062 6.546875 -7.332031 6.671875 -7.46875 C 6.796875 -7.601562 6.960938 -7.671875 7.171875 -7.671875 Z M 4.21875 -1.125 C 4.675781 -1.125 5.078125 -1.238281 5.421875 -1.46875 C 5.773438 -1.707031 6.050781 -2.023438 6.25 -2.421875 C 6.445312 -2.828125 6.546875 -3.285156 6.546875 -3.796875 C 6.546875 -4.296875 6.445312 -4.75 6.25 -5.15625 C 6.050781 -5.5625 5.773438 -5.878906 5.421875 -6.109375 C 5.078125 -6.347656 4.675781 -6.46875 4.21875 -6.46875 C 3.769531 -6.46875 3.367188 -6.351562 3.015625 -6.125 C 2.660156 -5.894531 2.382812 -5.578125 2.1875 -5.171875 C 1.988281 -4.765625 1.890625 -4.304688 1.890625 -3.796875 C 1.890625 -3.285156 1.988281 -2.828125 2.1875 -2.421875 C 2.382812 -2.023438 2.660156 -1.707031 3.015625 -1.46875 C 3.367188 -1.238281 3.769531 -1.125 4.21875 -1.125 Z M 4.21875 -1.125 "/></g></g></g><g fill="#373737" fill-opacity="1"><g transform="translate(318.961712, 241.592754)"><g><path d="M 0.59375 -1.1875 C 0.507812 -1.320312 0.46875 -1.453125 0.46875 -1.578125 C 0.46875 -1.765625 0.566406 -1.925781 0.765625 -2.0625 C 0.859375 -2.132812 0.96875 -2.171875 1.09375 -2.171875 C 1.269531 -2.171875 1.429688 -2.097656 1.578125 -1.953125 C 1.867188 -1.617188 2.175781 -1.367188 2.5 -1.203125 C 2.832031 -1.046875 3.234375 -0.96875 3.703125 -0.96875 C 4.066406 -0.976562 4.390625 -1.0625 4.671875 -1.21875 C 4.953125 -1.375 5.09375 -1.632812 5.09375 -2 C 5.09375 -2.320312 4.945312 -2.566406 4.65625 -2.734375 C 4.375 -2.910156 3.957031 -3.070312 3.40625 -3.21875 C 2.875 -3.363281 2.425781 -3.515625 2.0625 -3.671875 C 1.707031 -3.835938 1.40625 -4.070312 1.15625 -4.375 C 0.914062 -4.675781 0.796875 -5.070312 0.796875 -5.5625 C 0.796875 -6 0.914062 -6.378906 1.15625 -6.703125 C 1.40625 -7.035156 1.734375 -7.289062 2.140625 -7.46875 C 2.554688 -7.65625 3.003906 -7.75 3.484375 -7.75 C 3.941406 -7.75 4.398438 -7.660156 4.859375 -7.484375 C 5.316406 -7.316406 5.691406 -7.050781 5.984375 -6.6875 C 6.097656 -6.550781 6.15625 -6.410156 6.15625 -6.265625 C 6.15625 -6.117188 6.078125 -5.972656 5.921875 -5.828125 C 5.828125 -5.734375 5.707031 -5.6875 5.5625 -5.6875 C 5.382812 -5.6875 5.242188 -5.75 5.140625 -5.875 C 4.941406 -6.101562 4.691406 -6.28125 4.390625 -6.40625 C 4.097656 -6.53125 3.773438 -6.59375 3.421875 -6.59375 C 3.054688 -6.59375 2.742188 -6.515625 2.484375 -6.359375 C 2.234375 -6.210938 2.109375 -5.960938 2.109375 -5.609375 C 2.117188 -5.273438 2.265625 -5.023438 2.546875 -4.859375 C 2.835938 -4.691406 3.273438 -4.53125 3.859375 -4.375 C 4.367188 -4.238281 4.789062 -4.09375 5.125 -3.9375 C 5.46875 -3.789062 5.753906 -3.5625 5.984375 -3.25 C 6.210938 -2.945312 6.328125 -2.550781 6.328125 -2.0625 C 6.328125 -1.613281 6.195312 -1.222656 5.9375 -0.890625 C 5.675781 -0.554688 5.335938 -0.300781 4.921875 -0.125 C 4.503906 0.0507812 4.054688 0.140625 3.578125 0.140625 C 2.972656 0.140625 2.410156 0.0351562 1.890625 -0.171875 C 1.378906 -0.378906 0.945312 -0.71875 0.59375 -1.1875 Z M 0.59375 -1.1875 "/></g></g></g></svg>