<svg xmlns="http://www.w3.org/2000/svg" xmlns:xlink="http://www.w3.org/1999/xlink" width="500" zoomAndPan="magnify" viewBox="0 0 375 374.999991" height="500" preserveAspectRatio="xMidYMid meet" version="1.0"><defs><g/><clipPath id="20f8ca5b39"><path d="M 8.484375 125.023438 L 47.484375 125.023438 L 47.484375 203.023438 L 8.484375 203.023438 Z M 8.484375 125.023438 " clip-rule="nonzero"/></clipPath><clipPath id="0910f1632c"><path d="M 47.65625 183.902344 L 47.65625 203.371094 C 26.019531 203.371094 8.484375 185.828125 8.484375 164.195312 C 8.484375 142.558594 26.019531 125.023438 47.65625 125.023438 L 47.65625 144.492188 C 36.773438 144.492188 27.949219 153.3125 27.949219 164.199219 C 27.949219 175.082031 36.773438 183.902344 47.65625 183.902344 Z M 47.65625 183.902344 " clip-rule="nonzero"/></clipPath><linearGradient x1="45.50488" gradientTransform="matrix(0.425361, 0, 0, 0.425361, 8.483367, 125.022337)" y1="183.908803" x2="47.674442" gradientUnits="userSpaceOnUse" y2="-0.517747" id="2b89182c64"><stop stop-opacity="1" stop-color="rgb(86.935425%, 26.792908%, 73.303223%)" offset="0"/><stop stop-opacity="1" stop-color="rgb(86.756897%, 26.782227%, 73.425293%)" offset="0.00584752"/><stop stop-opacity="1" stop-color="rgb(86.579895%, 26.773071%, 73.548889%)" offset="0.0078125"/><stop stop-opacity="1" stop-color="rgb(86.401367%, 26.763916%, 73.670959%)" offset="0.015625"/><stop stop-opacity="1" stop-color="rgb(86.045837%, 26.74408%, 73.9151%)" offset="0.0234375"/><stop stop-opacity="1" stop-color="rgb(85.690308%, 26.725769%, 74.160767%)" offset="0.03125"/><stop stop-opacity="1" stop-color="rgb(85.333252%, 26.705933%, 74.404907%)" offset="0.0390625"/><stop stop-opacity="1" stop-color="rgb(84.977722%, 26.687622%, 74.650574%)" offset="0.046875"/><stop stop-opacity="1" stop-color="rgb(84.622192%, 26.667786%, 74.89624%)" offset="0.0546875"/><stop stop-opacity="1" stop-color="rgb(84.266663%, 26.647949%, 75.140381%)" offset="0.0625"/><stop stop-opacity="1" stop-color="rgb(83.911133%, 26.629639%, 75.386047%)" offset="0.0703125"/><stop stop-opacity="1" stop-color="rgb(83.555603%, 26.609802%, 75.630188%)" offset="0.078125"/><stop stop-opacity="1" stop-color="rgb(83.200073%, 26.591492%, 75.875854%)" offset="0.0859375"/><stop stop-opacity="1" stop-color="rgb(82.844543%, 26.571655%, 76.119995%)" offset="0.09375"/><stop stop-opacity="1" stop-color="rgb(82.489014%, 26.551819%, 76.365662%)" offset="0.101562"/><stop stop-opacity="1" stop-color="rgb(82.133484%, 26.533508%, 76.611328%)" offset="0.109375"/><stop stop-opacity="1" stop-color="rgb(81.777954%, 26.513672%, 76.855469%)" offset="0.117188"/><stop stop-opacity="1" stop-color="rgb(81.422424%, 26.495361%, 77.101135%)" offset="0.125"/><stop stop-opacity="1" stop-color="rgb(81.066895%, 26.475525%, 77.345276%)" offset="0.132812"/><stop stop-opacity="1" stop-color="rgb(80.711365%, 26.455688%, 77.590942%)" offset="0.140625"/><stop stop-opacity="1" stop-color="rgb(80.355835%, 26.437378%, 77.836609%)" offset="0.148437"/><stop stop-opacity="1" stop-color="rgb(80.000305%, 26.417542%, 78.08075%)" offset="0.15625"/><stop stop-opacity="1" stop-color="rgb(79.644775%, 26.399231%, 78.326416%)" offset="0.164063"/><stop stop-opacity="1" stop-color="rgb(79.289246%, 26.379395%, 78.570557%)" offset="0.171875"/><stop stop-opacity="1" stop-color="rgb(78.933716%, 26.359558%, 78.816223%)" offset="0.179687"/><stop stop-opacity="1" stop-color="rgb(78.578186%, 26.341248%, 79.06189%)" offset="0.1875"/><stop stop-opacity="1" stop-color="rgb(78.222656%, 26.321411%, 79.30603%)" offset="0.195312"/><stop stop-opacity="1" stop-color="rgb(77.867126%, 26.303101%, 79.551697%)" offset="0.203125"/><stop stop-opacity="1" stop-color="rgb(77.511597%, 26.283264%, 79.795837%)" offset="0.210938"/><stop stop-opacity="1" stop-color="rgb(77.156067%, 26.263428%, 80.041504%)" offset="0.21875"/><stop stop-opacity="1" stop-color="rgb(76.800537%, 26.245117%, 80.28717%)" offset="0.226562"/><stop stop-opacity="1" stop-color="rgb(76.445007%, 26.225281%, 80.531311%)" offset="0.234375"/><stop stop-opacity="1" stop-color="rgb(76.089478%, 26.20697%, 80.776978%)" offset="0.242187"/><stop stop-opacity="1" stop-color="rgb(75.733948%, 26.187134%, 81.021118%)" offset="0.25"/><stop stop-opacity="1" stop-color="rgb(75.378418%, 26.167297%, 81.266785%)" offset="0.257812"/><stop stop-opacity="1" stop-color="rgb(75.022888%, 26.148987%, 81.510925%)" offset="0.265625"/><stop stop-opacity="1" stop-color="rgb(74.667358%, 26.12915%, 81.756592%)" offset="0.273437"/><stop stop-opacity="1" stop-color="rgb(74.311829%, 26.11084%, 82.002258%)" offset="0.28125"/><stop stop-opacity="1" stop-color="rgb(73.956299%, 26.091003%, 82.246399%)" offset="0.289062"/><stop stop-opacity="1" stop-color="rgb(73.600769%, 26.071167%, 82.492065%)" offset="0.296875"/><stop stop-opacity="1" stop-color="rgb(73.245239%, 26.052856%, 82.736206%)" offset="0.304688"/><stop stop-opacity="1" stop-color="rgb(72.889709%, 26.03302%, 82.981873%)" offset="0.3125"/><stop stop-opacity="1" stop-color="rgb(72.53418%, 26.014709%, 83.227539%)" offset="0.320312"/><stop stop-opacity="1" stop-color="rgb(72.17865%, 25.994873%, 83.47168%)" offset="0.328125"/><stop stop-opacity="1" stop-color="rgb(71.82312%, 25.975037%, 83.717346%)" offset="0.335937"/><stop stop-opacity="1" stop-color="rgb(71.46759%, 25.956726%, 83.961487%)" offset="0.34375"/><stop stop-opacity="1" stop-color="rgb(71.112061%, 25.93689%, 84.207153%)" offset="0.351562"/><stop stop-opacity="1" stop-color="rgb(70.756531%, 25.918579%, 84.45282%)" offset="0.359375"/><stop stop-opacity="1" stop-color="rgb(70.401001%, 25.898743%, 84.69696%)" offset="0.367187"/><stop stop-opacity="1" stop-color="rgb(70.045471%, 25.880432%, 84.942627%)" offset="0.375"/><stop stop-opacity="1" stop-color="rgb(69.689941%, 25.860596%, 85.186768%)" offset="0.382812"/><stop stop-opacity="1" stop-color="rgb(69.334412%, 25.840759%, 85.432434%)" offset="0.390625"/><stop stop-opacity="1" stop-color="rgb(68.978882%, 25.822449%, 85.678101%)" offset="0.398438"/><stop stop-opacity="1" stop-color="rgb(68.623352%, 25.802612%, 85.922241%)" offset="0.40625"/><stop stop-opacity="1" stop-color="rgb(68.267822%, 25.784302%, 86.167908%)" offset="0.414062"/><stop stop-opacity="1" stop-color="rgb(67.912292%, 25.764465%, 86.412048%)" offset="0.421875"/><stop stop-opacity="1" stop-color="rgb(67.556763%, 25.744629%, 86.657715%)" offset="0.429687"/><stop stop-opacity="1" stop-color="rgb(67.201233%, 25.726318%, 86.901855%)" offset="0.4375"/><stop stop-opacity="1" stop-color="rgb(66.845703%, 25.706482%, 87.147522%)" offset="0.445313"/><stop stop-opacity="1" stop-color="rgb(66.490173%, 25.688171%, 87.393188%)" offset="0.453125"/><stop stop-opacity="1" stop-color="rgb(66.134644%, 25.668335%, 87.637329%)" offset="0.460938"/><stop stop-opacity="1" stop-color="rgb(65.779114%, 25.648499%, 87.882996%)" offset="0.46875"/><stop stop-opacity="1" stop-color="rgb(65.423584%, 25.630188%, 88.127136%)" offset="0.476562"/><stop stop-opacity="1" stop-color="rgb(65.068054%, 25.610352%, 88.372803%)" offset="0.484375"/><stop stop-opacity="1" stop-color="rgb(64.712524%, 25.592041%, 88.618469%)" offset="0.492188"/><stop stop-opacity="1" stop-color="rgb(64.356995%, 25.572205%, 88.86261%)" offset="0.5"/><stop stop-opacity="1" stop-color="rgb(64.001465%, 25.552368%, 89.108276%)" offset="0.507812"/><stop stop-opacity="1" stop-color="rgb(63.645935%, 25.534058%, 89.352417%)" offset="0.515625"/><stop stop-opacity="1" stop-color="rgb(63.290405%, 25.514221%, 89.598083%)" offset="0.523438"/><stop stop-opacity="1" stop-color="rgb(62.934875%, 25.495911%, 89.84375%)" offset="0.53125"/><stop stop-opacity="1" stop-color="rgb(62.579346%, 25.476074%, 90.087891%)" offset="0.539062"/><stop stop-opacity="1" stop-color="rgb(62.223816%, 25.456238%, 90.333557%)" offset="0.546875"/><stop stop-opacity="1" stop-color="rgb(61.86676%, 25.437927%, 90.577698%)" offset="0.554688"/><stop stop-opacity="1" stop-color="rgb(61.51123%, 25.418091%, 90.823364%)" offset="0.5625"/><stop stop-opacity="1" stop-color="rgb(61.155701%, 25.39978%, 91.069031%)" offset="0.570313"/><stop stop-opacity="1" stop-color="rgb(60.800171%, 25.379944%, 91.313171%)" offset="0.578125"/><stop stop-opacity="1" stop-color="rgb(60.444641%, 25.360107%, 91.558838%)" offset="0.585938"/><stop stop-opacity="1" stop-color="rgb(60.089111%, 25.341797%, 91.802979%)" offset="0.59375"/><stop stop-opacity="1" stop-color="rgb(59.733582%, 25.32196%, 92.048645%)" offset="0.601562"/><stop stop-opacity="1" stop-color="rgb(59.378052%, 25.30365%, 92.292786%)" offset="0.609375"/><stop stop-opacity="1" stop-color="rgb(59.022522%, 25.283813%, 92.538452%)" offset="0.617188"/><stop stop-opacity="1" stop-color="rgb(58.666992%, 25.263977%, 92.784119%)" offset="0.625"/><stop stop-opacity="1" stop-color="rgb(58.311462%, 25.245667%, 93.028259%)" offset="0.632812"/><stop stop-opacity="1" stop-color="rgb(57.955933%, 25.22583%, 93.273926%)" offset="0.640625"/><stop stop-opacity="1" stop-color="rgb(57.600403%, 25.20752%, 93.518066%)" offset="0.648438"/><stop stop-opacity="1" stop-color="rgb(57.244873%, 25.187683%, 93.763733%)" offset="0.65625"/><stop stop-opacity="1" stop-color="rgb(56.889343%, 25.167847%, 94.009399%)" offset="0.664063"/><stop stop-opacity="1" stop-color="rgb(56.533813%, 25.149536%, 94.25354%)" offset="0.671875"/><stop stop-opacity="1" stop-color="rgb(56.178284%, 25.1297%, 94.499207%)" offset="0.679688"/><stop stop-opacity="1" stop-color="rgb(55.822754%, 25.111389%, 94.743347%)" offset="0.6875"/><stop stop-opacity="1" stop-color="rgb(55.467224%, 25.091553%, 94.989014%)" offset="0.695312"/><stop stop-opacity="1" stop-color="rgb(55.111694%, 25.073242%, 95.23468%)" offset="0.703125"/><stop stop-opacity="1" stop-color="rgb(54.756165%, 25.053406%, 95.478821%)" offset="0.710938"/><stop stop-opacity="1" stop-color="rgb(54.400635%, 25.033569%, 95.724487%)" offset="0.71875"/><stop stop-opacity="1" stop-color="rgb(54.045105%, 25.015259%, 95.968628%)" offset="0.726562"/><stop stop-opacity="1" stop-color="rgb(53.689575%, 24.995422%, 96.214294%)" offset="0.734375"/><stop stop-opacity="1" stop-color="rgb(53.334045%, 24.977112%, 96.459961%)" offset="0.742188"/><stop stop-opacity="1" stop-color="rgb(52.978516%, 24.957275%, 96.704102%)" offset="0.75"/><stop stop-opacity="1" stop-color="rgb(52.622986%, 24.937439%, 96.949768%)" offset="0.757813"/><stop stop-opacity="1" stop-color="rgb(52.267456%, 24.919128%, 97.193909%)" offset="0.765625"/><stop stop-opacity="1" stop-color="rgb(51.911926%, 24.899292%, 97.439575%)" offset="0.773438"/><stop stop-opacity="1" stop-color="rgb(51.556396%, 24.880981%, 97.685242%)" offset="0.78125"/><stop stop-opacity="1" stop-color="rgb(51.200867%, 24.861145%, 97.929382%)" offset="0.789062"/><stop stop-opacity="1" stop-color="rgb(50.845337%, 24.841309%, 98.175049%)" offset="0.796875"/><stop stop-opacity="1" stop-color="rgb(50.489807%, 24.822998%, 98.419189%)" offset="0.804688"/><stop stop-opacity="1" stop-color="rgb(50.134277%, 24.803162%, 98.664856%)" offset="0.8125"/><stop stop-opacity="1" stop-color="rgb(49.778748%, 24.784851%, 98.908997%)" offset="0.820312"/><stop stop-opacity="1" stop-color="rgb(49.423218%, 24.765015%, 99.154663%)" offset="0.828125"/><stop stop-opacity="1" stop-color="rgb(49.067688%, 24.745178%, 99.40033%)" offset="0.835938"/><stop stop-opacity="1" stop-color="rgb(48.712158%, 24.726868%, 99.64447%)" offset="0.84375"/><stop stop-opacity="1" stop-color="rgb(48.36731%, 24.708557%, 99.884033%)" offset="0.875"/><stop stop-opacity="1" stop-color="rgb(48.199463%, 24.699402%, 100%)" offset="0.994152"/><stop stop-opacity="1" stop-color="rgb(48.199463%, 24.699402%, 100%)" offset="1"/></linearGradient><clipPath id="58bd109a9a"><path d="M 28.070312 143.199219 L 99.320312 143.199219 L 99.320312 214.449219 L 28.070312 214.449219 Z M 28.070312 143.199219 " clip-rule="nonzero"/></clipPath><clipPath id="b698b7fc2d"><path d="M 99.644531 143.199219 L 99.644531 214.769531 L 28.070312 214.769531 C 28.070312 175.242188 60.117188 143.199219 99.644531 143.199219 Z M 99.644531 143.199219 " clip-rule="nonzero"/></clipPath><linearGradient x1="12.287775" gradientTransform="matrix(0.556937, 0, 0, 0.556937, 28.071259, 143.197537)" y1="-8.747166" x2="115.754645" gradientUnits="userSpaceOnUse" y2="136.600327" id="7109282247"><stop stop-opacity="1" stop-color="rgb(99.198914%, 78.399658%, 18.798828%)" offset="0"/><stop stop-opacity="1" stop-color="rgb(99.198914%, 78.399658%, 18.798828%)" offset="0.125"/><stop stop-opacity="1" stop-color="rgb(99.198914%, 78.399658%, 18.798828%)" offset="0.1875"/><stop stop-opacity="1" stop-color="rgb(99.201965%, 78.225708%, 18.952942%)" offset="0.21875"/><stop stop-opacity="1" stop-color="rgb(99.209595%, 77.748108%, 19.380188%)" offset="0.222656"/><stop stop-opacity="1" stop-color="rgb(99.214172%, 77.442932%, 19.65332%)" offset="0.226562"/><stop stop-opacity="1" stop-color="rgb(99.21875%, 77.137756%, 19.924927%)" offset="0.230469"/><stop stop-opacity="1" stop-color="rgb(99.223328%, 76.834106%, 20.198059%)" offset="0.234375"/><stop stop-opacity="1" stop-color="rgb(99.227905%, 76.528931%, 20.471191%)" offset="0.238281"/><stop stop-opacity="1" stop-color="rgb(99.234009%, 76.223755%, 20.744324%)" offset="0.242187"/><stop stop-opacity="1" stop-color="rgb(99.238586%, 75.918579%, 21.01593%)" offset="0.246094"/><stop stop-opacity="1" stop-color="rgb(99.243164%, 75.613403%, 21.289062%)" offset="0.25"/><stop stop-opacity="1" stop-color="rgb(99.247742%, 75.308228%, 21.560669%)" offset="0.253906"/><stop stop-opacity="1" stop-color="rgb(99.252319%, 75.004578%, 21.833801%)" offset="0.257812"/><stop stop-opacity="1" stop-color="rgb(99.256897%, 74.699402%, 22.106934%)" offset="0.261719"/><stop stop-opacity="1" stop-color="rgb(99.261475%, 74.394226%, 22.380066%)" offset="0.265625"/><stop stop-opacity="1" stop-color="rgb(99.266052%, 74.08905%, 22.651672%)" offset="0.269531"/><stop stop-opacity="1" stop-color="rgb(99.272156%, 73.783875%, 22.924805%)" offset="0.273438"/><stop stop-opacity="1" stop-color="rgb(99.276733%, 73.478699%, 23.196411%)" offset="0.277344"/><stop stop-opacity="1" stop-color="rgb(99.281311%, 73.175049%, 23.469543%)" offset="0.28125"/><stop stop-opacity="1" stop-color="rgb(99.285889%, 72.869873%, 23.742676%)" offset="0.285156"/><stop stop-opacity="1" stop-color="rgb(99.290466%, 72.564697%, 24.015808%)" offset="0.289062"/><stop stop-opacity="1" stop-color="rgb(99.295044%, 72.259521%, 24.287415%)" offset="0.292969"/><stop stop-opacity="1" stop-color="rgb(99.301147%, 71.954346%, 24.560547%)" offset="0.296875"/><stop stop-opacity="1" stop-color="rgb(99.305725%, 71.64917%, 24.832153%)" offset="0.300781"/><stop stop-opacity="1" stop-color="rgb(99.310303%, 71.343994%, 25.105286%)" offset="0.304688"/><stop stop-opacity="1" stop-color="rgb(99.31488%, 71.038818%, 25.376892%)" offset="0.308594"/><stop stop-opacity="1" stop-color="rgb(99.319458%, 70.735168%, 25.650024%)" offset="0.3125"/><stop stop-opacity="1" stop-color="rgb(99.324036%, 70.429993%, 25.923157%)" offset="0.316406"/><stop stop-opacity="1" stop-color="rgb(99.328613%, 70.124817%, 26.196289%)" offset="0.320312"/><stop stop-opacity="1" stop-color="rgb(99.333191%, 69.819641%, 26.467896%)" offset="0.324219"/><stop stop-opacity="1" stop-color="rgb(99.339294%, 69.514465%, 26.741028%)" offset="0.328125"/><stop stop-opacity="1" stop-color="rgb(99.343872%, 69.20929%, 27.012634%)" offset="0.332031"/><stop stop-opacity="1" stop-color="rgb(99.34845%, 68.90564%, 27.285767%)" offset="0.335938"/><stop stop-opacity="1" stop-color="rgb(99.353027%, 68.600464%, 27.558899%)" offset="0.339844"/><stop stop-opacity="1" stop-color="rgb(99.357605%, 68.295288%, 27.832031%)" offset="0.34375"/><stop stop-opacity="1" stop-color="rgb(99.362183%, 67.990112%, 28.103638%)" offset="0.347656"/><stop stop-opacity="1" stop-color="rgb(99.368286%, 67.684937%, 28.37677%)" offset="0.351562"/><stop stop-opacity="1" stop-color="rgb(99.372864%, 67.379761%, 28.648376%)" offset="0.355469"/><stop stop-opacity="1" stop-color="rgb(99.377441%, 67.074585%, 28.921509%)" offset="0.359375"/><stop stop-opacity="1" stop-color="rgb(99.382019%, 66.769409%, 29.194641%)" offset="0.363281"/><stop stop-opacity="1" stop-color="rgb(99.386597%, 66.465759%, 29.467773%)" offset="0.367188"/><stop stop-opacity="1" stop-color="rgb(99.391174%, 66.160583%, 29.73938%)" offset="0.371094"/><stop stop-opacity="1" stop-color="rgb(99.395752%, 65.855408%, 30.012512%)" offset="0.375"/><stop stop-opacity="1" stop-color="rgb(99.40033%, 65.550232%, 30.284119%)" offset="0.378906"/><stop stop-opacity="1" stop-color="rgb(99.406433%, 65.245056%, 30.557251%)" offset="0.382812"/><stop stop-opacity="1" stop-color="rgb(99.411011%, 64.93988%, 30.828857%)" offset="0.386719"/><stop stop-opacity="1" stop-color="rgb(99.415588%, 64.63623%, 31.10199%)" offset="0.390625"/><stop stop-opacity="1" stop-color="rgb(99.420166%, 64.331055%, 31.375122%)" offset="0.394531"/><stop stop-opacity="1" stop-color="rgb(99.424744%, 64.025879%, 31.648254%)" offset="0.398438"/><stop stop-opacity="1" stop-color="rgb(99.429321%, 63.720703%, 31.919861%)" offset="0.402344"/><stop stop-opacity="1" stop-color="rgb(99.435425%, 63.415527%, 32.192993%)" offset="0.40625"/><stop stop-opacity="1" stop-color="rgb(99.440002%, 63.110352%, 32.4646%)" offset="0.410156"/><stop stop-opacity="1" stop-color="rgb(99.44458%, 62.805176%, 32.737732%)" offset="0.414062"/><stop stop-opacity="1" stop-color="rgb(99.449158%, 62.5%, 33.010864%)" offset="0.417969"/><stop stop-opacity="1" stop-color="rgb(99.453735%, 62.19635%, 33.283997%)" offset="0.421875"/><stop stop-opacity="1" stop-color="rgb(99.458313%, 61.891174%, 33.555603%)" offset="0.425781"/><stop stop-opacity="1" stop-color="rgb(99.462891%, 61.585999%, 33.828735%)" offset="0.429687"/><stop stop-opacity="1" stop-color="rgb(99.467468%, 61.280823%, 34.100342%)" offset="0.433594"/><stop stop-opacity="1" stop-color="rgb(99.473572%, 60.975647%, 34.373474%)" offset="0.4375"/><stop stop-opacity="1" stop-color="rgb(99.478149%, 60.670471%, 34.646606%)" offset="0.441406"/><stop stop-opacity="1" stop-color="rgb(99.482727%, 60.366821%, 34.919739%)" offset="0.445312"/><stop stop-opacity="1" stop-color="rgb(99.487305%, 60.061646%, 35.191345%)" offset="0.449219"/><stop stop-opacity="1" stop-color="rgb(99.491882%, 59.75647%, 35.464478%)" offset="0.453125"/><stop stop-opacity="1" stop-color="rgb(99.49646%, 59.451294%, 35.736084%)" offset="0.457031"/><stop stop-opacity="1" stop-color="rgb(99.502563%, 59.146118%, 36.009216%)" offset="0.460937"/><stop stop-opacity="1" stop-color="rgb(99.507141%, 58.840942%, 36.280823%)" offset="0.464844"/><stop stop-opacity="1" stop-color="rgb(99.511719%, 58.537292%, 36.553955%)" offset="0.46875"/><stop stop-opacity="1" stop-color="rgb(99.516296%, 58.232117%, 36.827087%)" offset="0.472656"/><stop stop-opacity="1" stop-color="rgb(99.520874%, 57.926941%, 37.10022%)" offset="0.476562"/><stop stop-opacity="1" stop-color="rgb(99.525452%, 57.621765%, 37.371826%)" offset="0.480469"/><stop stop-opacity="1" stop-color="rgb(99.530029%, 57.316589%, 37.644958%)" offset="0.484375"/><stop stop-opacity="1" stop-color="rgb(99.534607%, 57.011414%, 37.916565%)" offset="0.488281"/><stop stop-opacity="1" stop-color="rgb(99.54071%, 56.706238%, 38.189697%)" offset="0.492188"/><stop stop-opacity="1" stop-color="rgb(99.545288%, 56.401062%, 38.46283%)" offset="0.496094"/><stop stop-opacity="1" stop-color="rgb(99.549866%, 56.097412%, 38.735962%)" offset="0.5"/><stop stop-opacity="1" stop-color="rgb(99.554443%, 55.792236%, 39.007568%)" offset="0.503906"/><stop stop-opacity="1" stop-color="rgb(99.559021%, 55.487061%, 39.280701%)" offset="0.507812"/><stop stop-opacity="1" stop-color="rgb(99.563599%, 55.181885%, 39.552307%)" offset="0.511719"/><stop stop-opacity="1" stop-color="rgb(99.568176%, 54.876709%, 39.825439%)" offset="0.515625"/><stop stop-opacity="1" stop-color="rgb(99.572754%, 54.571533%, 40.098572%)" offset="0.519531"/><stop stop-opacity="1" stop-color="rgb(99.578857%, 54.267883%, 40.371704%)" offset="0.523438"/><stop stop-opacity="1" stop-color="rgb(99.583435%, 53.962708%, 40.643311%)" offset="0.527344"/><stop stop-opacity="1" stop-color="rgb(99.588013%, 53.657532%, 40.916443%)" offset="0.53125"/><stop stop-opacity="1" stop-color="rgb(99.59259%, 53.352356%, 41.188049%)" offset="0.535156"/><stop stop-opacity="1" stop-color="rgb(99.597168%, 53.04718%, 41.461182%)" offset="0.539062"/><stop stop-opacity="1" stop-color="rgb(99.601746%, 52.742004%, 41.732788%)" offset="0.542969"/><stop stop-opacity="1" stop-color="rgb(99.607849%, 52.436829%, 42.00592%)" offset="0.546875"/><stop stop-opacity="1" stop-color="rgb(99.612427%, 52.131653%, 42.279053%)" offset="0.550781"/><stop stop-opacity="1" stop-color="rgb(99.617004%, 51.828003%, 42.552185%)" offset="0.554688"/><stop stop-opacity="1" stop-color="rgb(99.621582%, 51.522827%, 42.823792%)" offset="0.558594"/><stop stop-opacity="1" stop-color="rgb(99.62616%, 51.217651%, 43.096924%)" offset="0.5625"/><stop stop-opacity="1" stop-color="rgb(99.630737%, 50.912476%, 43.36853%)" offset="0.566406"/><stop stop-opacity="1" stop-color="rgb(99.635315%, 50.6073%, 43.641663%)" offset="0.570312"/><stop stop-opacity="1" stop-color="rgb(99.639893%, 50.302124%, 43.914795%)" offset="0.574219"/><stop stop-opacity="1" stop-color="rgb(99.645996%, 49.998474%, 44.187927%)" offset="0.578125"/><stop stop-opacity="1" stop-color="rgb(99.650574%, 49.693298%, 44.459534%)" offset="0.582031"/><stop stop-opacity="1" stop-color="rgb(99.655151%, 49.388123%, 44.732666%)" offset="0.585938"/><stop stop-opacity="1" stop-color="rgb(99.659729%, 49.082947%, 45.004272%)" offset="0.589844"/><stop stop-opacity="1" stop-color="rgb(99.664307%, 48.777771%, 45.277405%)" offset="0.59375"/><stop stop-opacity="1" stop-color="rgb(99.668884%, 48.472595%, 45.550537%)" offset="0.597656"/><stop stop-opacity="1" stop-color="rgb(99.674988%, 48.167419%, 45.823669%)" offset="0.601562"/><stop stop-opacity="1" stop-color="rgb(99.679565%, 47.862244%, 46.095276%)" offset="0.605469"/><stop stop-opacity="1" stop-color="rgb(99.684143%, 47.558594%, 46.368408%)" offset="0.609375"/><stop stop-opacity="1" stop-color="rgb(99.688721%, 47.253418%, 46.640015%)" offset="0.613281"/><stop stop-opacity="1" stop-color="rgb(99.693298%, 46.948242%, 46.913147%)" offset="0.617188"/><stop stop-opacity="1" stop-color="rgb(99.697876%, 46.643066%, 47.186279%)" offset="0.621094"/><stop stop-opacity="1" stop-color="rgb(99.702454%, 46.337891%, 47.459412%)" offset="0.625"/><stop stop-opacity="1" stop-color="rgb(99.707031%, 46.032715%, 47.731018%)" offset="0.628906"/><stop stop-opacity="1" stop-color="rgb(99.713135%, 45.729065%, 48.00415%)" offset="0.632813"/><stop stop-opacity="1" stop-color="rgb(99.717712%, 45.423889%, 48.275757%)" offset="0.636719"/><stop stop-opacity="1" stop-color="rgb(99.72229%, 45.118713%, 48.548889%)" offset="0.640625"/><stop stop-opacity="1" stop-color="rgb(99.726868%, 44.813538%, 48.820496%)" offset="0.644531"/><stop stop-opacity="1" stop-color="rgb(99.731445%, 44.508362%, 49.093628%)" offset="0.648438"/><stop stop-opacity="1" stop-color="rgb(99.736023%, 44.203186%, 49.36676%)" offset="0.652344"/><stop stop-opacity="1" stop-color="rgb(99.742126%, 43.899536%, 49.639893%)" offset="0.65625"/><stop stop-opacity="1" stop-color="rgb(99.746704%, 43.59436%, 49.911499%)" offset="0.660156"/><stop stop-opacity="1" stop-color="rgb(99.751282%, 43.289185%, 50.184631%)" offset="0.664062"/><stop stop-opacity="1" stop-color="rgb(99.755859%, 42.984009%, 50.456238%)" offset="0.667969"/><stop stop-opacity="1" stop-color="rgb(99.760437%, 42.678833%, 50.72937%)" offset="0.671875"/><stop stop-opacity="1" stop-color="rgb(99.765015%, 42.373657%, 51.002502%)" offset="0.675781"/><stop stop-opacity="1" stop-color="rgb(99.769592%, 42.068481%, 51.275635%)" offset="0.679688"/><stop stop-opacity="1" stop-color="rgb(99.77417%, 41.763306%, 51.547241%)" offset="0.683594"/><stop stop-opacity="1" stop-color="rgb(99.780273%, 41.459656%, 51.820374%)" offset="0.6875"/><stop stop-opacity="1" stop-color="rgb(99.784851%, 41.15448%, 52.09198%)" offset="0.691406"/><stop stop-opacity="1" stop-color="rgb(99.789429%, 40.849304%, 52.365112%)" offset="0.695313"/><stop stop-opacity="1" stop-color="rgb(99.794006%, 40.544128%, 52.638245%)" offset="0.699219"/><stop stop-opacity="1" stop-color="rgb(99.798584%, 40.238953%, 52.911377%)" offset="0.703125"/><stop stop-opacity="1" stop-color="rgb(99.803162%, 39.933777%, 53.182983%)" offset="0.707031"/><stop stop-opacity="1" stop-color="rgb(99.809265%, 39.630127%, 53.456116%)" offset="0.710938"/><stop stop-opacity="1" stop-color="rgb(99.813843%, 39.324951%, 53.727722%)" offset="0.714844"/><stop stop-opacity="1" stop-color="rgb(99.81842%, 39.019775%, 54.000854%)" offset="0.71875"/><stop stop-opacity="1" stop-color="rgb(99.822998%, 38.7146%, 54.272461%)" offset="0.722656"/><stop stop-opacity="1" stop-color="rgb(99.827576%, 38.409424%, 54.545593%)" offset="0.726562"/><stop stop-opacity="1" stop-color="rgb(99.832153%, 38.104248%, 54.818726%)" offset="0.730469"/><stop stop-opacity="1" stop-color="rgb(99.836731%, 37.799072%, 55.091858%)" offset="0.734375"/><stop stop-opacity="1" stop-color="rgb(99.841309%, 37.493896%, 55.363464%)" offset="0.738281"/><stop stop-opacity="1" stop-color="rgb(99.847412%, 37.190247%, 55.636597%)" offset="0.742188"/><stop stop-opacity="1" stop-color="rgb(99.85199%, 36.885071%, 55.908203%)" offset="0.746094"/><stop stop-opacity="1" stop-color="rgb(99.856567%, 36.579895%, 56.181335%)" offset="0.75"/><stop stop-opacity="1" stop-color="rgb(99.861145%, 36.274719%, 56.454468%)" offset="0.753906"/><stop stop-opacity="1" stop-color="rgb(99.865723%, 35.969543%, 56.7276%)" offset="0.757812"/><stop stop-opacity="1" stop-color="rgb(99.8703%, 35.664368%, 56.999207%)" offset="0.761719"/><stop stop-opacity="1" stop-color="rgb(99.876404%, 35.360718%, 57.272339%)" offset="0.765625"/><stop stop-opacity="1" stop-color="rgb(99.880981%, 35.055542%, 57.543945%)" offset="0.769531"/><stop stop-opacity="1" stop-color="rgb(99.885559%, 34.750366%, 57.817078%)" offset="0.773438"/><stop stop-opacity="1" stop-color="rgb(99.890137%, 34.44519%, 58.09021%)" offset="0.777344"/><stop stop-opacity="1" stop-color="rgb(99.894714%, 34.140015%, 58.363342%)" offset="0.78125"/><stop stop-opacity="1" stop-color="rgb(99.899292%, 33.834839%, 58.634949%)" offset="0.785156"/><stop stop-opacity="1" stop-color="rgb(99.90387%, 33.529663%, 58.908081%)" offset="0.789062"/><stop stop-opacity="1" stop-color="rgb(99.908447%, 33.224487%, 59.179688%)" offset="0.792969"/><stop stop-opacity="1" stop-color="rgb(99.914551%, 32.920837%, 59.45282%)" offset="0.796875"/><stop stop-opacity="1" stop-color="rgb(99.919128%, 32.615662%, 59.724426%)" offset="0.800781"/><stop stop-opacity="1" stop-color="rgb(99.923706%, 32.310486%, 59.997559%)" offset="0.804687"/><stop stop-opacity="1" stop-color="rgb(99.928284%, 32.00531%, 60.270691%)" offset="0.808594"/><stop stop-opacity="1" stop-color="rgb(99.932861%, 31.700134%, 60.543823%)" offset="0.8125"/><stop stop-opacity="1" stop-color="rgb(99.937439%, 31.394958%, 60.81543%)" offset="0.816406"/><stop stop-opacity="1" stop-color="rgb(99.943542%, 31.091309%, 61.088562%)" offset="0.820312"/><stop stop-opacity="1" stop-color="rgb(99.94812%, 30.786133%, 61.360168%)" offset="0.824219"/><stop stop-opacity="1" stop-color="rgb(99.952698%, 30.480957%, 61.633301%)" offset="0.828125"/><stop stop-opacity="1" stop-color="rgb(99.957275%, 30.175781%, 61.906433%)" offset="0.832031"/><stop stop-opacity="1" stop-color="rgb(99.961853%, 29.870605%, 62.179565%)" offset="0.835938"/><stop stop-opacity="1" stop-color="rgb(99.966431%, 29.56543%, 62.451172%)" offset="0.839844"/><stop stop-opacity="1" stop-color="rgb(99.971008%, 29.26178%, 62.724304%)" offset="0.84375"/><stop stop-opacity="1" stop-color="rgb(99.975586%, 28.956604%, 62.995911%)" offset="0.847656"/><stop stop-opacity="1" stop-color="rgb(99.981689%, 28.651428%, 63.269043%)" offset="0.851562"/><stop stop-opacity="1" stop-color="rgb(99.986267%, 28.346252%, 63.542175%)" offset="0.855469"/><stop stop-opacity="1" stop-color="rgb(99.990845%, 28.041077%, 63.815308%)" offset="0.859375"/><stop stop-opacity="1" stop-color="rgb(99.995422%, 27.76947%, 64.056396%)" offset="0.863281"/><stop stop-opacity="1" stop-color="rgb(100%, 27.49939%, 64.299011%)" offset="0.867187"/><stop stop-opacity="1" stop-color="rgb(100%, 27.49939%, 64.299011%)" offset="0.875"/><stop stop-opacity="1" stop-color="rgb(100%, 27.49939%, 64.299011%)" offset="1"/></linearGradient><clipPath id="7ab7953093"><path d="M 46.726562 125.035156 L 86.476562 125.035156 L 86.476562 204.523438 L 46.726562 204.523438 Z M 46.726562 125.035156 " clip-rule="nonzero"/></clipPath><clipPath id="8a295bb555"><path d="M 46.734375 144.785156 L 46.734375 125.03125 C 68.683594 125.03125 86.476562 142.832031 86.476562 164.78125 C 86.476562 186.734375 68.683594 204.527344 46.734375 204.527344 L 46.734375 184.773438 C 57.773438 184.773438 66.726562 175.824219 66.726562 164.777344 C 66.726562 153.734375 57.773438 144.785156 46.734375 144.785156 Z M 46.734375 144.785156 " clip-rule="nonzero"/></clipPath><linearGradient x1="45.495318" gradientTransform="matrix(-0.431596, 0, 0, -0.431596, 86.47822, 204.528215)" y1="184.721626" x2="47.674338" gradientUnits="userSpaceOnUse" y2="-0.508873" id="2a9b5f88d4"><stop stop-opacity="1" stop-color="rgb(99.397278%, 65.759277%, 30.097961%)" offset="0"/><stop stop-opacity="1" stop-color="rgb(99.40033%, 65.583801%, 30.255127%)" offset="0.00584775"/><stop stop-opacity="1" stop-color="rgb(99.403381%, 65.408325%, 30.412292%)" offset="0.0078125"/><stop stop-opacity="1" stop-color="rgb(99.406433%, 65.232849%, 30.569458%)" offset="0.015625"/><stop stop-opacity="1" stop-color="rgb(99.411011%, 64.881897%, 30.882263%)" offset="0.0234375"/><stop stop-opacity="1" stop-color="rgb(99.417114%, 64.530945%, 31.196594%)" offset="0.03125"/><stop stop-opacity="1" stop-color="rgb(99.421692%, 64.179993%, 31.509399%)" offset="0.0390625"/><stop stop-opacity="1" stop-color="rgb(99.427795%, 63.829041%, 31.82373%)" offset="0.046875"/><stop stop-opacity="1" stop-color="rgb(99.433899%, 63.478088%, 32.136536%)" offset="0.0546875"/><stop stop-opacity="1" stop-color="rgb(99.438477%, 63.127136%, 32.450867%)" offset="0.0625"/><stop stop-opacity="1" stop-color="rgb(99.44458%, 62.776184%, 32.765198%)" offset="0.0703125"/><stop stop-opacity="1" stop-color="rgb(99.450684%, 62.425232%, 33.078003%)" offset="0.078125"/><stop stop-opacity="1" stop-color="rgb(99.455261%, 62.07428%, 33.392334%)" offset="0.0859375"/><stop stop-opacity="1" stop-color="rgb(99.461365%, 61.723328%, 33.705139%)" offset="0.09375"/><stop stop-opacity="1" stop-color="rgb(99.465942%, 61.372375%, 34.01947%)" offset="0.101563"/><stop stop-opacity="1" stop-color="rgb(99.472046%, 61.021423%, 34.332275%)" offset="0.109375"/><stop stop-opacity="1" stop-color="rgb(99.478149%, 60.670471%, 34.646606%)" offset="0.117187"/><stop stop-opacity="1" stop-color="rgb(99.482727%, 60.319519%, 34.960938%)" offset="0.125"/><stop stop-opacity="1" stop-color="rgb(99.488831%, 59.968567%, 35.273743%)" offset="0.132812"/><stop stop-opacity="1" stop-color="rgb(99.493408%, 59.617615%, 35.588074%)" offset="0.140625"/><stop stop-opacity="1" stop-color="rgb(99.499512%, 59.266663%, 35.900879%)" offset="0.148437"/><stop stop-opacity="1" stop-color="rgb(99.505615%, 58.91571%, 36.21521%)" offset="0.15625"/><stop stop-opacity="1" stop-color="rgb(99.510193%, 58.564758%, 36.528015%)" offset="0.164062"/><stop stop-opacity="1" stop-color="rgb(99.516296%, 58.213806%, 36.842346%)" offset="0.171875"/><stop stop-opacity="1" stop-color="rgb(99.5224%, 57.862854%, 37.155151%)" offset="0.179688"/><stop stop-opacity="1" stop-color="rgb(99.526978%, 57.513428%, 37.469482%)" offset="0.1875"/><stop stop-opacity="1" stop-color="rgb(99.533081%, 57.162476%, 37.783813%)" offset="0.195312"/><stop stop-opacity="1" stop-color="rgb(99.537659%, 56.811523%, 38.096619%)" offset="0.203125"/><stop stop-opacity="1" stop-color="rgb(99.543762%, 56.460571%, 38.41095%)" offset="0.210938"/><stop stop-opacity="1" stop-color="rgb(99.549866%, 56.109619%, 38.723755%)" offset="0.21875"/><stop stop-opacity="1" stop-color="rgb(99.554443%, 55.758667%, 39.038086%)" offset="0.226563"/><stop stop-opacity="1" stop-color="rgb(99.560547%, 55.407715%, 39.350891%)" offset="0.234375"/><stop stop-opacity="1" stop-color="rgb(99.565125%, 55.056763%, 39.665222%)" offset="0.242187"/><stop stop-opacity="1" stop-color="rgb(99.571228%, 54.705811%, 39.979553%)" offset="0.25"/><stop stop-opacity="1" stop-color="rgb(99.577332%, 54.354858%, 40.292358%)" offset="0.257813"/><stop stop-opacity="1" stop-color="rgb(99.581909%, 54.003906%, 40.606689%)" offset="0.265625"/><stop stop-opacity="1" stop-color="rgb(99.588013%, 53.652954%, 40.919495%)" offset="0.273437"/><stop stop-opacity="1" stop-color="rgb(99.594116%, 53.302002%, 41.233826%)" offset="0.28125"/><stop stop-opacity="1" stop-color="rgb(99.598694%, 52.95105%, 41.546631%)" offset="0.289062"/><stop stop-opacity="1" stop-color="rgb(99.604797%, 52.600098%, 41.860962%)" offset="0.296875"/><stop stop-opacity="1" stop-color="rgb(99.609375%, 52.249146%, 42.175293%)" offset="0.304688"/><stop stop-opacity="1" stop-color="rgb(99.615479%, 51.898193%, 42.488098%)" offset="0.3125"/><stop stop-opacity="1" stop-color="rgb(99.621582%, 51.547241%, 42.802429%)" offset="0.320312"/><stop stop-opacity="1" stop-color="rgb(99.62616%, 51.196289%, 43.115234%)" offset="0.328125"/><stop stop-opacity="1" stop-color="rgb(99.632263%, 50.845337%, 43.429565%)" offset="0.335938"/><stop stop-opacity="1" stop-color="rgb(99.636841%, 50.494385%, 43.742371%)" offset="0.34375"/><stop stop-opacity="1" stop-color="rgb(99.642944%, 50.143433%, 44.056702%)" offset="0.351563"/><stop stop-opacity="1" stop-color="rgb(99.649048%, 49.79248%, 44.371033%)" offset="0.359375"/><stop stop-opacity="1" stop-color="rgb(99.653625%, 49.441528%, 44.683838%)" offset="0.367188"/><stop stop-opacity="1" stop-color="rgb(99.659729%, 49.090576%, 44.998169%)" offset="0.375"/><stop stop-opacity="1" stop-color="rgb(99.665833%, 48.739624%, 45.310974%)" offset="0.382813"/><stop stop-opacity="1" stop-color="rgb(99.67041%, 48.388672%, 45.625305%)" offset="0.390625"/><stop stop-opacity="1" stop-color="rgb(99.676514%, 48.03772%, 45.93811%)" offset="0.398438"/><stop stop-opacity="1" stop-color="rgb(99.681091%, 47.686768%, 46.252441%)" offset="0.40625"/><stop stop-opacity="1" stop-color="rgb(99.687195%, 47.337341%, 46.566772%)" offset="0.414063"/><stop stop-opacity="1" stop-color="rgb(99.693298%, 46.986389%, 46.879578%)" offset="0.421875"/><stop stop-opacity="1" stop-color="rgb(99.697876%, 46.635437%, 47.193909%)" offset="0.429688"/><stop stop-opacity="1" stop-color="rgb(99.703979%, 46.284485%, 47.506714%)" offset="0.4375"/><stop stop-opacity="1" stop-color="rgb(99.708557%, 45.933533%, 47.821045%)" offset="0.445312"/><stop stop-opacity="1" stop-color="rgb(99.714661%, 45.582581%, 48.13385%)" offset="0.453125"/><stop stop-opacity="1" stop-color="rgb(99.720764%, 45.231628%, 48.448181%)" offset="0.460938"/><stop stop-opacity="1" stop-color="rgb(99.725342%, 44.880676%, 48.760986%)" offset="0.46875"/><stop stop-opacity="1" stop-color="rgb(99.731445%, 44.529724%, 49.075317%)" offset="0.476562"/><stop stop-opacity="1" stop-color="rgb(99.737549%, 44.178772%, 49.389648%)" offset="0.484375"/><stop stop-opacity="1" stop-color="rgb(99.742126%, 43.82782%, 49.702454%)" offset="0.492188"/><stop stop-opacity="1" stop-color="rgb(99.74823%, 43.476868%, 50.016785%)" offset="0.5"/><stop stop-opacity="1" stop-color="rgb(99.752808%, 43.125916%, 50.32959%)" offset="0.507813"/><stop stop-opacity="1" stop-color="rgb(99.758911%, 42.774963%, 50.643921%)" offset="0.515625"/><stop stop-opacity="1" stop-color="rgb(99.765015%, 42.424011%, 50.956726%)" offset="0.523438"/><stop stop-opacity="1" stop-color="rgb(99.769592%, 42.073059%, 51.271057%)" offset="0.53125"/><stop stop-opacity="1" stop-color="rgb(99.775696%, 41.722107%, 51.585388%)" offset="0.539062"/><stop stop-opacity="1" stop-color="rgb(99.780273%, 41.371155%, 51.898193%)" offset="0.546875"/><stop stop-opacity="1" stop-color="rgb(99.786377%, 41.020203%, 52.212524%)" offset="0.554688"/><stop stop-opacity="1" stop-color="rgb(99.79248%, 40.66925%, 52.52533%)" offset="0.5625"/><stop stop-opacity="1" stop-color="rgb(99.797058%, 40.318298%, 52.839661%)" offset="0.570313"/><stop stop-opacity="1" stop-color="rgb(99.803162%, 39.967346%, 53.152466%)" offset="0.578125"/><stop stop-opacity="1" stop-color="rgb(99.807739%, 39.616394%, 53.466797%)" offset="0.585938"/><stop stop-opacity="1" stop-color="rgb(99.813843%, 39.265442%, 53.781128%)" offset="0.59375"/><stop stop-opacity="1" stop-color="rgb(99.819946%, 38.91449%, 54.093933%)" offset="0.601563"/><stop stop-opacity="1" stop-color="rgb(99.824524%, 38.563538%, 54.408264%)" offset="0.609375"/><stop stop-opacity="1" stop-color="rgb(99.830627%, 38.212585%, 54.721069%)" offset="0.617188"/><stop stop-opacity="1" stop-color="rgb(99.836731%, 37.861633%, 55.0354%)" offset="0.625"/><stop stop-opacity="1" stop-color="rgb(99.841309%, 37.512207%, 55.348206%)" offset="0.632812"/><stop stop-opacity="1" stop-color="rgb(99.847412%, 37.161255%, 55.662537%)" offset="0.640625"/><stop stop-opacity="1" stop-color="rgb(99.85199%, 36.810303%, 55.976868%)" offset="0.648438"/><stop stop-opacity="1" stop-color="rgb(99.858093%, 36.459351%, 56.289673%)" offset="0.65625"/><stop stop-opacity="1" stop-color="rgb(99.864197%, 36.108398%, 56.604004%)" offset="0.664063"/><stop stop-opacity="1" stop-color="rgb(99.868774%, 35.757446%, 56.916809%)" offset="0.671875"/><stop stop-opacity="1" stop-color="rgb(99.874878%, 35.406494%, 57.23114%)" offset="0.679688"/><stop stop-opacity="1" stop-color="rgb(99.879456%, 35.055542%, 57.543945%)" offset="0.6875"/><stop stop-opacity="1" stop-color="rgb(99.885559%, 34.70459%, 57.858276%)" offset="0.695313"/><stop stop-opacity="1" stop-color="rgb(99.891663%, 34.353638%, 58.172607%)" offset="0.703125"/><stop stop-opacity="1" stop-color="rgb(99.89624%, 34.002686%, 58.485413%)" offset="0.710938"/><stop stop-opacity="1" stop-color="rgb(99.902344%, 33.651733%, 58.799744%)" offset="0.71875"/><stop stop-opacity="1" stop-color="rgb(99.908447%, 33.300781%, 59.112549%)" offset="0.726563"/><stop stop-opacity="1" stop-color="rgb(99.913025%, 32.949829%, 59.42688%)" offset="0.734375"/><stop stop-opacity="1" stop-color="rgb(99.919128%, 32.598877%, 59.739685%)" offset="0.742188"/><stop stop-opacity="1" stop-color="rgb(99.923706%, 32.247925%, 60.054016%)" offset="0.75"/><stop stop-opacity="1" stop-color="rgb(99.92981%, 31.896973%, 60.368347%)" offset="0.757813"/><stop stop-opacity="1" stop-color="rgb(99.935913%, 31.546021%, 60.681152%)" offset="0.765625"/><stop stop-opacity="1" stop-color="rgb(99.940491%, 31.195068%, 60.995483%)" offset="0.773438"/><stop stop-opacity="1" stop-color="rgb(99.946594%, 30.844116%, 61.308289%)" offset="0.78125"/><stop stop-opacity="1" stop-color="rgb(99.951172%, 30.493164%, 61.62262%)" offset="0.789063"/><stop stop-opacity="1" stop-color="rgb(99.957275%, 30.142212%, 61.935425%)" offset="0.796875"/><stop stop-opacity="1" stop-color="rgb(99.963379%, 29.79126%, 62.249756%)" offset="0.804688"/><stop stop-opacity="1" stop-color="rgb(99.967957%, 29.440308%, 62.562561%)" offset="0.8125"/><stop stop-opacity="1" stop-color="rgb(99.97406%, 29.089355%, 62.876892%)" offset="0.820313"/><stop stop-opacity="1" stop-color="rgb(99.980164%, 28.738403%, 63.191223%)" offset="0.828125"/><stop stop-opacity="1" stop-color="rgb(99.984741%, 28.387451%, 63.504028%)" offset="0.835938"/><stop stop-opacity="1" stop-color="rgb(99.990845%, 28.036499%, 63.818359%)" offset="0.84375"/><stop stop-opacity="1" stop-color="rgb(99.996948%, 27.680969%, 64.137268%)" offset="0.875"/><stop stop-opacity="1" stop-color="rgb(100%, 27.49939%, 64.299011%)" offset="0.994152"/><stop stop-opacity="1" stop-color="rgb(100%, 27.49939%, 64.299011%)" offset="1"/></linearGradient></defs><g fill="#000000" fill-opacity="1"><g transform="translate(110.526348, 215.515778)"><g><path d="M 53.578125 0 L 11.609375 0 C 9.960938 0 9.140625 -0.820312 9.140625 -2.46875 L 9.140625 -89.90625 C 9.140625 -91.550781 9.960938 -92.375 11.609375 -92.375 L 23.578125 -92.375 C 25.210938 -92.375 26.03125 -91.550781 26.03125 -89.90625 L 26.03125 -14.96875 L 53.578125 -14.96875 C 55.222656 -14.96875 56.046875 -14.148438 56.046875 -12.515625 L 56.046875 -2.46875 C 56.046875 -0.820312 55.222656 0 53.578125 0 Z M 53.578125 0 "/></g></g></g><g fill="#000000" fill-opacity="1"><g transform="translate(168.54795, 215.515778)"><g><path d="M 32.40625 -65 C 36.132812 -65 39.644531 -64.578125 42.9375 -63.734375 C 46.226562 -62.898438 49.125 -61.5625 51.625 -59.71875 C 54.132812 -57.875 56.097656 -55.46875 57.515625 -52.5 C 58.941406 -49.53125 59.65625 -45.921875 59.65625 -41.671875 L 59.65625 -2.46875 C 59.65625 -0.820312 58.832031 0 57.1875 0 L 50.578125 0 C 49.046875 0 48.144531 -0.722656 47.875 -2.171875 L 46.359375 -7.8125 C 44.679688 -5.53125 42.75 -3.71875 40.5625 -2.375 C 38.375 -1.03125 36.097656 -0.0664062 33.734375 0.515625 C 31.367188 1.097656 29.046875 1.390625 26.765625 1.390625 C 23.953125 1.390625 21.253906 0.988281 18.671875 0.1875 C 16.085938 -0.613281 13.800781 -1.816406 11.8125 -3.421875 C 9.832031 -5.023438 8.257812 -7.0625 7.09375 -9.53125 C 5.9375 -12 5.359375 -14.875 5.359375 -18.15625 C 5.359375 -21.601562 6.007812 -24.609375 7.3125 -27.171875 C 8.613281 -29.742188 10.414062 -31.878906 12.71875 -33.578125 C 15.019531 -35.285156 17.710938 -36.570312 20.796875 -37.4375 C 23.890625 -38.300781 27.222656 -38.734375 30.796875 -38.734375 C 35.035156 -38.734375 39.484375 -38.148438 44.140625 -36.984375 L 44.140625 -41.015625 C 44.140625 -43.773438 43.566406 -45.96875 42.421875 -47.59375 C 41.285156 -49.21875 39.722656 -50.390625 37.734375 -51.109375 C 35.753906 -51.835938 33.519531 -52.203125 31.03125 -52.203125 C 28.539062 -52.203125 25.890625 -51.898438 23.078125 -51.296875 C 20.273438 -50.691406 17.492188 -49.867188 14.734375 -48.828125 C 13.128906 -48.265625 12.085938 -48.742188 11.609375 -50.265625 L 9.078125 -58.203125 C 8.554688 -59.734375 9.078125 -60.78125 10.640625 -61.34375 C 14.210938 -62.5 17.851562 -63.394531 21.5625 -64.03125 C 25.269531 -64.675781 28.882812 -65 32.40625 -65 Z M 30.484375 -9.921875 C 31.929688 -9.921875 33.445312 -10.160156 35.03125 -10.640625 C 36.613281 -11.117188 38.09375 -11.898438 39.46875 -12.984375 C 40.851562 -14.066406 41.976562 -15.5 42.84375 -17.28125 C 43.707031 -19.070312 44.140625 -21.269531 44.140625 -23.875 L 44.140625 -26.578125 C 42.453125 -26.984375 40.796875 -27.285156 39.171875 -27.484375 C 37.554688 -27.679688 35.960938 -27.78125 34.390625 -27.78125 C 31.828125 -27.78125 29.523438 -27.46875 27.484375 -26.84375 C 25.441406 -26.226562 23.828125 -25.226562 22.640625 -23.84375 C 21.453125 -22.457031 20.859375 -20.644531 20.859375 -18.40625 C 20.859375 -16.476562 21.300781 -14.878906 22.1875 -13.609375 C 23.070312 -12.347656 24.242188 -11.414062 25.703125 -10.8125 C 27.171875 -10.21875 28.765625 -9.921875 30.484375 -9.921875 Z M 30.484375 -9.921875 "/></g></g></g><g fill="#000000" fill-opacity="1"><g transform="translate(235.889085, 215.515778)"><g><path d="M 35.234375 1.390625 C 29.785156 1.390625 24.957031 0.328125 20.75 -1.796875 C 16.539062 -3.921875 13.242188 -7.007812 10.859375 -11.0625 C 8.472656 -15.113281 7.28125 -20.023438 7.28125 -25.796875 L 7.28125 -61.21875 C 7.28125 -62.863281 8.097656 -63.6875 9.734375 -63.6875 L 20.328125 -63.6875 C 21.972656 -63.6875 22.796875 -62.863281 22.796875 -61.21875 L 22.796875 -26.28125 C 22.796875 -21.988281 23.914062 -18.671875 26.15625 -16.328125 C 28.40625 -13.984375 31.429688 -12.8125 35.234375 -12.8125 C 39.160156 -12.8125 42.226562 -14.019531 44.4375 -16.4375 C 46.644531 -18.863281 47.75 -22.144531 47.75 -26.28125 L 47.75 -61.21875 C 47.75 -62.863281 48.570312 -63.6875 50.21875 -63.6875 L 60.796875 -63.6875 C 62.441406 -63.6875 63.265625 -62.863281 63.265625 -61.21875 L 63.265625 -25.796875 C 63.265625 -20.023438 62.0625 -15.113281 59.65625 -11.0625 C 57.25 -7.007812 53.941406 -3.921875 49.734375 -1.796875 C 45.523438 0.328125 40.691406 1.390625 35.234375 1.390625 Z M 35.234375 1.390625 "/></g></g></g><g fill="#000000" fill-opacity="1"><g transform="translate(306.477025, 215.515778)"><g><path d="M 21.28125 0 L 10.703125 0 C 9.054688 0 8.234375 -0.820312 8.234375 -2.46875 L 8.171875 -61.21875 C 8.171875 -62.863281 8.992188 -63.6875 10.640625 -63.6875 L 17.3125 -63.6875 C 18.757812 -63.6875 19.664062 -62.960938 20.03125 -61.515625 L 21.703125 -54.78125 C 23.953125 -58.46875 26.617188 -61.09375 29.703125 -62.65625 C 32.796875 -64.21875 35.941406 -65 39.140625 -65 C 40.910156 -65 42.816406 -64.71875 44.859375 -64.15625 C 46.335938 -63.71875 46.878906 -62.71875 46.484375 -61.15625 L 44.078125 -51.953125 C 43.710938 -50.472656 42.710938 -49.910156 41.078125 -50.265625 C 40.148438 -50.472656 39.273438 -50.625 38.453125 -50.71875 C 37.628906 -50.820312 36.898438 -50.875 36.265625 -50.875 C 32.253906 -50.875 29.164062 -49.476562 27 -46.6875 C 24.832031 -43.90625 23.75 -39.789062 23.75 -34.34375 L 23.75 -2.46875 C 23.75 -0.820312 22.925781 0 21.28125 0 Z M 21.28125 0 "/></g></g></g><g clip-path="url(#20f8ca5b39)"><g clip-path="url(#0910f1632c)"><path fill="url(#2b89182c64)" d="M 8.484375 125.023438 L 8.484375 203.023438 L 47.484375 203.023438 L 47.484375 125.023438 Z M 8.484375 125.023438 " fill-rule="nonzero"/></g></g><g clip-path="url(#58bd109a9a)"><g clip-path="url(#b698b7fc2d)"><path fill="url(#7109282247)" d="M 28.070312 143.199219 L 28.070312 214.449219 L 99.320312 214.449219 L 99.320312 143.199219 Z M 28.070312 143.199219 " fill-rule="nonzero"/></g></g><g clip-path="url(#7ab7953093)"><g clip-path="url(#8a295bb555)"><path fill="url(#2a9b5f88d4)" d="M 86.476562 204.523438 L 86.476562 125.035156 L 46.734375 125.035156 L 46.734375 204.523438 Z M 86.476562 204.523438 " fill-rule="nonzero"/></g></g><g fill="#000000" fill-opacity="1"><g transform="translate(68.331536, 240.008663)"><g/></g></g><g fill="#000000" fill-opacity="1"><g transform="translate(74.397434, 240.008663)"><g><path d="M 7.4375 -4.578125 C 7.601562 -4.578125 7.738281 -4.519531 7.84375 -4.40625 C 7.957031 -4.289062 8.015625 -4.148438 8.015625 -3.984375 L 8.015625 -1.1875 C 8.015625 -0.957031 7.914062 -0.78125 7.71875 -0.65625 C 7.332031 -0.40625 6.910156 -0.210938 6.453125 -0.078125 C 6.003906 0.0546875 5.539062 0.125 5.0625 0.125 C 4.226562 0.125 3.460938 -0.0703125 2.765625 -0.46875 C 2.078125 -0.875 1.53125 -1.414062 1.125 -2.09375 C 0.726562 -2.78125 0.53125 -3.535156 0.53125 -4.359375 C 0.53125 -5.179688 0.726562 -5.929688 1.125 -6.609375 C 1.53125 -7.296875 2.078125 -7.835938 2.765625 -8.234375 C 3.460938 -8.640625 4.226562 -8.84375 5.0625 -8.84375 C 5.46875 -8.84375 5.863281 -8.796875 6.25 -8.703125 C 6.644531 -8.609375 6.992188 -8.472656 7.296875 -8.296875 C 7.398438 -8.234375 7.472656 -8.160156 7.515625 -8.078125 C 7.566406 -7.992188 7.59375 -7.90625 7.59375 -7.8125 C 7.59375 -7.644531 7.535156 -7.5 7.421875 -7.375 C 7.316406 -7.257812 7.1875 -7.203125 7.03125 -7.203125 C 6.90625 -7.203125 6.796875 -7.226562 6.703125 -7.28125 C 6.160156 -7.53125 5.613281 -7.65625 5.0625 -7.65625 C 4.457031 -7.65625 3.90625 -7.507812 3.40625 -7.21875 C 2.914062 -6.925781 2.523438 -6.523438 2.234375 -6.015625 C 1.953125 -5.515625 1.8125 -4.960938 1.8125 -4.359375 C 1.8125 -3.753906 1.953125 -3.195312 2.234375 -2.6875 C 2.523438 -2.1875 2.914062 -1.789062 3.40625 -1.5 C 3.90625 -1.207031 4.457031 -1.0625 5.0625 -1.0625 C 5.34375 -1.0625 5.632812 -1.09375 5.9375 -1.15625 C 6.25 -1.21875 6.519531 -1.304688 6.75 -1.421875 L 6.75 -3.40625 L 5.25 -3.40625 C 5.082031 -3.40625 4.9375 -3.457031 4.8125 -3.5625 C 4.695312 -3.675781 4.640625 -3.816406 4.640625 -3.984375 C 4.640625 -4.160156 4.695312 -4.300781 4.8125 -4.40625 C 4.9375 -4.519531 5.082031 -4.578125 5.25 -4.578125 Z M 7.4375 -4.578125 "/></g></g></g><g fill="#000000" fill-opacity="1"><g transform="translate(85.659434, 240.008663)"><g><path d="M 6.609375 -3.515625 C 6.597656 -3.359375 6.535156 -3.226562 6.421875 -3.125 C 6.304688 -3.019531 6.171875 -2.96875 6.015625 -2.96875 L 1.625 -2.96875 C 1.6875 -2.363281 1.914062 -1.878906 2.3125 -1.515625 C 2.71875 -1.148438 3.210938 -0.96875 3.796875 -0.96875 C 4.191406 -0.96875 4.515625 -1.023438 4.765625 -1.140625 C 5.015625 -1.253906 5.234375 -1.40625 5.421875 -1.59375 C 5.546875 -1.664062 5.671875 -1.703125 5.796875 -1.703125 C 5.929688 -1.703125 6.046875 -1.648438 6.140625 -1.546875 C 6.234375 -1.453125 6.28125 -1.335938 6.28125 -1.203125 C 6.28125 -1.035156 6.203125 -0.878906 6.046875 -0.734375 C 5.796875 -0.492188 5.472656 -0.289062 5.078125 -0.125 C 4.679688 0.0390625 4.273438 0.125 3.859375 0.125 C 3.191406 0.125 2.597656 -0.015625 2.078125 -0.296875 C 1.566406 -0.578125 1.171875 -0.96875 0.890625 -1.46875 C 0.617188 -1.976562 0.484375 -2.554688 0.484375 -3.203125 C 0.484375 -3.898438 0.625 -4.507812 0.90625 -5.03125 C 1.195312 -5.5625 1.578125 -5.96875 2.046875 -6.25 C 2.515625 -6.53125 3.019531 -6.671875 3.5625 -6.671875 C 4.09375 -6.671875 4.585938 -6.535156 5.046875 -6.265625 C 5.515625 -5.992188 5.890625 -5.613281 6.171875 -5.125 C 6.453125 -4.644531 6.597656 -4.109375 6.609375 -3.515625 Z M 3.5625 -5.578125 C 3.09375 -5.578125 2.6875 -5.445312 2.34375 -5.1875 C 2.007812 -4.925781 1.789062 -4.519531 1.6875 -3.96875 L 5.359375 -3.96875 L 5.359375 -4.078125 C 5.316406 -4.515625 5.117188 -4.875 4.765625 -5.15625 C 4.410156 -5.4375 4.007812 -5.578125 3.5625 -5.578125 Z M 3.5625 -5.578125 "/></g></g></g><g fill="#000000" fill-opacity="1"><g transform="translate(95.366229, 240.008663)"><g><path d="M 0.515625 -1.015625 C 0.441406 -1.140625 0.40625 -1.253906 0.40625 -1.359375 C 0.40625 -1.523438 0.488281 -1.664062 0.65625 -1.78125 C 0.738281 -1.84375 0.835938 -1.875 0.953125 -1.875 C 1.097656 -1.875 1.234375 -1.8125 1.359375 -1.6875 C 1.609375 -1.394531 1.875 -1.175781 2.15625 -1.03125 C 2.445312 -0.894531 2.789062 -0.828125 3.1875 -0.828125 C 3.5 -0.835938 3.773438 -0.910156 4.015625 -1.046875 C 4.265625 -1.179688 4.390625 -1.40625 4.390625 -1.71875 C 4.390625 -2 4.265625 -2.210938 4.015625 -2.359375 C 3.773438 -2.515625 3.414062 -2.65625 2.9375 -2.78125 C 2.46875 -2.90625 2.078125 -3.035156 1.765625 -3.171875 C 1.460938 -3.304688 1.207031 -3.503906 1 -3.765625 C 0.789062 -4.023438 0.6875 -4.367188 0.6875 -4.796875 C 0.6875 -5.171875 0.789062 -5.5 1 -5.78125 C 1.207031 -6.0625 1.488281 -6.28125 1.84375 -6.4375 C 2.195312 -6.59375 2.582031 -6.671875 3 -6.671875 C 3.394531 -6.671875 3.789062 -6.59375 4.1875 -6.4375 C 4.582031 -6.289062 4.90625 -6.066406 5.15625 -5.765625 C 5.257812 -5.648438 5.3125 -5.53125 5.3125 -5.40625 C 5.3125 -5.269531 5.242188 -5.140625 5.109375 -5.015625 C 5.023438 -4.941406 4.921875 -4.90625 4.796875 -4.90625 C 4.640625 -4.90625 4.519531 -4.957031 4.4375 -5.0625 C 4.257812 -5.257812 4.039062 -5.410156 3.78125 -5.515625 C 3.53125 -5.617188 3.253906 -5.671875 2.953125 -5.671875 C 2.640625 -5.671875 2.367188 -5.609375 2.140625 -5.484375 C 1.921875 -5.359375 1.8125 -5.140625 1.8125 -4.828125 C 1.820312 -4.535156 1.945312 -4.316406 2.1875 -4.171875 C 2.4375 -4.035156 2.816406 -3.898438 3.328125 -3.765625 C 3.765625 -3.648438 4.128906 -3.523438 4.421875 -3.390625 C 4.710938 -3.265625 4.957031 -3.070312 5.15625 -2.8125 C 5.351562 -2.550781 5.453125 -2.207031 5.453125 -1.78125 C 5.453125 -1.394531 5.335938 -1.054688 5.109375 -0.765625 C 4.890625 -0.484375 4.597656 -0.265625 4.234375 -0.109375 C 3.878906 0.046875 3.5 0.125 3.09375 0.125 C 2.5625 0.125 2.070312 0.0351562 1.625 -0.140625 C 1.1875 -0.328125 0.816406 -0.617188 0.515625 -1.015625 Z M 0.515625 -1.015625 "/></g></g></g><g fill="#000000" fill-opacity="1"><g transform="translate(103.915955, 240.008663)"><g><path d="M 2.65625 -5.375 L 2.65625 -1.65625 C 2.65625 -1.238281 2.84375 -1.03125 3.21875 -1.03125 C 3.269531 -1.03125 3.34375 -1.046875 3.4375 -1.078125 C 3.539062 -1.109375 3.625 -1.125 3.6875 -1.125 C 3.789062 -1.125 3.878906 -1.078125 3.953125 -0.984375 C 4.035156 -0.890625 4.078125 -0.773438 4.078125 -0.640625 C 4.078125 -0.460938 3.972656 -0.3125 3.765625 -0.1875 C 3.566406 -0.0625 3.34375 0 3.09375 0 C 2.820312 0 2.570312 -0.0234375 2.34375 -0.078125 C 2.113281 -0.140625 1.910156 -0.289062 1.734375 -0.53125 C 1.554688 -0.769531 1.46875 -1.128906 1.46875 -1.609375 L 1.46875 -5.375 L 0.75 -5.375 C 0.59375 -5.375 0.460938 -5.421875 0.359375 -5.515625 C 0.253906 -5.617188 0.203125 -5.753906 0.203125 -5.921875 C 0.203125 -6.078125 0.253906 -6.203125 0.359375 -6.296875 C 0.460938 -6.398438 0.59375 -6.453125 0.75 -6.453125 L 1.46875 -6.453125 L 1.46875 -7.5 C 1.46875 -7.664062 1.523438 -7.804688 1.640625 -7.921875 C 1.753906 -8.035156 1.894531 -8.09375 2.0625 -8.09375 C 2.226562 -8.09375 2.367188 -8.035156 2.484375 -7.921875 C 2.597656 -7.804688 2.65625 -7.664062 2.65625 -7.5 L 2.65625 -6.453125 L 3.6875 -6.453125 C 3.84375 -6.453125 3.972656 -6.398438 4.078125 -6.296875 C 4.179688 -6.191406 4.234375 -6.0625 4.234375 -5.90625 C 4.234375 -5.75 4.179688 -5.617188 4.078125 -5.515625 C 3.972656 -5.421875 3.84375 -5.375 3.6875 -5.375 Z M 2.65625 -5.375 "/></g></g></g><g fill="#000000" fill-opacity="1"><g transform="translate(111.258842, 240.008663)"><g><path d="M 6.171875 -6.609375 C 6.347656 -6.609375 6.492188 -6.550781 6.609375 -6.4375 C 6.722656 -6.332031 6.78125 -6.1875 6.78125 -6 L 6.78125 -0.59375 C 6.78125 -0.425781 6.722656 -0.285156 6.609375 -0.171875 C 6.492188 -0.0546875 6.347656 0 6.171875 0 C 6.003906 0 5.863281 -0.0546875 5.75 -0.171875 C 5.644531 -0.285156 5.59375 -0.425781 5.59375 -0.59375 L 5.59375 -0.921875 C 5.375 -0.628906 5.078125 -0.378906 4.703125 -0.171875 C 4.328125 0.0234375 3.925781 0.125 3.5 0.125 C 2.9375 0.125 2.421875 -0.0195312 1.953125 -0.3125 C 1.492188 -0.601562 1.132812 -1.003906 0.875 -1.515625 C 0.613281 -2.035156 0.484375 -2.625 0.484375 -3.28125 C 0.484375 -3.925781 0.613281 -4.503906 0.875 -5.015625 C 1.132812 -5.535156 1.492188 -5.941406 1.953125 -6.234375 C 2.410156 -6.523438 2.914062 -6.671875 3.46875 -6.671875 C 3.90625 -6.671875 4.3125 -6.578125 4.6875 -6.390625 C 5.0625 -6.210938 5.363281 -5.984375 5.59375 -5.703125 L 5.59375 -6 C 5.59375 -6.175781 5.644531 -6.320312 5.75 -6.4375 C 5.863281 -6.550781 6.003906 -6.609375 6.171875 -6.609375 Z M 3.640625 -0.96875 C 4.023438 -0.96875 4.367188 -1.066406 4.671875 -1.265625 C 4.972656 -1.460938 5.207031 -1.734375 5.375 -2.078125 C 5.550781 -2.429688 5.640625 -2.832031 5.640625 -3.28125 C 5.640625 -3.707031 5.550781 -4.09375 5.375 -4.4375 C 5.207031 -4.789062 4.972656 -5.066406 4.671875 -5.265625 C 4.367188 -5.472656 4.023438 -5.578125 3.640625 -5.578125 C 3.242188 -5.578125 2.894531 -5.476562 2.59375 -5.28125 C 2.289062 -5.082031 2.050781 -4.804688 1.875 -4.453125 C 1.707031 -4.109375 1.625 -3.71875 1.625 -3.28125 C 1.625 -2.832031 1.707031 -2.429688 1.875 -2.078125 C 2.050781 -1.734375 2.289062 -1.460938 2.59375 -1.265625 C 2.894531 -1.066406 3.242188 -0.96875 3.640625 -0.96875 Z M 2.0625 -7.296875 C 1.894531 -7.296875 1.765625 -7.359375 1.671875 -7.484375 C 1.578125 -7.609375 1.535156 -7.789062 1.546875 -8.03125 C 1.566406 -8.3125 1.695312 -8.546875 1.9375 -8.734375 C 2.175781 -8.921875 2.5 -9.015625 2.90625 -9.015625 C 3.09375 -9.015625 3.269531 -8.972656 3.4375 -8.890625 C 3.601562 -8.816406 3.800781 -8.707031 4.03125 -8.5625 C 4.175781 -8.457031 4.296875 -8.378906 4.390625 -8.328125 C 4.492188 -8.273438 4.585938 -8.25 4.671875 -8.25 C 4.773438 -8.25 4.851562 -8.28125 4.90625 -8.34375 C 4.96875 -8.40625 4.992188 -8.488281 4.984375 -8.59375 C 4.984375 -8.625 4.984375 -8.664062 4.984375 -8.71875 C 4.984375 -8.832031 5.019531 -8.921875 5.09375 -8.984375 C 5.164062 -9.046875 5.253906 -9.078125 5.359375 -9.078125 C 5.523438 -9.078125 5.65625 -9.015625 5.75 -8.890625 C 5.851562 -8.765625 5.898438 -8.597656 5.890625 -8.390625 C 5.859375 -8.109375 5.738281 -7.863281 5.53125 -7.65625 C 5.320312 -7.457031 5.015625 -7.359375 4.609375 -7.359375 C 4.460938 -7.359375 4.304688 -7.394531 4.140625 -7.46875 C 3.984375 -7.539062 3.785156 -7.648438 3.546875 -7.796875 C 3.359375 -7.898438 3.203125 -7.976562 3.078125 -8.03125 C 2.960938 -8.09375 2.859375 -8.125 2.765625 -8.125 C 2.671875 -8.125 2.59375 -8.09375 2.53125 -8.03125 C 2.46875 -7.976562 2.4375 -7.894531 2.4375 -7.78125 C 2.445312 -7.75 2.453125 -7.710938 2.453125 -7.671875 C 2.453125 -7.554688 2.410156 -7.460938 2.328125 -7.390625 C 2.253906 -7.328125 2.164062 -7.296875 2.0625 -7.296875 Z M 2.0625 -7.296875 "/></g></g></g><g fill="#000000" fill-opacity="1"><g transform="translate(121.513065, 240.008663)"><g><path d="M 7.0625 -3.265625 C 7.0625 -2.617188 6.914062 -2.035156 6.625 -1.515625 C 6.332031 -1.003906 5.9375 -0.601562 5.4375 -0.3125 C 4.9375 -0.0195312 4.378906 0.125 3.765625 0.125 C 3.160156 0.125 2.609375 -0.0195312 2.109375 -0.3125 C 1.609375 -0.601562 1.210938 -1.003906 0.921875 -1.515625 C 0.628906 -2.035156 0.484375 -2.617188 0.484375 -3.265625 C 0.484375 -3.910156 0.628906 -4.492188 0.921875 -5.015625 C 1.210938 -5.535156 1.609375 -5.941406 2.109375 -6.234375 C 2.609375 -6.523438 3.160156 -6.671875 3.765625 -6.671875 C 4.378906 -6.671875 4.9375 -6.523438 5.4375 -6.234375 C 5.9375 -5.941406 6.332031 -5.535156 6.625 -5.015625 C 6.914062 -4.492188 7.0625 -3.910156 7.0625 -3.265625 Z M 5.875 -3.265625 C 5.875 -3.710938 5.78125 -4.113281 5.59375 -4.46875 C 5.40625 -4.820312 5.148438 -5.09375 4.828125 -5.28125 C 4.515625 -5.476562 4.160156 -5.578125 3.765625 -5.578125 C 3.378906 -5.578125 3.023438 -5.476562 2.703125 -5.28125 C 2.390625 -5.09375 2.140625 -4.820312 1.953125 -4.46875 C 1.765625 -4.113281 1.671875 -3.710938 1.671875 -3.265625 C 1.671875 -2.828125 1.765625 -2.429688 1.953125 -2.078125 C 2.140625 -1.734375 2.390625 -1.460938 2.703125 -1.265625 C 3.023438 -1.066406 3.378906 -0.96875 3.765625 -0.96875 C 4.160156 -0.96875 4.515625 -1.066406 4.828125 -1.265625 C 5.148438 -1.460938 5.40625 -1.734375 5.59375 -2.078125 C 5.78125 -2.429688 5.875 -2.828125 5.875 -3.265625 Z M 5.875 -3.265625 "/></g></g></g><g fill="#000000" fill-opacity="1"><g transform="translate(131.667756, 240.008663)"><g/></g></g><g fill="#000000" fill-opacity="1"><g transform="translate(137.729161, 240.008663)"><g><path d="M 6.171875 -9.21875 C 6.347656 -9.21875 6.492188 -9.160156 6.609375 -9.046875 C 6.722656 -8.929688 6.78125 -8.789062 6.78125 -8.625 L 6.78125 -0.59375 C 6.78125 -0.425781 6.722656 -0.285156 6.609375 -0.171875 C 6.492188 -0.0546875 6.347656 0 6.171875 0 C 6.003906 0 5.863281 -0.0546875 5.75 -0.171875 C 5.644531 -0.285156 5.59375 -0.425781 5.59375 -0.59375 L 5.59375 -0.953125 C 5.382812 -0.648438 5.085938 -0.394531 4.703125 -0.1875 C 4.328125 0.0195312 3.925781 0.125 3.5 0.125 C 2.9375 0.125 2.425781 -0.0195312 1.96875 -0.3125 C 1.507812 -0.601562 1.144531 -1.003906 0.875 -1.515625 C 0.613281 -2.035156 0.484375 -2.625 0.484375 -3.28125 C 0.484375 -3.925781 0.613281 -4.503906 0.875 -5.015625 C 1.132812 -5.535156 1.492188 -5.941406 1.953125 -6.234375 C 2.410156 -6.523438 2.914062 -6.671875 3.46875 -6.671875 C 3.90625 -6.671875 4.3125 -6.578125 4.6875 -6.390625 C 5.0625 -6.210938 5.363281 -5.976562 5.59375 -5.6875 L 5.59375 -8.625 C 5.59375 -8.789062 5.644531 -8.929688 5.75 -9.046875 C 5.863281 -9.160156 6.003906 -9.21875 6.171875 -9.21875 Z M 3.640625 -0.96875 C 4.023438 -0.96875 4.367188 -1.066406 4.671875 -1.265625 C 4.972656 -1.460938 5.207031 -1.734375 5.375 -2.078125 C 5.550781 -2.429688 5.640625 -2.832031 5.640625 -3.28125 C 5.640625 -3.707031 5.550781 -4.097656 5.375 -4.453125 C 5.207031 -4.804688 4.972656 -5.082031 4.671875 -5.28125 C 4.367188 -5.476562 4.023438 -5.578125 3.640625 -5.578125 C 3.242188 -5.578125 2.894531 -5.476562 2.59375 -5.28125 C 2.289062 -5.082031 2.050781 -4.804688 1.875 -4.453125 C 1.707031 -4.097656 1.625 -3.707031 1.625 -3.28125 C 1.625 -2.832031 1.707031 -2.429688 1.875 -2.078125 C 2.050781 -1.734375 2.289062 -1.460938 2.59375 -1.265625 C 2.894531 -1.066406 3.242188 -0.96875 3.640625 -0.96875 Z M 3.640625 -0.96875 "/></g></g></g><g fill="#000000" fill-opacity="1"><g transform="translate(147.983387, 240.008663)"><g><path d="M 6.609375 -3.515625 C 6.597656 -3.359375 6.535156 -3.226562 6.421875 -3.125 C 6.304688 -3.019531 6.171875 -2.96875 6.015625 -2.96875 L 1.625 -2.96875 C 1.6875 -2.363281 1.914062 -1.878906 2.3125 -1.515625 C 2.71875 -1.148438 3.210938 -0.96875 3.796875 -0.96875 C 4.191406 -0.96875 4.515625 -1.023438 4.765625 -1.140625 C 5.015625 -1.253906 5.234375 -1.40625 5.421875 -1.59375 C 5.546875 -1.664062 5.671875 -1.703125 5.796875 -1.703125 C 5.929688 -1.703125 6.046875 -1.648438 6.140625 -1.546875 C 6.234375 -1.453125 6.28125 -1.335938 6.28125 -1.203125 C 6.28125 -1.035156 6.203125 -0.878906 6.046875 -0.734375 C 5.796875 -0.492188 5.472656 -0.289062 5.078125 -0.125 C 4.679688 0.0390625 4.273438 0.125 3.859375 0.125 C 3.191406 0.125 2.597656 -0.015625 2.078125 -0.296875 C 1.566406 -0.578125 1.171875 -0.96875 0.890625 -1.46875 C 0.617188 -1.976562 0.484375 -2.554688 0.484375 -3.203125 C 0.484375 -3.898438 0.625 -4.507812 0.90625 -5.03125 C 1.195312 -5.5625 1.578125 -5.96875 2.046875 -6.25 C 2.515625 -6.53125 3.019531 -6.671875 3.5625 -6.671875 C 4.09375 -6.671875 4.585938 -6.535156 5.046875 -6.265625 C 5.515625 -5.992188 5.890625 -5.613281 6.171875 -5.125 C 6.453125 -4.644531 6.597656 -4.109375 6.609375 -3.515625 Z M 3.5625 -5.578125 C 3.09375 -5.578125 2.6875 -5.445312 2.34375 -5.1875 C 2.007812 -4.925781 1.789062 -4.519531 1.6875 -3.96875 L 5.359375 -3.96875 L 5.359375 -4.078125 C 5.316406 -4.515625 5.117188 -4.875 4.765625 -5.15625 C 4.410156 -5.4375 4.007812 -5.578125 3.5625 -5.578125 Z M 3.5625 -5.578125 "/></g></g></g><g fill="#000000" fill-opacity="1"><g transform="translate(157.690185, 240.008663)"><g/></g></g><g fill="#000000" fill-opacity="1"><g transform="translate(163.751596, 240.008663)"><g><path d="M 6.609375 -3.515625 C 6.597656 -3.359375 6.535156 -3.226562 6.421875 -3.125 C 6.304688 -3.019531 6.171875 -2.96875 6.015625 -2.96875 L 1.625 -2.96875 C 1.6875 -2.363281 1.914062 -1.878906 2.3125 -1.515625 C 2.71875 -1.148438 3.210938 -0.96875 3.796875 -0.96875 C 4.191406 -0.96875 4.515625 -1.023438 4.765625 -1.140625 C 5.015625 -1.253906 5.234375 -1.40625 5.421875 -1.59375 C 5.546875 -1.664062 5.671875 -1.703125 5.796875 -1.703125 C 5.929688 -1.703125 6.046875 -1.648438 6.140625 -1.546875 C 6.234375 -1.453125 6.28125 -1.335938 6.28125 -1.203125 C 6.28125 -1.035156 6.203125 -0.878906 6.046875 -0.734375 C 5.796875 -0.492188 5.472656 -0.289062 5.078125 -0.125 C 4.679688 0.0390625 4.273438 0.125 3.859375 0.125 C 3.191406 0.125 2.597656 -0.015625 2.078125 -0.296875 C 1.566406 -0.578125 1.171875 -0.96875 0.890625 -1.46875 C 0.617188 -1.976562 0.484375 -2.554688 0.484375 -3.203125 C 0.484375 -3.898438 0.625 -4.507812 0.90625 -5.03125 C 1.195312 -5.5625 1.578125 -5.96875 2.046875 -6.25 C 2.515625 -6.53125 3.019531 -6.671875 3.5625 -6.671875 C 4.09375 -6.671875 4.585938 -6.535156 5.046875 -6.265625 C 5.515625 -5.992188 5.890625 -5.613281 6.171875 -5.125 C 6.453125 -4.644531 6.597656 -4.109375 6.609375 -3.515625 Z M 3.5625 -5.578125 C 3.09375 -5.578125 2.6875 -5.445312 2.34375 -5.1875 C 2.007812 -4.925781 1.789062 -4.519531 1.6875 -3.96875 L 5.359375 -3.96875 L 5.359375 -4.078125 C 5.316406 -4.515625 5.117188 -4.875 4.765625 -5.15625 C 4.410156 -5.4375 4.007812 -5.578125 3.5625 -5.578125 Z M 3.5625 -5.578125 "/></g></g></g><g fill="#000000" fill-opacity="1"><g transform="translate(173.458393, 240.008663)"><g><path d="M 0.515625 -1.015625 C 0.441406 -1.140625 0.40625 -1.253906 0.40625 -1.359375 C 0.40625 -1.523438 0.488281 -1.664062 0.65625 -1.78125 C 0.738281 -1.84375 0.835938 -1.875 0.953125 -1.875 C 1.097656 -1.875 1.234375 -1.8125 1.359375 -1.6875 C 1.609375 -1.394531 1.875 -1.175781 2.15625 -1.03125 C 2.445312 -0.894531 2.789062 -0.828125 3.1875 -0.828125 C 3.5 -0.835938 3.773438 -0.910156 4.015625 -1.046875 C 4.265625 -1.179688 4.390625 -1.40625 4.390625 -1.71875 C 4.390625 -2 4.265625 -2.210938 4.015625 -2.359375 C 3.773438 -2.515625 3.414062 -2.65625 2.9375 -2.78125 C 2.46875 -2.90625 2.078125 -3.035156 1.765625 -3.171875 C 1.460938 -3.304688 1.207031 -3.503906 1 -3.765625 C 0.789062 -4.023438 0.6875 -4.367188 0.6875 -4.796875 C 0.6875 -5.171875 0.789062 -5.5 1 -5.78125 C 1.207031 -6.0625 1.488281 -6.28125 1.84375 -6.4375 C 2.195312 -6.59375 2.582031 -6.671875 3 -6.671875 C 3.394531 -6.671875 3.789062 -6.59375 4.1875 -6.4375 C 4.582031 -6.289062 4.90625 -6.066406 5.15625 -5.765625 C 5.257812 -5.648438 5.3125 -5.53125 5.3125 -5.40625 C 5.3125 -5.269531 5.242188 -5.140625 5.109375 -5.015625 C 5.023438 -4.941406 4.921875 -4.90625 4.796875 -4.90625 C 4.640625 -4.90625 4.519531 -4.957031 4.4375 -5.0625 C 4.257812 -5.257812 4.039062 -5.410156 3.78125 -5.515625 C 3.53125 -5.617188 3.253906 -5.671875 2.953125 -5.671875 C 2.640625 -5.671875 2.367188 -5.609375 2.140625 -5.484375 C 1.921875 -5.359375 1.8125 -5.140625 1.8125 -4.828125 C 1.820312 -4.535156 1.945312 -4.316406 2.1875 -4.171875 C 2.4375 -4.035156 2.816406 -3.898438 3.328125 -3.765625 C 3.765625 -3.648438 4.128906 -3.523438 4.421875 -3.390625 C 4.710938 -3.265625 4.957031 -3.070312 5.15625 -2.8125 C 5.351562 -2.550781 5.453125 -2.207031 5.453125 -1.78125 C 5.453125 -1.394531 5.335938 -1.054688 5.109375 -0.765625 C 4.890625 -0.484375 4.597656 -0.265625 4.234375 -0.109375 C 3.878906 0.046875 3.5 0.125 3.09375 0.125 C 2.5625 0.125 2.070312 0.0351562 1.625 -0.140625 C 1.1875 -0.328125 0.816406 -0.617188 0.515625 -1.015625 Z M 0.515625 -1.015625 "/></g></g></g><g fill="#000000" fill-opacity="1"><g transform="translate(182.008123, 240.008663)"><g><path d="M 2.65625 -5.375 L 2.65625 -1.65625 C 2.65625 -1.238281 2.84375 -1.03125 3.21875 -1.03125 C 3.269531 -1.03125 3.34375 -1.046875 3.4375 -1.078125 C 3.539062 -1.109375 3.625 -1.125 3.6875 -1.125 C 3.789062 -1.125 3.878906 -1.078125 3.953125 -0.984375 C 4.035156 -0.890625 4.078125 -0.773438 4.078125 -0.640625 C 4.078125 -0.460938 3.972656 -0.3125 3.765625 -0.1875 C 3.566406 -0.0625 3.34375 0 3.09375 0 C 2.820312 0 2.570312 -0.0234375 2.34375 -0.078125 C 2.113281 -0.140625 1.910156 -0.289062 1.734375 -0.53125 C 1.554688 -0.769531 1.46875 -1.128906 1.46875 -1.609375 L 1.46875 -5.375 L 0.75 -5.375 C 0.59375 -5.375 0.460938 -5.421875 0.359375 -5.515625 C 0.253906 -5.617188 0.203125 -5.753906 0.203125 -5.921875 C 0.203125 -6.078125 0.253906 -6.203125 0.359375 -6.296875 C 0.460938 -6.398438 0.59375 -6.453125 0.75 -6.453125 L 1.46875 -6.453125 L 1.46875 -7.5 C 1.46875 -7.664062 1.523438 -7.804688 1.640625 -7.921875 C 1.753906 -8.035156 1.894531 -8.09375 2.0625 -8.09375 C 2.226562 -8.09375 2.367188 -8.035156 2.484375 -7.921875 C 2.597656 -7.804688 2.65625 -7.664062 2.65625 -7.5 L 2.65625 -6.453125 L 3.6875 -6.453125 C 3.84375 -6.453125 3.972656 -6.398438 4.078125 -6.296875 C 4.179688 -6.191406 4.234375 -6.0625 4.234375 -5.90625 C 4.234375 -5.75 4.179688 -5.617188 4.078125 -5.515625 C 3.972656 -5.421875 3.84375 -5.375 3.6875 -5.375 Z M 2.65625 -5.375 "/></g></g></g><g fill="#000000" fill-opacity="1"><g transform="translate(189.351013, 240.008663)"><g><path d="M 7.0625 -3.265625 C 7.0625 -2.617188 6.914062 -2.035156 6.625 -1.515625 C 6.332031 -1.003906 5.9375 -0.601562 5.4375 -0.3125 C 4.9375 -0.0195312 4.378906 0.125 3.765625 0.125 C 3.160156 0.125 2.609375 -0.0195312 2.109375 -0.3125 C 1.609375 -0.601562 1.210938 -1.003906 0.921875 -1.515625 C 0.628906 -2.035156 0.484375 -2.617188 0.484375 -3.265625 C 0.484375 -3.910156 0.628906 -4.492188 0.921875 -5.015625 C 1.210938 -5.535156 1.609375 -5.941406 2.109375 -6.234375 C 2.609375 -6.523438 3.160156 -6.671875 3.765625 -6.671875 C 4.378906 -6.671875 4.9375 -6.523438 5.4375 -6.234375 C 5.9375 -5.941406 6.332031 -5.535156 6.625 -5.015625 C 6.914062 -4.492188 7.0625 -3.910156 7.0625 -3.265625 Z M 5.875 -3.265625 C 5.875 -3.710938 5.78125 -4.113281 5.59375 -4.46875 C 5.40625 -4.820312 5.148438 -5.09375 4.828125 -5.28125 C 4.515625 -5.476562 4.160156 -5.578125 3.765625 -5.578125 C 3.378906 -5.578125 3.023438 -5.476562 2.703125 -5.28125 C 2.390625 -5.09375 2.140625 -4.820312 1.953125 -4.46875 C 1.765625 -4.113281 1.671875 -3.710938 1.671875 -3.265625 C 1.671875 -2.828125 1.765625 -2.429688 1.953125 -2.078125 C 2.140625 -1.734375 2.390625 -1.460938 2.703125 -1.265625 C 3.023438 -1.066406 3.378906 -0.96875 3.765625 -0.96875 C 4.160156 -0.96875 4.515625 -1.066406 4.828125 -1.265625 C 5.148438 -1.460938 5.40625 -1.734375 5.59375 -2.078125 C 5.78125 -2.429688 5.875 -2.828125 5.875 -3.265625 Z M 5.875 -3.265625 "/></g></g></g><g fill="#000000" fill-opacity="1"><g transform="translate(199.505708, 240.008663)"><g><path d="M 6.171875 -6.546875 C 6.347656 -6.546875 6.492188 -6.488281 6.609375 -6.375 C 6.722656 -6.269531 6.78125 -6.125 6.78125 -5.9375 L 6.78125 1.890625 C 6.78125 2.054688 6.722656 2.195312 6.609375 2.3125 C 6.492188 2.425781 6.347656 2.484375 6.171875 2.484375 C 6.003906 2.484375 5.863281 2.425781 5.75 2.3125 C 5.644531 2.207031 5.59375 2.066406 5.59375 1.890625 L 5.59375 -0.953125 C 5.382812 -0.648438 5.085938 -0.394531 4.703125 -0.1875 C 4.328125 0.0195312 3.925781 0.125 3.5 0.125 C 2.9375 0.125 2.425781 -0.0195312 1.96875 -0.3125 C 1.507812 -0.601562 1.144531 -1.003906 0.875 -1.515625 C 0.613281 -2.035156 0.484375 -2.625 0.484375 -3.28125 C 0.484375 -3.925781 0.613281 -4.503906 0.875 -5.015625 C 1.132812 -5.535156 1.492188 -5.941406 1.953125 -6.234375 C 2.410156 -6.523438 2.914062 -6.671875 3.46875 -6.671875 C 3.90625 -6.671875 4.3125 -6.578125 4.6875 -6.390625 C 5.0625 -6.210938 5.363281 -5.976562 5.59375 -5.6875 L 5.59375 -5.9375 C 5.59375 -6.113281 5.644531 -6.257812 5.75 -6.375 C 5.863281 -6.488281 6.003906 -6.546875 6.171875 -6.546875 Z M 3.640625 -0.96875 C 4.023438 -0.96875 4.367188 -1.066406 4.671875 -1.265625 C 4.972656 -1.460938 5.207031 -1.734375 5.375 -2.078125 C 5.550781 -2.429688 5.640625 -2.832031 5.640625 -3.28125 C 5.640625 -3.707031 5.550781 -4.097656 5.375 -4.453125 C 5.207031 -4.804688 4.972656 -5.082031 4.671875 -5.28125 C 4.367188 -5.476562 4.023438 -5.578125 3.640625 -5.578125 C 3.242188 -5.578125 2.894531 -5.476562 2.59375 -5.28125 C 2.289062 -5.082031 2.050781 -4.804688 1.875 -4.453125 C 1.707031 -4.097656 1.625 -3.707031 1.625 -3.28125 C 1.625 -2.832031 1.707031 -2.429688 1.875 -2.078125 C 2.050781 -1.734375 2.289062 -1.460938 2.59375 -1.265625 C 2.894531 -1.066406 3.242188 -0.96875 3.640625 -0.96875 Z M 3.640625 -0.96875 "/></g></g></g><g fill="#000000" fill-opacity="1"><g transform="translate(209.759933, 240.008663)"><g><path d="M 5.734375 -6.53125 C 5.910156 -6.53125 6.054688 -6.46875 6.171875 -6.34375 C 6.285156 -6.226562 6.34375 -6.085938 6.34375 -5.921875 L 6.34375 -2.609375 C 6.34375 -1.742188 6.101562 -1.070312 5.625 -0.59375 C 5.144531 -0.125 4.46875 0.109375 3.59375 0.109375 C 2.726562 0.109375 2.0625 -0.125 1.59375 -0.59375 C 1.125 -1.070312 0.890625 -1.742188 0.890625 -2.609375 L 0.890625 -5.921875 C 0.890625 -6.085938 0.941406 -6.226562 1.046875 -6.34375 C 1.160156 -6.46875 1.300781 -6.53125 1.46875 -6.53125 C 1.644531 -6.53125 1.785156 -6.46875 1.890625 -6.34375 C 2.003906 -6.226562 2.0625 -6.085938 2.0625 -5.921875 L 2.0625 -2.609375 C 2.0625 -1.523438 2.570312 -0.984375 3.59375 -0.984375 C 4.101562 -0.984375 4.488281 -1.117188 4.75 -1.390625 C 5.019531 -1.671875 5.15625 -2.078125 5.15625 -2.609375 L 5.15625 -5.921875 C 5.15625 -6.085938 5.207031 -6.226562 5.3125 -6.34375 C 5.425781 -6.46875 5.566406 -6.53125 5.734375 -6.53125 Z M 5.734375 -6.53125 "/></g></g></g><g fill="#000000" fill-opacity="1"><g transform="translate(219.591155, 240.008663)"><g><path d="M 6.609375 -3.515625 C 6.597656 -3.359375 6.535156 -3.226562 6.421875 -3.125 C 6.304688 -3.019531 6.171875 -2.96875 6.015625 -2.96875 L 1.625 -2.96875 C 1.6875 -2.363281 1.914062 -1.878906 2.3125 -1.515625 C 2.71875 -1.148438 3.210938 -0.96875 3.796875 -0.96875 C 4.191406 -0.96875 4.515625 -1.023438 4.765625 -1.140625 C 5.015625 -1.253906 5.234375 -1.40625 5.421875 -1.59375 C 5.546875 -1.664062 5.671875 -1.703125 5.796875 -1.703125 C 5.929688 -1.703125 6.046875 -1.648438 6.140625 -1.546875 C 6.234375 -1.453125 6.28125 -1.335938 6.28125 -1.203125 C 6.28125 -1.035156 6.203125 -0.878906 6.046875 -0.734375 C 5.796875 -0.492188 5.472656 -0.289062 5.078125 -0.125 C 4.679688 0.0390625 4.273438 0.125 3.859375 0.125 C 3.191406 0.125 2.597656 -0.015625 2.078125 -0.296875 C 1.566406 -0.578125 1.171875 -0.96875 0.890625 -1.46875 C 0.617188 -1.976562 0.484375 -2.554688 0.484375 -3.203125 C 0.484375 -3.898438 0.625 -4.507812 0.90625 -5.03125 C 1.195312 -5.5625 1.578125 -5.96875 2.046875 -6.25 C 2.515625 -6.53125 3.019531 -6.671875 3.5625 -6.671875 C 4.09375 -6.671875 4.585938 -6.535156 5.046875 -6.265625 C 5.515625 -5.992188 5.890625 -5.613281 6.171875 -5.125 C 6.453125 -4.644531 6.597656 -4.109375 6.609375 -3.515625 Z M 3.5625 -5.578125 C 3.09375 -5.578125 2.6875 -5.445312 2.34375 -5.1875 C 2.007812 -4.925781 1.789062 -4.519531 1.6875 -3.96875 L 5.359375 -3.96875 L 5.359375 -4.078125 C 5.316406 -4.515625 5.117188 -4.875 4.765625 -5.15625 C 4.410156 -5.4375 4.007812 -5.578125 3.5625 -5.578125 Z M 3.5625 -5.578125 "/></g></g></g><g fill="#000000" fill-opacity="1"><g transform="translate(229.297952, 240.008663)"><g/></g></g><g fill="#000000" fill-opacity="1"><g transform="translate(235.359363, 240.008663)"><g><path d="M 6.609375 -3.515625 C 6.597656 -3.359375 6.535156 -3.226562 6.421875 -3.125 C 6.304688 -3.019531 6.171875 -2.96875 6.015625 -2.96875 L 1.625 -2.96875 C 1.6875 -2.363281 1.914062 -1.878906 2.3125 -1.515625 C 2.71875 -1.148438 3.210938 -0.96875 3.796875 -0.96875 C 4.191406 -0.96875 4.515625 -1.023438 4.765625 -1.140625 C 5.015625 -1.253906 5.234375 -1.40625 5.421875 -1.59375 C 5.546875 -1.664062 5.671875 -1.703125 5.796875 -1.703125 C 5.929688 -1.703125 6.046875 -1.648438 6.140625 -1.546875 C 6.234375 -1.453125 6.28125 -1.335938 6.28125 -1.203125 C 6.28125 -1.035156 6.203125 -0.878906 6.046875 -0.734375 C 5.796875 -0.492188 5.472656 -0.289062 5.078125 -0.125 C 4.679688 0.0390625 4.273438 0.125 3.859375 0.125 C 3.191406 0.125 2.597656 -0.015625 2.078125 -0.296875 C 1.566406 -0.578125 1.171875 -0.96875 0.890625 -1.46875 C 0.617188 -1.976562 0.484375 -2.554688 0.484375 -3.203125 C 0.484375 -3.898438 0.625 -4.507812 0.90625 -5.03125 C 1.195312 -5.5625 1.578125 -5.96875 2.046875 -6.25 C 2.515625 -6.53125 3.019531 -6.671875 3.5625 -6.671875 C 4.09375 -6.671875 4.585938 -6.535156 5.046875 -6.265625 C 5.515625 -5.992188 5.890625 -5.613281 6.171875 -5.125 C 6.453125 -4.644531 6.597656 -4.109375 6.609375 -3.515625 Z M 3.5625 -5.578125 C 3.09375 -5.578125 2.6875 -5.445312 2.34375 -5.1875 C 2.007812 -4.925781 1.789062 -4.519531 1.6875 -3.96875 L 5.359375 -3.96875 L 5.359375 -4.078125 C 5.316406 -4.515625 5.117188 -4.875 4.765625 -5.15625 C 4.410156 -5.4375 4.007812 -5.578125 3.5625 -5.578125 Z M 3.5625 -5.578125 "/></g></g></g><g fill="#000000" fill-opacity="1"><g transform="translate(245.066161, 240.008663)"><g/></g></g><g fill="#000000" fill-opacity="1"><g transform="translate(251.127572, 240.008663)"><g><path d="M 5.859375 -6.59375 C 6.023438 -6.59375 6.160156 -6.539062 6.265625 -6.4375 C 6.367188 -6.332031 6.421875 -6.207031 6.421875 -6.0625 C 6.421875 -5.988281 6.394531 -5.882812 6.34375 -5.75 L 3.96875 -0.375 C 3.914062 -0.269531 3.84375 -0.179688 3.75 -0.109375 C 3.664062 -0.046875 3.570312 -0.0078125 3.46875 0 C 3.332031 0.0195312 3.207031 0 3.09375 -0.0625 C 2.976562 -0.132812 2.894531 -0.238281 2.84375 -0.375 L 0.46875 -5.75 C 0.425781 -5.875 0.40625 -5.976562 0.40625 -6.0625 C 0.40625 -6.195312 0.457031 -6.316406 0.5625 -6.421875 C 0.675781 -6.535156 0.820312 -6.59375 1 -6.59375 C 1.125 -6.59375 1.234375 -6.5625 1.328125 -6.5 C 1.429688 -6.4375 1.507812 -6.34375 1.5625 -6.21875 L 3.453125 -1.84375 L 5.328125 -6.21875 C 5.441406 -6.46875 5.617188 -6.59375 5.859375 -6.59375 Z M 5.859375 -6.59375 "/></g></g></g><g fill="#000000" fill-opacity="1"><g transform="translate(260.560656, 240.008663)"><g><path d="M 6.609375 -3.515625 C 6.597656 -3.359375 6.535156 -3.226562 6.421875 -3.125 C 6.304688 -3.019531 6.171875 -2.96875 6.015625 -2.96875 L 1.625 -2.96875 C 1.6875 -2.363281 1.914062 -1.878906 2.3125 -1.515625 C 2.71875 -1.148438 3.210938 -0.96875 3.796875 -0.96875 C 4.191406 -0.96875 4.515625 -1.023438 4.765625 -1.140625 C 5.015625 -1.253906 5.234375 -1.40625 5.421875 -1.59375 C 5.546875 -1.664062 5.671875 -1.703125 5.796875 -1.703125 C 5.929688 -1.703125 6.046875 -1.648438 6.140625 -1.546875 C 6.234375 -1.453125 6.28125 -1.335938 6.28125 -1.203125 C 6.28125 -1.035156 6.203125 -0.878906 6.046875 -0.734375 C 5.796875 -0.492188 5.472656 -0.289062 5.078125 -0.125 C 4.679688 0.0390625 4.273438 0.125 3.859375 0.125 C 3.191406 0.125 2.597656 -0.015625 2.078125 -0.296875 C 1.566406 -0.578125 1.171875 -0.96875 0.890625 -1.46875 C 0.617188 -1.976562 0.484375 -2.554688 0.484375 -3.203125 C 0.484375 -3.898438 0.625 -4.507812 0.90625 -5.03125 C 1.195312 -5.5625 1.578125 -5.96875 2.046875 -6.25 C 2.515625 -6.53125 3.019531 -6.671875 3.5625 -6.671875 C 4.09375 -6.671875 4.585938 -6.535156 5.046875 -6.265625 C 5.515625 -5.992188 5.890625 -5.613281 6.171875 -5.125 C 6.453125 -4.644531 6.597656 -4.109375 6.609375 -3.515625 Z M 3.5625 -5.578125 C 3.09375 -5.578125 2.6875 -5.445312 2.34375 -5.1875 C 2.007812 -4.925781 1.789062 -4.519531 1.6875 -3.96875 L 5.359375 -3.96875 L 5.359375 -4.078125 C 5.316406 -4.515625 5.117188 -4.875 4.765625 -5.15625 C 4.410156 -5.4375 4.007812 -5.578125 3.5625 -5.578125 Z M 3.5625 -5.578125 "/></g></g></g><g fill="#000000" fill-opacity="1"><g transform="translate(270.267453, 240.008663)"><g><path d="M 4.203125 -6.671875 C 5.703125 -6.671875 6.453125 -5.773438 6.453125 -3.984375 L 6.453125 -0.59375 C 6.453125 -0.425781 6.394531 -0.285156 6.28125 -0.171875 C 6.164062 -0.0546875 6.023438 0 5.859375 0 C 5.691406 0 5.550781 -0.0546875 5.4375 -0.171875 C 5.320312 -0.285156 5.265625 -0.425781 5.265625 -0.59375 L 5.265625 -3.96875 C 5.265625 -4.457031 5.148438 -4.847656 4.921875 -5.140625 C 4.703125 -5.429688 4.335938 -5.578125 3.828125 -5.578125 C 3.503906 -5.578125 3.207031 -5.503906 2.9375 -5.359375 C 2.664062 -5.210938 2.453125 -5.015625 2.296875 -4.765625 C 2.140625 -4.523438 2.0625 -4.257812 2.0625 -3.96875 L 2.0625 -0.59375 C 2.0625 -0.425781 2.003906 -0.285156 1.890625 -0.171875 C 1.785156 -0.0546875 1.644531 0 1.46875 0 C 1.289062 0 1.148438 -0.0546875 1.046875 -0.171875 C 0.941406 -0.285156 0.890625 -0.425781 0.890625 -0.59375 L 0.890625 -5.921875 C 0.890625 -6.085938 0.941406 -6.226562 1.046875 -6.34375 C 1.160156 -6.46875 1.300781 -6.53125 1.46875 -6.53125 C 1.644531 -6.53125 1.785156 -6.46875 1.890625 -6.34375 C 2.003906 -6.226562 2.0625 -6.085938 2.0625 -5.921875 L 2.0625 -5.484375 C 2.28125 -5.816406 2.582031 -6.097656 2.96875 -6.328125 C 3.351562 -6.554688 3.765625 -6.671875 4.203125 -6.671875 Z M 4.203125 -6.671875 "/></g></g></g><g fill="#000000" fill-opacity="1"><g transform="translate(280.210646, 240.008663)"><g><path d="M 6.171875 -9.21875 C 6.347656 -9.21875 6.492188 -9.160156 6.609375 -9.046875 C 6.722656 -8.929688 6.78125 -8.789062 6.78125 -8.625 L 6.78125 -0.59375 C 6.78125 -0.425781 6.722656 -0.285156 6.609375 -0.171875 C 6.492188 -0.0546875 6.347656 0 6.171875 0 C 6.003906 0 5.863281 -0.0546875 5.75 -0.171875 C 5.644531 -0.285156 5.59375 -0.425781 5.59375 -0.59375 L 5.59375 -0.953125 C 5.382812 -0.648438 5.085938 -0.394531 4.703125 -0.1875 C 4.328125 0.0195312 3.925781 0.125 3.5 0.125 C 2.9375 0.125 2.425781 -0.0195312 1.96875 -0.3125 C 1.507812 -0.601562 1.144531 -1.003906 0.875 -1.515625 C 0.613281 -2.035156 0.484375 -2.625 0.484375 -3.28125 C 0.484375 -3.925781 0.613281 -4.503906 0.875 -5.015625 C 1.132812 -5.535156 1.492188 -5.941406 1.953125 -6.234375 C 2.410156 -6.523438 2.914062 -6.671875 3.46875 -6.671875 C 3.90625 -6.671875 4.3125 -6.578125 4.6875 -6.390625 C 5.0625 -6.210938 5.363281 -5.976562 5.59375 -5.6875 L 5.59375 -8.625 C 5.59375 -8.789062 5.644531 -8.929688 5.75 -9.046875 C 5.863281 -9.160156 6.003906 -9.21875 6.171875 -9.21875 Z M 3.640625 -0.96875 C 4.023438 -0.96875 4.367188 -1.066406 4.671875 -1.265625 C 4.972656 -1.460938 5.207031 -1.734375 5.375 -2.078125 C 5.550781 -2.429688 5.640625 -2.832031 5.640625 -3.28125 C 5.640625 -3.707031 5.550781 -4.097656 5.375 -4.453125 C 5.207031 -4.804688 4.972656 -5.082031 4.671875 -5.28125 C 4.367188 -5.476562 4.023438 -5.578125 3.640625 -5.578125 C 3.242188 -5.578125 2.894531 -5.476562 2.59375 -5.28125 C 2.289062 -5.082031 2.050781 -4.804688 1.875 -4.453125 C 1.707031 -4.097656 1.625 -3.707031 1.625 -3.28125 C 1.625 -2.832031 1.707031 -2.429688 1.875 -2.078125 C 2.050781 -1.734375 2.289062 -1.460938 2.59375 -1.265625 C 2.894531 -1.066406 3.242188 -0.96875 3.640625 -0.96875 Z M 3.640625 -0.96875 "/></g></g></g><g fill="#000000" fill-opacity="1"><g transform="translate(290.464872, 240.008663)"><g><path d="M 6.171875 -6.609375 C 6.347656 -6.609375 6.492188 -6.550781 6.609375 -6.4375 C 6.722656 -6.332031 6.78125 -6.1875 6.78125 -6 L 6.78125 -0.59375 C 6.78125 -0.425781 6.722656 -0.285156 6.609375 -0.171875 C 6.492188 -0.0546875 6.347656 0 6.171875 0 C 6.003906 0 5.863281 -0.0546875 5.75 -0.171875 C 5.644531 -0.285156 5.59375 -0.425781 5.59375 -0.59375 L 5.59375 -0.921875 C 5.375 -0.628906 5.078125 -0.378906 4.703125 -0.171875 C 4.328125 0.0234375 3.925781 0.125 3.5 0.125 C 2.9375 0.125 2.421875 -0.0195312 1.953125 -0.3125 C 1.492188 -0.601562 1.132812 -1.003906 0.875 -1.515625 C 0.613281 -2.035156 0.484375 -2.625 0.484375 -3.28125 C 0.484375 -3.925781 0.613281 -4.503906 0.875 -5.015625 C 1.132812 -5.535156 1.492188 -5.941406 1.953125 -6.234375 C 2.410156 -6.523438 2.914062 -6.671875 3.46875 -6.671875 C 3.90625 -6.671875 4.3125 -6.578125 4.6875 -6.390625 C 5.0625 -6.210938 5.363281 -5.984375 5.59375 -5.703125 L 5.59375 -6 C 5.59375 -6.175781 5.644531 -6.320312 5.75 -6.4375 C 5.863281 -6.550781 6.003906 -6.609375 6.171875 -6.609375 Z M 3.640625 -0.96875 C 4.023438 -0.96875 4.367188 -1.066406 4.671875 -1.265625 C 4.972656 -1.460938 5.207031 -1.734375 5.375 -2.078125 C 5.550781 -2.429688 5.640625 -2.832031 5.640625 -3.28125 C 5.640625 -3.707031 5.550781 -4.09375 5.375 -4.4375 C 5.207031 -4.789062 4.972656 -5.066406 4.671875 -5.265625 C 4.367188 -5.472656 4.023438 -5.578125 3.640625 -5.578125 C 3.242188 -5.578125 2.894531 -5.476562 2.59375 -5.28125 C 2.289062 -5.082031 2.050781 -4.804688 1.875 -4.453125 C 1.707031 -4.109375 1.625 -3.71875 1.625 -3.28125 C 1.625 -2.832031 1.707031 -2.429688 1.875 -2.078125 C 2.050781 -1.734375 2.289062 -1.460938 2.59375 -1.265625 C 2.894531 -1.066406 3.242188 -0.96875 3.640625 -0.96875 Z M 3.640625 -0.96875 "/></g></g></g><g fill="#000000" fill-opacity="1"><g transform="translate(300.719098, 240.008663)"><g><path d="M 0.515625 -1.015625 C 0.441406 -1.140625 0.40625 -1.253906 0.40625 -1.359375 C 0.40625 -1.523438 0.488281 -1.664062 0.65625 -1.78125 C 0.738281 -1.84375 0.835938 -1.875 0.953125 -1.875 C 1.097656 -1.875 1.234375 -1.8125 1.359375 -1.6875 C 1.609375 -1.394531 1.875 -1.175781 2.15625 -1.03125 C 2.445312 -0.894531 2.789062 -0.828125 3.1875 -0.828125 C 3.5 -0.835938 3.773438 -0.910156 4.015625 -1.046875 C 4.265625 -1.179688 4.390625 -1.40625 4.390625 -1.71875 C 4.390625 -2 4.265625 -2.210938 4.015625 -2.359375 C 3.773438 -2.515625 3.414062 -2.65625 2.9375 -2.78125 C 2.46875 -2.90625 2.078125 -3.035156 1.765625 -3.171875 C 1.460938 -3.304688 1.207031 -3.503906 1 -3.765625 C 0.789062 -4.023438 0.6875 -4.367188 0.6875 -4.796875 C 0.6875 -5.171875 0.789062 -5.5 1 -5.78125 C 1.207031 -6.0625 1.488281 -6.28125 1.84375 -6.4375 C 2.195312 -6.59375 2.582031 -6.671875 3 -6.671875 C 3.394531 -6.671875 3.789062 -6.59375 4.1875 -6.4375 C 4.582031 -6.289062 4.90625 -6.066406 5.15625 -5.765625 C 5.257812 -5.648438 5.3125 -5.53125 5.3125 -5.40625 C 5.3125 -5.269531 5.242188 -5.140625 5.109375 -5.015625 C 5.023438 -4.941406 4.921875 -4.90625 4.796875 -4.90625 C 4.640625 -4.90625 4.519531 -4.957031 4.4375 -5.0625 C 4.257812 -5.257812 4.039062 -5.410156 3.78125 -5.515625 C 3.53125 -5.617188 3.253906 -5.671875 2.953125 -5.671875 C 2.640625 -5.671875 2.367188 -5.609375 2.140625 -5.484375 C 1.921875 -5.359375 1.8125 -5.140625 1.8125 -4.828125 C 1.820312 -4.535156 1.945312 -4.316406 2.1875 -4.171875 C 2.4375 -4.035156 2.816406 -3.898438 3.328125 -3.765625 C 3.765625 -3.648438 4.128906 -3.523438 4.421875 -3.390625 C 4.710938 -3.265625 4.957031 -3.070312 5.15625 -2.8125 C 5.351562 -2.550781 5.453125 -2.207031 5.453125 -1.78125 C 5.453125 -1.394531 5.335938 -1.054688 5.109375 -0.765625 C 4.890625 -0.484375 4.597656 -0.265625 4.234375 -0.109375 C 3.878906 0.046875 3.5 0.125 3.09375 0.125 C 2.5625 0.125 2.070312 0.0351562 1.625 -0.140625 C 1.1875 -0.328125 0.816406 -0.617188 0.515625 -1.015625 Z M 0.515625 -1.015625 "/></g></g></g></svg>